<?xml version="1.0" standalone="no"?>
<!DOCTYPE svg PUBLIC "-//W3C//DTD SVG 1.1//EN" "http://www.w3.org/Graphics/SVG/1.1/DTD/svg11.dtd" >
<svg>
<metadata>
Created by FontForge 20090622 at Sat Mar 28 09:08:34 2020
 By deploy user
Kiyumaya Sono
</metadata>
<defs>
<font id="sushiki" horiz-adv-x="1024" vert-adv-y="1024" >
  <font-face 
    font-family="sushiki"
    font-weight="400"
    font-stretch="normal"
    units-per-em="1024"
    panose-1="2 0 6 9 0 0 0 0 0 0"
    ascent="880"
    descent="-144"
    x-height="260"
    cap-height="789"
    bbox="0 -142 1001 863"
    underline-thickness="48"
    underline-position="-72"
    unicode-range="U+0020-U+FFEE"
  />
<missing-glyph 
d="M402 258v220h220v-220h-220z" />
    <glyph glyph-name=".notdef" 
d="M402 258v220h220v-220h-220z" />
    <glyph glyph-name="glyph1" horiz-adv-x="0" 
 />
    <glyph glyph-name="space" unicode=" " horiz-adv-x="512" 
 />
    <glyph glyph-name="exclam" unicode="!" horiz-adv-x="512" 
d="M239 160h19v621h-19v-621zM189 -45h124v124h-124v-124z" />
    <glyph glyph-name="quotedbl" unicode="&#x22;" horiz-adv-x="512" 
d="M79 681h61l-27 -67l18 -7l29 74v0v0v82h-81v-82zM270 763h-81v-82h61l-27 -67l18 -7l29 74v0v0v82z" />
    <glyph glyph-name="numbersign" unicode="#" horiz-adv-x="512" 
d="M449 474v19h-97l27 250l-19 2l-28 -252h-142l28 250l-19 2l-28 -252h-107v-19h105l-24 -212h-81v-19h79l-34 -308l19 -2l34 310h143l-34 -308l19 -2l34 310h125v19h-123l23 212h100zM307 262h-142l23 212h142z" />
    <glyph glyph-name="dollar" unicode="$" horiz-adv-x="512" 
d="M365 428h-102v265h93v19h-93v67h-20v-67h-93v-303h93v-341h-95v-19h95v-86h20v86h102v379zM169 428v265h74v-265h-74zM346 68h-83v341h83v-341z" />
    <glyph glyph-name="percent" unicode="%" horiz-adv-x="512" 
d="M500 694l15 -11l-500 -670l-15 11zM146 443q34 1 57 24.5t24 57.5q0 34 -23.5 57.5t-57.5 23.5t-57.5 -23.5t-23.5 -57.5t23.5 -57.5t57.5 -24.5zM146 592q61 -6 67 -67q-1 -28 -20 -47.5t-47 -20.5q-62 6 -67 68q5 61 67 67zM146 466q54 5 59 59q-5 55 -59 59
q-55 -4 -59 -59q4 -54 59 -59zM146 575q45 -4 50 -50q-5 -45 -50 -50q-46 5 -50 50q4 46 50 50zM353 207q-35 -1 -58.5 -24t-23.5 -58q0 -33 23.5 -56.5t58.5 -24.5q33 0 56.5 24t24.5 57q-1 35 -24.5 58t-56.5 24zM353 58q-62 6 -68 67q6 62 68 67q27 0 46.5 -19t20.5 -48
q-6 -61 -67 -67zM353 185q-55 -5 -60 -59q5 -55 60 -60q54 5 59 60q-5 54 -59 59zM353 76q-46 4 -50 50q4 45 50 49q45 -4 49 -49q-4 -46 -49 -50z" />
    <glyph glyph-name="ampersand" unicode="&#x26;" horiz-adv-x="512" 
d="M360 196h-19v-79l-164 282h164v379h-190v-334v-45v-444h209v92l59 -102l16 9l-75 131v111zM170 759h152v-341h-152v341zM341 -26h-171v399l171 -294v-105zM391 212q-5 11 -11 22l-10 -6l11 -21zM399 164l11 5q-4 11 -9 22l-10 -5q4 -10 8 -22zM432 -19h12q-1 12 -1 24
l-12 -1q0 -11 1 -23zM423 74l12 2q-3 12 -4 24l-12 -3zM429 28l12 1l-2 24l-12 -2zM413 120l12 3q-4 12 -7 23l-11 -4q3 -10 6 -22zM262 349l7 9q-10 8 -20 14l-6 -10q10 -6 19 -13zM223 374l6 10l-23 11l-4 -11q10 -4 21 -10zM330 285l9 8l-16 18l-9 -9q8 -8 16 -17z
M298 319l8 9l-18 16l-7 -10zM367 254q-7 10 -13 20l-10 -7q7 -9 13 -19z" />
    <glyph glyph-name="quotesingle" unicode="'" horiz-adv-x="512" 
d="M159 804h-81v-81h60l-26 -67l17 -7l30 74h-1h1v81z" />
    <glyph glyph-name="parenleft" unicode="(" horiz-adv-x="512" 
d="M385 -129h-22q-128 233 -121.5 495t122.5 497h22q-119 -234 -125.5 -497t124.5 -495z" />
    <glyph glyph-name="parenright" unicode=")" horiz-adv-x="512" 
d="M84 863h22q130 -233 124.5 -495t-119.5 -497h-22q117 234 122.5 497t-127.5 495z" />
    <glyph glyph-name="asterisk" unicode="*" horiz-adv-x="512" 
d="M438 209l-164 159l164 159l-16 16l-156 -150v230h-23v-226l-151 146l-16 -16l165 -159l-165 -159l16 -16l151 146v-233h23v237l157 -150z" />
    <glyph glyph-name="plus" unicode="+" horiz-adv-x="512" 
d="M451 376h-186v218h-19v-218h-186v-19h186v-219h19v219h186v19z" />
    <glyph glyph-name="comma" unicode="," horiz-adv-x="512" 
d="M135 68h-81v-81h60l-26 -67l17 -7l30 74h-1h1v81z" />
    <glyph glyph-name="hyphen" unicode="-" horiz-adv-x="512" 
d="M48 362h412v19h-412v-19z" />
    <glyph glyph-name="period" unicode="." horiz-adv-x="512" 
d="M52 -13h81v81h-81v-81z" />
    <glyph glyph-name="slash" unicode="/" horiz-adv-x="512" 
d="M56 -110l395 891l-18 8l-395 -892z" />
    <glyph glyph-name="zero" unicode="0" horiz-adv-x="512" 
d="M137 781v-824h225v824h-225zM343 43l-184 719h184v-719zM157 696l183 -720h-183v720z" />
    <glyph glyph-name="one" unicode="1" horiz-adv-x="512" 
d="M265 -25v810l-131 -223l16 -10l15 26q8 -26 35 -35q7 -2 14 -2q17 0 32 10v-576h-93v-19h207v19h-95v0zM204 556q-30 12 -26 43l68 116v-143q-16 -21 -42 -16z" />
    <glyph glyph-name="two" unicode="2" horiz-adv-x="512" 
d="M410 -39v19h-300q12 111 67 208t153 153q123 71 128 212q0 90 -57 158t-148 72q-92 -4 -148.5 -72t-56.5 -158h19q0 82 51 144.5t135 65.5q84 -3 135 -65.5t51 -144.5q-4 -130 -118 -195q-105 -60 -162.5 -164t-68.5 -223l-2 -10h322zM173 -36q17 15 21 37q2 23 -11 40
q-15 18 -37 21q-23 3 -41 -11l9 -11q13 10 30 8t27 -15q10 -14 9 -30q-3 -17 -16 -28zM255 707q-61 -2 -96.5 -48t-35.5 -105h17q-1 52 30 93t85 43q52 -2 79.5 -44t26.5 -92q0 -43 -22 -80.5t-65 -51.5l3 -17q49 16 75 58t26 91q1 57 -31.5 103.5t-91.5 49.5z" />
    <glyph glyph-name="three" unicode="3" horiz-adv-x="512" 
d="M144 779v-19h155v-57h51v-324h-211v-19h211v-328h-51v-54h-155v-19h225v820h-225zM308 712v48h42v-48h-42zM308 23h42v-45h-42v45z" />
    <glyph glyph-name="four" unicode="4" horiz-adv-x="512" 
d="M347 269v542l-319 -561h300v-290h19v290h84v19h-84zM96 331q11 6 24 4q16 -2 27 -15q9 -14 8 -30q-2 -11 -9 -21h-85zM328 269h-165q5 9 6 19q2 23 -11 41q-14 18 -37 20q-8 2 -14 0l221 390v-470z" />
    <glyph glyph-name="five" unicode="5" horiz-adv-x="512" 
d="M163 386v293h220v19h-220v88h-19v-419h265l-134 -311q-16 23 -43 24v0q-30 -1 -45 -26l-74 125l-17 -10l144 -242l198 459h-275v0zM237 -31l-41 70q9 25 36 26v0q26 -1 35 -26z" />
    <glyph glyph-name="six" unicode="6" horiz-adv-x="512" 
d="M236 14q52 1 88 37.5t37 87.5q-1 53 -37 89t-88 36q-52 -1 -88 -36.5t-37 -88.5q1 -52 37 -88t88 -37zM236 250q46 0 78 -32t33 -79q-1 -46 -33 -78t-78 -33q-46 1 -78 33t-32 78q0 47 32 79t78 32zM236 -52q80 2 135 57t56 134q-1 80 -56 135.5t-135 55.5t-135 -55.5
t-56 -135.5q1 -79 56 -134t135 -57zM236 311q72 0 121.5 -50t50.5 -122q-1 -71 -50.5 -120.5t-121.5 -51.5q-72 2 -121.5 51.5t-50.5 120.5q1 72 50.5 122t121.5 50zM60 320q19 140 98 257.5t198 193.5l-10 16q-124 -79 -204.5 -200t-100.5 -266z" />
    <glyph glyph-name="seven" unicode="7" horiz-adv-x="512" 
d="M82 780v-19h220q-8 -10 -9 -22q-5 -22 8 -42q13 -18 35 -23q5 0 11 -1q5 0 12 2q-79 -164 -114 -342.5t-34 -360.5h19q0 104 11 207.5t34.5 204.5t61.5 197.5t96 182.5l12 16h-363zM368 694q-14 -8 -29 -6q-17 4 -26 17q-10 15 -6 31q2 16 15 25h86q-22 -32 -40 -67z" />
    <glyph glyph-name="eight" unicode="8" horiz-adv-x="512" 
d="M145 778v-824h224v824h-224zM350 -27h-41v43h41v-43zM309 759h41v-45h-41v45zM299 759v-55h51v-326h-186v381h135zM164 359h186v-333h-51v-53h-135v386z" />
    <glyph glyph-name="nine" unicode="9" horiz-adv-x="512" 
d="M250 410q79 1 134.5 56t56.5 135q-1 80 -56.5 135t-134.5 56q-80 -1 -135 -56t-56 -135q0 -70 44 -122.5t113 -65.5q-21 -79 -21 -161t11 -163t31 -160l19 5q-20 78 -30.5 157.5t-10.5 160.5t21 158h14zM250 429h-8q12 37 34 68q53 74 144 82q-9 -64 -57 -106.5
t-113 -43.5zM78 601q1 72 50.5 121.5t121.5 50.5q72 -1 121.5 -50.5t50.5 -121.5q-1 -1 0 -2q-102 -8 -162 -91q-25 -35 -38 -77q-63 11 -103.5 59t-40.5 111z" />
    <glyph glyph-name="colon" unicode=":" horiz-adv-x="512" 
d="M214 567h81v81h-81v-81zM214 89h81v82h-81v-82z" />
    <glyph glyph-name="semicolon" unicode=";" horiz-adv-x="512" 
d="M213 567h81v81h-81v-81zM208 75h82v81h-82v-81zM260 1l30 74l-18 7l-30 -74z" />
    <glyph glyph-name="less" unicode="&#x3c;" horiz-adv-x="512" 
d="M451 -43l17 8l-205 407l199 403l-18 8l-202 -412z" />
    <glyph glyph-name="equal" unicode="=" horiz-adv-x="512" 
d="M53 451h407v19h-407v-19zM53 209h407v19h-407v-19z" />
    <glyph glyph-name="greater" unicode="&#x3e;" horiz-adv-x="512" 
d="M79 -43l209 414l-202 412l-18 -8l199 -403l-205 -407z" />
    <glyph glyph-name="question" unicode="?" horiz-adv-x="512" 
d="M191 -45h124v124h-124v-124zM261 145v257l109 97v281h-238v-233h19v214h200v-253l-109 -98v-265h19z" />
    <glyph glyph-name="at" unicode="@" horiz-adv-x="512" 
d="M500 233q0 75 -26 146t-82 123.5t-135 54.5q-79 -2 -135 -54.5t-82 -123.5t-26 -146q0 -76 26 -147t82 -123t135 -55q62 1 112 36.5t80 88.5l-17 10q-27 -49 -72.5 -82t-102.5 -34q-74 3 -125.5 52.5t-75 116.5t-23.5 137t23.5 136.5t75 116.5t125.5 52
q73 -3 124.5 -52.5t75.5 -116t24 -136.5q0 -75 -27 -145h-120v291h-164v-19h145v-73h-148v-218h148v0h149v7l5 -2q31 76 31 159zM314 88h-32v46h32v-46v0zM186 268h128v-125h-40v-55h-88v180z" />
    <glyph glyph-name="A" unicode="A" horiz-adv-x="512" 
d="M466 -39l-201 835h-19l-201 -835l19 -5l98 410h9v9h-6l50 211q2 -2 5 -4q14 -14 35 -14h2q23 1 38 19l51 -212h-3v-9h5l99 -410zM256 582q-16 0 -27 10q-6 6 -9 14l35 147l35 -146q-9 -23 -34 -25zM229 366h19v9h-19v-9zM190 366h20v9h-20v-9zM267 366h19v9h-19v-9z
M305 366h19v9h-19v-9z" />
    <glyph glyph-name="B" unicode="B" horiz-adv-x="512" 
d="M341 372v404h-204v-423v0v-398h280v417h-76zM156 757h165v-384h-165v384zM156 353h242v-278h-91v-101h-151v379zM398 -26h-77v86h77v-86z" />
    <glyph glyph-name="C" unicode="C" horiz-adv-x="512" 
d="M204 -36v0v115h-108v-115h108zM111 -21v86h79v-86h-79zM402 -38v19h-288v788h288v19h-307v-826h307z" />
    <glyph glyph-name="D" unicode="D" horiz-adv-x="512" 
d="M412 -36v115h-108v-115h108zM318 -21v86h79v-86h-79zM415 -38v817h-307v-19h288v-779h-288v-19h307zM114 24v24h-12v-24h12zM114 72v23h-12v-23h12zM114 119v24h-12v-24h12zM114 166v24h-12v-24h12zM114 214v23h-12v-23h12zM114 261v24h-12v-24h12zM114 308v24h-12v-24
h12zM114 356v23h-12v-23h12zM114 403v24h-12v-24h12zM114 450v24h-12v-24h12zM114 498v23h-12v-23h12zM114 545v24h-12v-24h12zM114 592v24h-12v-24h12zM114 640v23h-12v-23h12zM114 687v23h-12v-23h12z" />
    <glyph glyph-name="E" unicode="E" horiz-adv-x="512" 
d="M377 761v19h-239v-817h229v19h-118v99h-92v282h204v19h-204v379h220zM235 66v-84h-78v84h78z" />
    <glyph glyph-name="F" unicode="F" horiz-adv-x="512" 
d="M372 398h-109v102h-94v261h186v19h-206v-815h20v414h203v19v0zM170 486h79v-87h-79v87z" />
    <glyph glyph-name="G" unicode="G" horiz-adv-x="512" 
d="M204 313l15 -12l17 22q1 -8 5 -16q11 -21 33 -29q9 -3 19 -3q22 0 40 15v-309h-173v783h190v19h-209v-821h211v537zM278 289q-18 7 -26 24q-6 12 -4 24l85 107v-136q-21 -28 -55 -19z" />
    <glyph glyph-name="H" unicode="H" horiz-adv-x="512" 
d="M401 187v14h-26v581h-19v-399h-204v399h-19v-581h-30v-14h30v-24h-30v-14h30v-185h19v185h32v14h-32v24h32v14h-32v163h204v-163h-36v-14h36v-24h-36v-14h36v-185h19v185h26v14h-26v24h26z" />
    <glyph glyph-name="I" unicode="I" horiz-adv-x="512" 
d="M334 470q1 -11 2 -24l12 1l-2 24zM289 700q4 -11 7 -22l11 3q-4 12 -7 23zM313 609q2 -11 5 -23l11 3l-4 23zM273 745q5 -11 9 -22l11 4q-4 11 -9 22zM302 655l6 -23l11 3q-3 12 -5 23zM322 563l4 -23l12 2l-4 23zM350 399q-1 13 -1 24h-12q0 -12 1 -24h12zM329 517
q2 -12 3 -24l12 1q-2 13 -3 24zM293 49l-11 4q-4 -10 -8 -22l11 -4zM349 328l-12 1q-1 -12 -1 -24l11 -1zM346 281l-12 1q-2 -11 -3 -24l12 -1q1 12 3 24zM350 376h-12v-24h12v24zM321 140l-11 3l-6 -23l11 -3zM309 94l-12 4q-4 -11 -7 -23l11 -4q3 12 8 23zM332 186l-12 3
q-3 -11 -5 -23l12 -3q2 12 5 23zM340 233l-12 2l-4 -23l12 -2zM358 789h-210v-20h95v-788h-95v-19h210v19h-96v788h96v20z" />
    <glyph glyph-name="J" unicode="J" horiz-adv-x="512" 
d="M396 786h-247v-19h121v-656q-7 5 -15 8q-21 6 -40 -4q-24 -13 -28 -41l-60 65l-14 -13l176 -190v831h107v19zM204 56q-9 30 18 47q13 7 28 2q12 -3 20 -15v-105z" />
    <glyph glyph-name="K" unicode="K" horiz-adv-x="512" 
d="M127 -48h19v818h-19v-818zM244 320q14 16 14 37q-4 41 -43 50l219 356l-16 10l-258 -419l258 -400l16 10l-219 340q17 4 29 16zM206 393q34 -3 38 -36q-3 -35 -36 -39v-2l-25 39z" />
    <glyph glyph-name="L" unicode="L" horiz-adv-x="512" 
d="M256 -25v97h-89v702h-19v-818h258v19h-150v0zM242 58v-83h-75v83h75z" />
    <glyph glyph-name="M" unicode="M" horiz-adv-x="512" 
d="M457 771l-100 -390h-35v-14h31l-6 -23h-25v-15h22l-87 -337l-85 337h21v15h-25l-5 23h30v14h-34l-97 387l-19 -2v-813h19v735l77 -307h-27v-14h31l6 -23h-37v-15h40l95 -378h19l97 378h40v15h-36l6 23h30v14h-26l80 312v-740h19v815z" />
    <glyph glyph-name="N" unicode="N" horiz-adv-x="512" 
d="M370 778v-763l-248 757l-19 -3v-320h-1q0 -2 1 -4v-490h20v469q15 -10 33 -11q12 1 24 5q19 9 29 27l161 -493l19 3v823h-19zM174 431q-29 -11 -51 12v266l78 -240q-4 -26 -27 -38z" />
    <glyph glyph-name="O" unicode="O" horiz-adv-x="512" 
d="M255 -62q35 1 63.5 20t48.5 46t35 57q33 70 47 145.5t15 152.5q-1 77 -15 152.5t-47 145.5q-15 30 -35 57t-48.5 46t-63.5 19t-63.5 -19t-48.5 -46t-35 -57q-33 -70 -47 -145.5t-14 -152.5t14 -152.5t47 -145.5q15 -30 35 -57t48.5 -46t63.5 -20zM255 760
q33 0 58.5 -18.5t43.5 -44.5t32 -54q29 -67 42 -139t14 -145q-1 -73 -14 -145t-42 -139q-14 -29 -32 -54.5t-43.5 -44t-58.5 -19.5q-32 1 -58 19.5t-44 44t-32 54.5q-30 67 -42.5 139t-12.5 145t12.5 145t42.5 139q14 28 32 54t44 44.5t58 18.5zM298 387q-4 39 -43 43
q-40 -4 -43 -43q3 -39 43 -43q39 4 43 43z" />
    <glyph glyph-name="P" unicode="P" horiz-adv-x="512" 
d="M395 556q-2 91 -64 153t-151 64v0h-19v-820h19v387q89 2 151 64.5t64 151.5zM180 359v395q81 -2 137.5 -58.5t58.5 -139.5q-2 -81 -58.5 -138t-137.5 -59z" />
    <glyph glyph-name="Q" unicode="Q" horiz-adv-x="512" 
d="M473 -23l-79 78q37 71 53 149t16 157q0 75 -14 148.5t-47 141.5q-22 45 -58.5 81t-88.5 39q-53 -3 -89.5 -39t-57.5 -81q-33 -68 -47 -141.5t-14 -148.5t14 -149t47 -141q21 -46 57.5 -81.5t89.5 -39.5q42 2 74.5 28t54.5 60l75 -75zM261 -31v14h-12v-14q-32 4 -57 22.5
t-42.5 44t-30.5 52.5q-29 65 -41 134t-12 139q0 71 12.5 141.5t42.5 135.5q13 27 31.5 52.5t44 43.5t58.5 18q32 0 57.5 -18t44 -43t31.5 -53q30 -65 43 -135.5t13 -141.5q0 -76 -14.5 -150.5t-48.5 -142.5l-121 121l-14 -13l125 -125q-19 -30 -46.5 -53.5t-63.5 -28.5z
M249 101h12v24h-12v-24zM249 7h12v23h-12v-23zM249 54h12v24h-12v-24z" />
    <glyph glyph-name="R" unicode="R" horiz-adv-x="512" 
d="M380 557q-2 91 -64.5 153.5t-152.5 63.5v0h-16v-820h19v189q16 -16 39 -17h2q34 1 51 30l120 -211l16 9l-218 387q86 7 144 68.5t60 147.5zM360 557q-1 -81 -57 -137.5t-137 -59.5v395q81 -2 137 -59t57 -139zM205 138q-19 1 -32 15q-5 5 -7 11v157l85 -151
q-12 -31 -46 -32zM350 166l10 -21l11 5l-10 21zM389 56l11 2q-2 13 -5 24l-12 -3zM377 101l11 4q-4 12 -8 22l-11 -4q4 -10 8 -22zM339 186l10 6q-6 11 -13 20l-10 -6q7 -9 13 -20zM298 242q7 -8 14 -18l10 8l-16 18zM404 35l-11 -2l2 -23l12 1q-2 12 -3 24zM409 -13h-12
q1 -12 1 -24h12q-1 13 -1 24zM208 317l6 10q-10 7 -21 11l-5 -11q10 -4 20 -10zM282 259l8 9q-9 9 -17 16l-8 -9q8 -7 17 -16zM247 290l7 10q-10 7 -19 14l-7 -10q9 -6 19 -14z" />
    <glyph glyph-name="S" unicode="S" horiz-adv-x="512" 
d="M326 195l78 92l-86 74l-79 -93zM259 270l60 71l65 -55l-60 -71zM141 -65l264 351l-271 238l197 245l-14 12l-210 -259l272 -239l-253 -336z" />
    <glyph glyph-name="T" unicode="T" horiz-adv-x="512" 
d="M399 765h-301v-19h141v-788h19v788h141v19z" />
    <glyph glyph-name="U" unicode="U" horiz-adv-x="512" 
d="M388 776v-624h-95v-98h-182v722h-19v-741h295v2h1v-83h19v822h-19zM308 138h79v-84h-79v84z" />
    <glyph glyph-name="V" unicode="V" horiz-adv-x="512" 
d="M446 774l-149 -604q-3 5 -7 8q-15 16 -36 16q-1 0 0 0q-22 -1 -37 -15q-4 -4 -7 -10l-143 604l-19 -4l195 -822l18 -1l204 823zM252 -11l-36 153v0q0 16 11 27t27 10q15 0 26 -11q9 -9 11 -22z" />
    <glyph glyph-name="W" unicode="W" horiz-adv-x="512" 
d="M478 779l-19 2l-87 -752l-104 752l-10 -1l-9 1l-105 -752l-86 752l-19 -2l95 -827h19l105 758l104 -751h-17v-10h19v3h18zM192 -51h20v10h-20v-10zM307 -51h19v10h-19v-10zM154 -51h19v10h-19v-10zM269 -51h19v10h-19v-10zM231 -51h19v10h-19v-10z" />
    <glyph glyph-name="X" unicode="X" horiz-adv-x="512" 
d="M443 771l-18 8l-168 -393l-167 393l-18 -8l175 -409l-175 -410l18 -7l167 392l168 -392l18 7l-175 410zM259 465q23 3 26 26q-2 24 -26 26q-24 -2 -26 -26q2 -24 26 -26zM259 252q-24 -1 -26 -26q2 -23 26 -25q23 2 26 25q-2 24 -26 26z" />
    <glyph glyph-name="Y" unicode="Y" horiz-adv-x="512" 
d="M464 770l-17 9l-139 -269q-4 10 -12 18q-17 17 -40 18q-42 -1 -57 -39l-136 272l-17 -8l196 -393v-425h19v425zM208 489q5 42 47 45q19 -1 32 -15q10 -10 13 -25l-48 -93l-44 88v0z" />
    <glyph glyph-name="Z" unicode="Z" horiz-adv-x="512" 
d="M208 -4q2 24 -12 43q-29 32 -69 17l274 718h-296v-19h268l-305 -800h332v19h-199q5 11 7 22zM120 40l1 -1q35 23 65 -8q11 -15 9 -34q-1 -12 -9 -23h-91z" />
    <glyph glyph-name="bracketleft" unicode="[" horiz-adv-x="512" 
d="M464 -105v19h-201v909h201v19h-220v-947h220z" />
    <glyph glyph-name="backslash" unicode="\" horiz-adv-x="512" 
 />
    <glyph glyph-name="bracketright" unicode="]" horiz-adv-x="512" 
d="M68 -105h220v947h-220v-19h201v-909h-201v-19z" />
    <glyph glyph-name="asciicircum" unicode="^" horiz-adv-x="512" 
d="M406 609l15 12l-164 215l-163 -214l15 -12l148 194z" />
    <glyph glyph-name="underscore" unicode="_" horiz-adv-x="512" 
d="M101 -41h312v20h-312v-20z" />
    <glyph glyph-name="grave" unicode="`" horiz-adv-x="512" 
d="M242 570l16 10l-132 205l-16 -10z" />
    <glyph glyph-name="a" unicode="a" horiz-adv-x="512" 
d="M350 -26v288h-220v-19h201v-75h-201v-213h201v0h42v19h-23zM288 -25v48h41v-48h-41zM149 149h180v-116h-51v-59h-129v175z" />
    <glyph glyph-name="b" unicode="b" horiz-adv-x="512" 
d="M171 263v299h-19v-607h217v308h-198zM171 244h179v-214h-52v-56h-127v270zM350 -26h-43v46h43v-46z" />
    <glyph glyph-name="c" unicode="c" horiz-adv-x="512" 
d="M353 248v20h-200v-313h200v19h-128v58h-53v216h181zM216 22v-48h-44v48h44z" />
    <glyph glyph-name="d" unicode="d" horiz-adv-x="512" 
d="M401 -25h-68v587h-20v-298h-196v-309h208v1h76v19zM313 -26h-43v45h43v-45zM136 244h177v-215h-52v-55h-125v270z" />
    <glyph glyph-name="e" unicode="e" horiz-adv-x="512" 
d="M171 -26v149h18v12h-18v110h196v-110h-12v-12h22v0h9v141h-234v-309h234v19h-215zM260 123h24v12h-24v-12zM213 123h23v12h-23v-12zM307 123h24v12h-24v-12z" />
    <glyph glyph-name="f" unicode="f" horiz-adv-x="512" 
d="M254 505q7 -3 17 -4q8 1 17 4q19 9 26 29l33 -46l15 11l-139 198v-424h-91v-20h91v-297h20v297h99v20h-99v239q4 -4 11 -7zM306 545q-2 -22 -22 -31q-14 -6 -27 0q-9 4 -14 11v111z" />
    <glyph glyph-name="g" unicode="g" horiz-adv-x="512" 
d="M359 7v40v37v181h-212v-218h193v-40h-118v-137h137v137v0zM293 66v42h45v-42h-45zM166 246h174v-128h-57v-52h-117v180zM241 -12h99v-4v0v-37h-57v-58h-42v99zM338 -111h-45v48h45v-48z" />
    <glyph glyph-name="h" unicode="h" horiz-adv-x="512" 
d="M163 264v409h-19v-718h19v290h121v-53h56v-237h19v309h-196zM294 202v43h45v-43h-45z" />
    <glyph glyph-name="i" unicode="i" horiz-adv-x="512" 
d="M246 -39h19v307h-19v-307zM301 341q-3 39 -42 42q-38 -3 -42 -42q4 -38 42 -42q38 4 42 42z" />
    <glyph glyph-name="j" unicode="j" horiz-adv-x="512" 
d="M277 26q-7 5 -14 8q-22 9 -44 0q-34 -15 -37 -52l-47 41l-12 -15l173 -150v409h-19v-241zM196 -30q-6 37 27 53q18 7 35 0q11 -5 19 -14v-109zM286 382q-39 -3 -42 -42q3 -38 42 -42q38 4 42 42q-4 39 -42 42z" />
    <glyph glyph-name="k" unicode="k" horiz-adv-x="512" 
d="M252 85q12 13 13 31q-1 28 -25 40l151 103l-11 16l-215 -147v544h-19v-713h19v144l215 -147l11 16l-152 103q7 4 13 10zM231 150q23 -8 24 -34q0 -14 -10 -25q-7 -6 -16 -9l-49 33z" />
    <glyph glyph-name="l" unicode="l" horiz-adv-x="512" 
d="M242 -44h19v718h-19v-718zM274 -48l1 1l-9 4zM283 -29q3 9 8 17l-9 4q-5 -8 -8 -17zM298 6q3 10 6 18l-9 3q-3 -8 -6 -18zM310 43q3 9 5 18l-9 3q-3 -9 -5 -19zM320 80q2 10 4 19l-9 2q-2 -10 -4 -19zM328 117q1 10 3 19l-9 2q-2 -9 -3 -19zM334 155q0 10 2 20l-10 1
q-1 -9 -2 -19zM338 194q0 9 1 19h-10q0 -9 -1 -19h10zM340 232v19h-9q-1 -9 -1 -19h10zM331 270h10q-1 11 -1 20l-9 -1v-19zM330 308l10 1q-1 10 -1 19l-10 -1q0 -9 1 -19zM328 346l10 1q-1 10 -2 19l-9 -1q0 -9 1 -19zM325 384l9 1q-1 10 -2 19l-9 -1q1 -9 2 -19zM320 422
l10 1q-2 10 -3 19l-9 -1q1 -9 2 -19zM315 460l9 1q-2 10 -3 19l-10 -1q2 -9 4 -19zM308 497l9 2q-2 10 -3 19l-10 -2q1 -9 4 -19zM300 535l10 2q-3 10 -5 18l-9 -2q2 -8 4 -18zM292 572l9 2q-3 10 -5 19l-9 -3q2 -9 5 -18zM282 609l9 2q-3 10 -5 19l-9 -3q2 -9 5 -18z
M271 645l10 3q-3 10 -7 18l-8 -3q2 -8 5 -18z" />
    <glyph glyph-name="m" unicode="m" horiz-adv-x="512" 
d="M108 264v22h-19v-327h19v286h125v-285h19v285h79v-50h45v-233h19v302h-287zM340 205v40h36v-40h-36z" />
    <glyph glyph-name="n" unicode="n" horiz-adv-x="512" 
d="M163 265v20h-19v-328h19v289h123v-51h55v-237h19v307h-197zM296 205v41h45v-41h-45z" />
    <glyph glyph-name="o" unicode="o" horiz-adv-x="512" 
d="M152 264v-307h210v307h-210zM171 245h171v-214h-56v-55h-115v269zM340 -24h-44v45h44v-45z" />
    <glyph glyph-name="p" unicode="p" horiz-adv-x="512" 
d="M356 270h-199v39h-19v-451h19v199h199v213zM157 251h180v-121h-51v-54h-129v175zM337 76h-41v44h41v-44z" />
    <glyph glyph-name="q" unicode="q" horiz-adv-x="512" 
d="M341 339v-71h-198v-211h198v-199h19v481h-19zM341 76h-37v44h37v-44zM162 249h179v-120h-47v-53h-132v173z" />
    <glyph glyph-name="r" unicode="r" horiz-adv-x="512" 
d="M356 256q-41 -2 -79 -17t-62 -49v77h-19v-311h19v166v0q0 57 44 86t97 29v19z" />
    <glyph glyph-name="s" unicode="s" horiz-adv-x="512" 
d="M187 189l113 102l-13 14l-127 -114l91 -101l-41 -41l37 -37l-65 -65l14 -13l116 116zM223 49l32 32l30 -31l-31 -32z" />
    <glyph glyph-name="t" unicode="t" horiz-adv-x="512" 
d="M316 -24v53h-49v217h95v19h-95v106h-19v-106h-93v-19h93v-289h115v19h-47zM307 19v-43h-40v43h40z" />
    <glyph glyph-name="u" unicode="u" horiz-adv-x="512" 
d="M375 103v0v157h-20v-160q0 -44 -26 -80.5t-72 -40.5q-29 -2 -54 11.5t-35 41t-9 53.5v173h-19v-173q-1 -32 11 -63.5t42 -47.5t64 -14q32 1 57.5 19t40.5 46v-72h20v147q-1 2 0 3z" />
    <glyph glyph-name="v" unicode="v" horiz-adv-x="512" 
d="M343 264l-51 -147l-7 9q-14 13 -32 12q-26 -1 -38 -23l-54 151l-18 -6l111 -315l107 313zM254 4l-34 97q7 26 33 27q15 1 25 -9q7 -6 10 -15z" />
    <glyph glyph-name="w" unicode="w" horiz-adv-x="512" 
d="M334 -67l86 331l-18 5l-70 -266l-82 269l-75 -262l-68 255l-19 -5l86 -321l76 266zM315 -62v9h-19v-9h19zM277 -62v9h-19v-9h19zM239 -62v9h-19v-9h19zM201 -62v9h-19v-9h19z" />
    <glyph glyph-name="x" unicode="x" horiz-adv-x="512" 
d="M375 262l-15 11l-102 -145l-104 145l-16 -11l108 -151l-102 -148l15 -10l99 141l102 -142l15 12l-105 147zM257 182q18 2 20 20q-2 19 -20 20q-19 -1 -20 -20q1 -18 20 -20zM257 40q-19 -1 -20 -20q1 -18 20 -20q18 2 20 20q-2 18 -20 20z" />
    <glyph glyph-name="y" unicode="y" horiz-adv-x="512" 
d="M368 267l-75 -144l-7 9q-14 14 -32 13v0q-26 0 -39 -22l-83 144l-16 -9l129 -226l-77 -147l17 -9l200 382zM221 112q9 23 33 24v0q14 0 25 -11q5 -5 8 -12l-32 -61z" />
    <glyph glyph-name="z" unicode="z" horiz-adv-x="512" 
d="M243 -10q4 18 -4 34q-14 24 -42 23l156 218h-238v-19h201l-207 -289h224v19h-97q5 6 7 14zM190 36q26 7 41 -16q6 -13 3 -27q-4 -10 -11 -17h-77z" />
    <glyph glyph-name="braceleft" unicode="{" horiz-adv-x="512" 
d="M458 -102v19h-196v357l-95 102l98 111v336h201v19h-220v-348l-104 -119l101 -108v-369h215z" />
    <glyph glyph-name="bar" unicode="|" horiz-adv-x="512" 
d="M244 -108h19v960h-19v-960z" />
    <glyph glyph-name="braceright" unicode="}" horiz-adv-x="512" 
d="M38 -102h215v369l101 108l-104 119v348h-220v-19h201v-336l98 -111l-95 -102v-357h-196v-19z" />
    <glyph glyph-name="asciitilde" unicode="~" horiz-adv-x="512" 
d="M318 709q4 1 10 1q26 4 46 21t33 39l-15 9q-12 -18 -28 -32.5t-38 -18.5q-39 -1 -67 24q-18 18 -41 29.5t-48 7.5q-43 -8 -66 -44l16 -10q18 30 52 36q21 3 40 -7t34 -25q30 -27 72 -30z" />
    <glyph glyph-name="uni00A0" unicode="&#xa0;" horiz-adv-x="512" 
 />
    <glyph glyph-name="exclamdown" unicode="&#xa1;" horiz-adv-x="512" 
 />
    <glyph glyph-name="cent" unicode="&#xa2;" 
 />
    <glyph glyph-name="sterling" unicode="&#xa3;" 
 />
    <glyph glyph-name="currency" unicode="&#xa4;" horiz-adv-x="512" 
 />
    <glyph glyph-name="yen" unicode="&#xa5;" horiz-adv-x="512" 
 />
    <glyph glyph-name="brokenbar" unicode="&#xa6;" horiz-adv-x="512" 
 />
    <glyph glyph-name="section" unicode="&#xa7;" 
 />
    <glyph glyph-name="dieresis" unicode="&#xa8;" 
 />
    <glyph glyph-name="copyright" unicode="&#xa9;" horiz-adv-x="512" 
 />
    <glyph glyph-name="ordfeminine" unicode="&#xaa;" horiz-adv-x="512" 
 />
    <glyph glyph-name="guillemotleft" unicode="&#xab;" 
 />
    <glyph glyph-name="logicalnot" unicode="&#xac;" 
 />
    <glyph glyph-name="uni00AD" unicode="&#xad;" horiz-adv-x="512" 
 />
    <glyph glyph-name="registered" unicode="&#xae;" horiz-adv-x="512" 
 />
    <glyph glyph-name="macron" unicode="&#xaf;" 
 />
    <glyph glyph-name="degree" unicode="&#xb0;" 
d="M148 581q-40 1 -68 29t-28 68t28 68t68 28q41 0 69 -28t28 -68t-28 -68t-69 -29zM148 755q-32 0 -54.5 -22.5t-22.5 -54.5t22.5 -54.5t54.5 -23.5q33 1 55.5 23.5t22.5 54.5t-22.5 54.5t-55.5 22.5z" />
    <glyph glyph-name="plusminus" unicode="&#xb1;" 
 />
    <glyph glyph-name="uni00B2" unicode="&#xb2;" horiz-adv-x="512" 
 />
    <glyph glyph-name="uni00B3" unicode="&#xb3;" horiz-adv-x="512" 
 />
    <glyph glyph-name="acute" unicode="&#xb4;" 
 />
    <glyph glyph-name="uni00B5" unicode="&#xb5;" 
 />
    <glyph glyph-name="paragraph" unicode="&#xb6;" 
 />
    <glyph glyph-name="periodcentered" unicode="&#xb7;" 
 />
    <glyph glyph-name="cedilla" unicode="&#xb8;" 
 />
    <glyph glyph-name="uni00B9" unicode="&#xb9;" horiz-adv-x="512" 
 />
    <glyph glyph-name="ordmasculine" unicode="&#xba;" horiz-adv-x="512" 
 />
    <glyph glyph-name="guillemotright" unicode="&#xbb;" 
 />
    <glyph glyph-name="onequarter" unicode="&#xbc;" horiz-adv-x="512" 
 />
    <glyph glyph-name="onehalf" unicode="&#xbd;" horiz-adv-x="512" 
 />
    <glyph glyph-name="threequarters" unicode="&#xbe;" horiz-adv-x="512" 
 />
    <glyph glyph-name="questiondown" unicode="&#xbf;" horiz-adv-x="512" 
 />
    <glyph glyph-name="Agrave" unicode="&#xc0;" horiz-adv-x="512" 
 />
    <glyph glyph-name="Aacute" unicode="&#xc1;" horiz-adv-x="512" 
 />
    <glyph glyph-name="Acircumflex" unicode="&#xc2;" horiz-adv-x="512" 
 />
    <glyph glyph-name="Atilde" unicode="&#xc3;" horiz-adv-x="512" 
 />
    <glyph glyph-name="Adieresis" unicode="&#xc4;" horiz-adv-x="512" 
 />
    <glyph glyph-name="Aring" unicode="&#xc5;" horiz-adv-x="512" 
 />
    <glyph glyph-name="AE" unicode="&#xc6;" horiz-adv-x="512" 
 />
    <glyph glyph-name="Ccedilla" unicode="&#xc7;" horiz-adv-x="512" 
 />
    <glyph glyph-name="Egrave" unicode="&#xc8;" horiz-adv-x="512" 
 />
    <glyph glyph-name="Eacute" unicode="&#xc9;" horiz-adv-x="512" 
 />
    <glyph glyph-name="Ecircumflex" unicode="&#xca;" horiz-adv-x="512" 
 />
    <glyph glyph-name="Edieresis" unicode="&#xcb;" horiz-adv-x="512" 
 />
    <glyph glyph-name="Igrave" unicode="&#xcc;" horiz-adv-x="512" 
 />
    <glyph glyph-name="Iacute" unicode="&#xcd;" horiz-adv-x="512" 
 />
    <glyph glyph-name="Icircumflex" unicode="&#xce;" horiz-adv-x="512" 
 />
    <glyph glyph-name="Idieresis" unicode="&#xcf;" horiz-adv-x="512" 
 />
    <glyph glyph-name="Eth" unicode="&#xd0;" horiz-adv-x="512" 
 />
    <glyph glyph-name="Ntilde" unicode="&#xd1;" horiz-adv-x="512" 
 />
    <glyph glyph-name="Ograve" unicode="&#xd2;" horiz-adv-x="512" 
 />
    <glyph glyph-name="Oacute" unicode="&#xd3;" horiz-adv-x="512" 
 />
    <glyph glyph-name="Ocircumflex" unicode="&#xd4;" horiz-adv-x="512" 
 />
    <glyph glyph-name="Otilde" unicode="&#xd5;" horiz-adv-x="512" 
 />
    <glyph glyph-name="Odieresis" unicode="&#xd6;" horiz-adv-x="512" 
 />
    <glyph glyph-name="multiply" unicode="&#xd7;" 
d="M283 148l218 217l-218 218l14 13l217 -217l218 217l13 -13l-217 -218l217 -217l-13 -14l-218 218l-217 -218z" />
    <glyph glyph-name="Oslash" unicode="&#xd8;" horiz-adv-x="512" 
 />
    <glyph glyph-name="Ugrave" unicode="&#xd9;" horiz-adv-x="512" 
 />
    <glyph glyph-name="Uacute" unicode="&#xda;" horiz-adv-x="512" 
 />
    <glyph glyph-name="Ucircumflex" unicode="&#xdb;" horiz-adv-x="512" 
 />
    <glyph glyph-name="Udieresis" unicode="&#xdc;" horiz-adv-x="512" 
 />
    <glyph glyph-name="Yacute" unicode="&#xdd;" horiz-adv-x="512" 
 />
    <glyph glyph-name="Thorn" unicode="&#xde;" horiz-adv-x="512" 
 />
    <glyph glyph-name="germandbls" unicode="&#xdf;" horiz-adv-x="512" 
 />
    <glyph glyph-name="agrave" unicode="&#xe0;" horiz-adv-x="512" 
 />
    <glyph glyph-name="aacute" unicode="&#xe1;" horiz-adv-x="512" 
 />
    <glyph glyph-name="acircumflex" unicode="&#xe2;" horiz-adv-x="512" 
 />
    <glyph glyph-name="atilde" unicode="&#xe3;" horiz-adv-x="512" 
 />
    <glyph glyph-name="adieresis" unicode="&#xe4;" horiz-adv-x="512" 
 />
    <glyph glyph-name="aring" unicode="&#xe5;" horiz-adv-x="512" 
 />
    <glyph glyph-name="ae" unicode="&#xe6;" horiz-adv-x="512" 
 />
    <glyph glyph-name="ccedilla" unicode="&#xe7;" horiz-adv-x="512" 
 />
    <glyph glyph-name="egrave" unicode="&#xe8;" horiz-adv-x="512" 
 />
    <glyph glyph-name="eacute" unicode="&#xe9;" horiz-adv-x="512" 
 />
    <glyph glyph-name="ecircumflex" unicode="&#xea;" horiz-adv-x="512" 
 />
    <glyph glyph-name="edieresis" unicode="&#xeb;" horiz-adv-x="512" 
 />
    <glyph glyph-name="igrave" unicode="&#xec;" horiz-adv-x="512" 
 />
    <glyph glyph-name="iacute" unicode="&#xed;" horiz-adv-x="512" 
 />
    <glyph glyph-name="icircumflex" unicode="&#xee;" horiz-adv-x="512" 
 />
    <glyph glyph-name="idieresis" unicode="&#xef;" horiz-adv-x="512" 
 />
    <glyph glyph-name="eth" unicode="&#xf0;" horiz-adv-x="512" 
 />
    <glyph glyph-name="ntilde" unicode="&#xf1;" horiz-adv-x="512" 
 />
    <glyph glyph-name="ograve" unicode="&#xf2;" horiz-adv-x="512" 
 />
    <glyph glyph-name="oacute" unicode="&#xf3;" horiz-adv-x="512" 
 />
    <glyph glyph-name="ocircumflex" unicode="&#xf4;" horiz-adv-x="512" 
 />
    <glyph glyph-name="otilde" unicode="&#xf5;" horiz-adv-x="512" 
 />
    <glyph glyph-name="odieresis" unicode="&#xf6;" horiz-adv-x="512" 
 />
    <glyph glyph-name="divide" unicode="&#xf7;" 
d="M772 379v-19h-518v19h518zM512 486q-50 4 -54 54q4 50 54 54q49 -5 53 -54q-4 -49 -53 -54zM512 252q49 -5 53 -54q-5 -48 -53 -53q-49 4 -54 53q4 50 54 54z" />
    <glyph glyph-name="oslash" unicode="&#xf8;" horiz-adv-x="512" 
 />
    <glyph glyph-name="ugrave" unicode="&#xf9;" horiz-adv-x="512" 
 />
    <glyph glyph-name="uacute" unicode="&#xfa;" horiz-adv-x="512" 
 />
    <glyph glyph-name="ucircumflex" unicode="&#xfb;" horiz-adv-x="512" 
 />
    <glyph glyph-name="udieresis" unicode="&#xfc;" horiz-adv-x="512" 
 />
    <glyph glyph-name="yacute" unicode="&#xfd;" horiz-adv-x="512" 
 />
    <glyph glyph-name="thorn" unicode="&#xfe;" horiz-adv-x="512" 
 />
    <glyph glyph-name="ydieresis" unicode="&#xff;" horiz-adv-x="512" 
 />
    <glyph glyph-name="Amacron" unicode="&#x100;" horiz-adv-x="512" 
 />
    <glyph glyph-name="amacron" unicode="&#x101;" horiz-adv-x="512" 
 />
    <glyph glyph-name="Abreve" unicode="&#x102;" horiz-adv-x="512" 
 />
    <glyph glyph-name="abreve" unicode="&#x103;" horiz-adv-x="512" 
 />
    <glyph glyph-name="Aogonek" unicode="&#x104;" horiz-adv-x="512" 
 />
    <glyph glyph-name="aogonek" unicode="&#x105;" horiz-adv-x="512" 
 />
    <glyph glyph-name="Cacute" unicode="&#x106;" horiz-adv-x="512" 
 />
    <glyph glyph-name="cacute" unicode="&#x107;" horiz-adv-x="512" 
 />
    <glyph glyph-name="Ccircumflex" unicode="&#x108;" horiz-adv-x="512" 
 />
    <glyph glyph-name="ccircumflex" unicode="&#x109;" horiz-adv-x="512" 
 />
    <glyph glyph-name="Cdotaccent" unicode="&#x10a;" horiz-adv-x="512" 
 />
    <glyph glyph-name="cdotaccent" unicode="&#x10b;" horiz-adv-x="512" 
 />
    <glyph glyph-name="Ccaron" unicode="&#x10c;" horiz-adv-x="512" 
 />
    <glyph glyph-name="ccaron" unicode="&#x10d;" horiz-adv-x="512" 
 />
    <glyph glyph-name="Dcaron" unicode="&#x10e;" horiz-adv-x="512" 
 />
    <glyph glyph-name="dcaron" unicode="&#x10f;" horiz-adv-x="512" 
 />
    <glyph glyph-name="Dcroat" unicode="&#x110;" horiz-adv-x="512" 
 />
    <glyph glyph-name="dcroat" unicode="&#x111;" horiz-adv-x="512" 
 />
    <glyph glyph-name="Emacron" unicode="&#x112;" horiz-adv-x="512" 
 />
    <glyph glyph-name="emacron" unicode="&#x113;" horiz-adv-x="512" 
 />
    <glyph glyph-name="Ebreve" unicode="&#x114;" horiz-adv-x="512" 
 />
    <glyph glyph-name="ebreve" unicode="&#x115;" horiz-adv-x="512" 
 />
    <glyph glyph-name="Edotaccent" unicode="&#x116;" horiz-adv-x="512" 
 />
    <glyph glyph-name="edotaccent" unicode="&#x117;" horiz-adv-x="512" 
 />
    <glyph glyph-name="Eogonek" unicode="&#x118;" horiz-adv-x="512" 
 />
    <glyph glyph-name="eogonek" unicode="&#x119;" horiz-adv-x="512" 
 />
    <glyph glyph-name="Ecaron" unicode="&#x11a;" horiz-adv-x="512" 
 />
    <glyph glyph-name="ecaron" unicode="&#x11b;" horiz-adv-x="512" 
 />
    <glyph glyph-name="Gcircumflex" unicode="&#x11c;" horiz-adv-x="512" 
 />
    <glyph glyph-name="gcircumflex" unicode="&#x11d;" horiz-adv-x="512" 
 />
    <glyph glyph-name="Gbreve" unicode="&#x11e;" horiz-adv-x="512" 
 />
    <glyph glyph-name="gbreve" unicode="&#x11f;" horiz-adv-x="512" 
 />
    <glyph glyph-name="Gdotaccent" unicode="&#x120;" horiz-adv-x="512" 
 />
    <glyph glyph-name="gdotaccent" unicode="&#x121;" horiz-adv-x="512" 
 />
    <glyph glyph-name="Gcommaaccent" unicode="&#x122;" horiz-adv-x="512" 
 />
    <glyph glyph-name="gcommaaccent" unicode="&#x123;" horiz-adv-x="512" 
 />
    <glyph glyph-name="Hcircumflex" unicode="&#x124;" horiz-adv-x="512" 
 />
    <glyph glyph-name="hcircumflex" unicode="&#x125;" horiz-adv-x="512" 
 />
    <glyph glyph-name="Hbar" unicode="&#x126;" horiz-adv-x="512" 
 />
    <glyph glyph-name="hbar" unicode="&#x127;" horiz-adv-x="512" 
 />
    <glyph glyph-name="Itilde" unicode="&#x128;" horiz-adv-x="512" 
 />
    <glyph glyph-name="itilde" unicode="&#x129;" horiz-adv-x="512" 
 />
    <glyph glyph-name="Imacron" unicode="&#x12a;" horiz-adv-x="512" 
 />
    <glyph glyph-name="imacron" unicode="&#x12b;" horiz-adv-x="512" 
 />
    <glyph glyph-name="Ibreve" unicode="&#x12c;" horiz-adv-x="512" 
 />
    <glyph glyph-name="ibreve" unicode="&#x12d;" horiz-adv-x="512" 
 />
    <glyph glyph-name="Iogonek" unicode="&#x12e;" horiz-adv-x="512" 
 />
    <glyph glyph-name="iogonek" unicode="&#x12f;" horiz-adv-x="512" 
 />
    <glyph glyph-name="Idotaccent" unicode="&#x130;" horiz-adv-x="512" 
 />
    <glyph glyph-name="dotlessi" unicode="&#x131;" horiz-adv-x="512" 
 />
    <glyph glyph-name="IJ" unicode="&#x132;" horiz-adv-x="512" 
 />
    <glyph glyph-name="ij" unicode="&#x133;" horiz-adv-x="512" 
 />
    <glyph glyph-name="Jcircumflex" unicode="&#x134;" horiz-adv-x="512" 
 />
    <glyph glyph-name="jcircumflex" unicode="&#x135;" horiz-adv-x="512" 
 />
    <glyph glyph-name="Kcommaaccent" unicode="&#x136;" horiz-adv-x="512" 
 />
    <glyph glyph-name="kcommaaccent" unicode="&#x137;" horiz-adv-x="512" 
 />
    <glyph glyph-name="kgreenlandic" unicode="&#x138;" horiz-adv-x="512" 
 />
    <glyph glyph-name="Lacute" unicode="&#x139;" horiz-adv-x="512" 
 />
    <glyph glyph-name="lacute" unicode="&#x13a;" horiz-adv-x="512" 
 />
    <glyph glyph-name="Lcommaaccent" unicode="&#x13b;" horiz-adv-x="512" 
 />
    <glyph glyph-name="lcommaaccent" unicode="&#x13c;" horiz-adv-x="512" 
 />
    <glyph glyph-name="Lcaron" unicode="&#x13d;" horiz-adv-x="512" 
 />
    <glyph glyph-name="lcaron" unicode="&#x13e;" horiz-adv-x="512" 
 />
    <glyph glyph-name="Ldot" unicode="&#x13f;" horiz-adv-x="512" 
 />
    <glyph glyph-name="ldot" unicode="&#x140;" horiz-adv-x="512" 
 />
    <glyph glyph-name="Lslash" unicode="&#x141;" horiz-adv-x="512" 
 />
    <glyph glyph-name="lslash" unicode="&#x142;" horiz-adv-x="512" 
 />
    <glyph glyph-name="Nacute" unicode="&#x143;" horiz-adv-x="512" 
 />
    <glyph glyph-name="nacute" unicode="&#x144;" horiz-adv-x="512" 
 />
    <glyph glyph-name="Ncommaaccent" unicode="&#x145;" horiz-adv-x="512" 
 />
    <glyph glyph-name="ncommaaccent" unicode="&#x146;" horiz-adv-x="512" 
 />
    <glyph glyph-name="Ncaron" unicode="&#x147;" horiz-adv-x="512" 
 />
    <glyph glyph-name="ncaron" unicode="&#x148;" horiz-adv-x="512" 
 />
    <glyph glyph-name="napostrophe" unicode="&#x149;" horiz-adv-x="512" 
 />
    <glyph glyph-name="Eng" unicode="&#x14a;" horiz-adv-x="512" 
 />
    <glyph glyph-name="eng" unicode="&#x14b;" horiz-adv-x="512" 
 />
    <glyph glyph-name="Omacron" unicode="&#x14c;" horiz-adv-x="512" 
 />
    <glyph glyph-name="omacron" unicode="&#x14d;" horiz-adv-x="512" 
 />
    <glyph glyph-name="Obreve" unicode="&#x14e;" horiz-adv-x="512" 
 />
    <glyph glyph-name="obreve" unicode="&#x14f;" horiz-adv-x="512" 
 />
    <glyph glyph-name="Ohungarumlaut" unicode="&#x150;" horiz-adv-x="512" 
 />
    <glyph glyph-name="ohungarumlaut" unicode="&#x151;" horiz-adv-x="512" 
 />
    <glyph glyph-name="OE" unicode="&#x152;" horiz-adv-x="512" 
 />
    <glyph glyph-name="oe" unicode="&#x153;" horiz-adv-x="512" 
 />
    <glyph glyph-name="Racute" unicode="&#x154;" horiz-adv-x="512" 
 />
    <glyph glyph-name="racute" unicode="&#x155;" horiz-adv-x="512" 
 />
    <glyph glyph-name="Rcommaaccent" unicode="&#x156;" horiz-adv-x="512" 
 />
    <glyph glyph-name="rcommaaccent" unicode="&#x157;" horiz-adv-x="512" 
 />
    <glyph glyph-name="Rcaron" unicode="&#x158;" horiz-adv-x="512" 
 />
    <glyph glyph-name="rcaron" unicode="&#x159;" horiz-adv-x="512" 
 />
    <glyph glyph-name="Sacute" unicode="&#x15a;" horiz-adv-x="512" 
 />
    <glyph glyph-name="sacute" unicode="&#x15b;" horiz-adv-x="512" 
 />
    <glyph glyph-name="Scircumflex" unicode="&#x15c;" horiz-adv-x="512" 
 />
    <glyph glyph-name="scircumflex" unicode="&#x15d;" horiz-adv-x="512" 
 />
    <glyph glyph-name="Scedilla" unicode="&#x15e;" horiz-adv-x="512" 
 />
    <glyph glyph-name="scedilla" unicode="&#x15f;" horiz-adv-x="512" 
 />
    <glyph glyph-name="Scaron" unicode="&#x160;" horiz-adv-x="512" 
 />
    <glyph glyph-name="scaron" unicode="&#x161;" horiz-adv-x="512" 
 />
    <glyph glyph-name="Tcommaaccent" unicode="&#x162;" horiz-adv-x="512" 
 />
    <glyph glyph-name="tcommaaccent" unicode="&#x163;" horiz-adv-x="512" 
 />
    <glyph glyph-name="Tcaron" unicode="&#x164;" horiz-adv-x="512" 
 />
    <glyph glyph-name="tcaron" unicode="&#x165;" horiz-adv-x="512" 
 />
    <glyph glyph-name="Tbar" unicode="&#x166;" horiz-adv-x="512" 
 />
    <glyph glyph-name="tbar" unicode="&#x167;" horiz-adv-x="512" 
 />
    <glyph glyph-name="Utilde" unicode="&#x168;" horiz-adv-x="512" 
 />
    <glyph glyph-name="utilde" unicode="&#x169;" horiz-adv-x="512" 
 />
    <glyph glyph-name="Umacron" unicode="&#x16a;" horiz-adv-x="512" 
 />
    <glyph glyph-name="umacron" unicode="&#x16b;" horiz-adv-x="512" 
 />
    <glyph glyph-name="Ubreve" unicode="&#x16c;" horiz-adv-x="512" 
 />
    <glyph glyph-name="ubreve" unicode="&#x16d;" horiz-adv-x="512" 
 />
    <glyph glyph-name="Uring" unicode="&#x16e;" horiz-adv-x="512" 
 />
    <glyph glyph-name="uring" unicode="&#x16f;" horiz-adv-x="512" 
 />
    <glyph glyph-name="Uhungarumlaut" unicode="&#x170;" horiz-adv-x="512" 
 />
    <glyph glyph-name="uhungarumlaut" unicode="&#x171;" horiz-adv-x="512" 
 />
    <glyph glyph-name="Uogonek" unicode="&#x172;" horiz-adv-x="512" 
 />
    <glyph glyph-name="uogonek" unicode="&#x173;" horiz-adv-x="512" 
 />
    <glyph glyph-name="Wcircumflex" unicode="&#x174;" horiz-adv-x="512" 
 />
    <glyph glyph-name="wcircumflex" unicode="&#x175;" horiz-adv-x="512" 
 />
    <glyph glyph-name="Ycircumflex" unicode="&#x176;" horiz-adv-x="512" 
 />
    <glyph glyph-name="ycircumflex" unicode="&#x177;" horiz-adv-x="512" 
 />
    <glyph glyph-name="Ydieresis" unicode="&#x178;" horiz-adv-x="512" 
 />
    <glyph glyph-name="Zacute" unicode="&#x179;" horiz-adv-x="512" 
 />
    <glyph glyph-name="zacute" unicode="&#x17a;" horiz-adv-x="512" 
 />
    <glyph glyph-name="Zdotaccent" unicode="&#x17b;" horiz-adv-x="512" 
 />
    <glyph glyph-name="zdotaccent" unicode="&#x17c;" horiz-adv-x="512" 
 />
    <glyph glyph-name="Zcaron" unicode="&#x17d;" horiz-adv-x="512" 
 />
    <glyph glyph-name="zcaron" unicode="&#x17e;" horiz-adv-x="512" 
 />
    <glyph glyph-name="longs" unicode="&#x17f;" horiz-adv-x="512" 
 />
    <glyph glyph-name="florin" unicode="&#x192;" horiz-adv-x="512" 
 />
    <glyph glyph-name="uni01CD" unicode="&#x1cd;" horiz-adv-x="512" 
 />
    <glyph glyph-name="uni01CE" unicode="&#x1ce;" horiz-adv-x="512" 
 />
    <glyph glyph-name="uni01CF" unicode="&#x1cf;" horiz-adv-x="512" 
 />
    <glyph glyph-name="uni01D0" unicode="&#x1d0;" horiz-adv-x="512" 
 />
    <glyph glyph-name="uni01D1" unicode="&#x1d1;" horiz-adv-x="512" 
 />
    <glyph glyph-name="uni01D2" unicode="&#x1d2;" horiz-adv-x="512" 
 />
    <glyph glyph-name="uni01D3" unicode="&#x1d3;" horiz-adv-x="512" 
 />
    <glyph glyph-name="uni01D4" unicode="&#x1d4;" horiz-adv-x="512" 
 />
    <glyph glyph-name="uni01D5" unicode="&#x1d5;" horiz-adv-x="512" 
 />
    <glyph glyph-name="uni01D6" unicode="&#x1d6;" horiz-adv-x="512" 
 />
    <glyph glyph-name="uni01D7" unicode="&#x1d7;" horiz-adv-x="512" 
 />
    <glyph glyph-name="uni01D8" unicode="&#x1d8;" horiz-adv-x="512" 
 />
    <glyph glyph-name="uni01D9" unicode="&#x1d9;" horiz-adv-x="512" 
 />
    <glyph glyph-name="uni01DA" unicode="&#x1da;" horiz-adv-x="512" 
 />
    <glyph glyph-name="uni01DB" unicode="&#x1db;" horiz-adv-x="512" 
 />
    <glyph glyph-name="uni01DC" unicode="&#x1dc;" horiz-adv-x="512" 
 />
    <glyph glyph-name="uni01F5" unicode="&#x1f5;" horiz-adv-x="512" 
 />
    <glyph glyph-name="Aringacute" unicode="&#x1fa;" horiz-adv-x="512" 
 />
    <glyph glyph-name="aringacute" unicode="&#x1fb;" horiz-adv-x="512" 
 />
    <glyph glyph-name="AEacute" unicode="&#x1fc;" horiz-adv-x="512" 
 />
    <glyph glyph-name="aeacute" unicode="&#x1fd;" horiz-adv-x="512" 
 />
    <glyph glyph-name="Oslashacute" unicode="&#x1fe;" horiz-adv-x="512" 
 />
    <glyph glyph-name="oslashacute" unicode="&#x1ff;" horiz-adv-x="512" 
 />
    <glyph glyph-name="uni0250" unicode="&#x250;" horiz-adv-x="512" 
 />
    <glyph glyph-name="uni0251" unicode="&#x251;" horiz-adv-x="512" 
 />
    <glyph glyph-name="uni0252" unicode="&#x252;" horiz-adv-x="512" 
 />
    <glyph glyph-name="uni0253" unicode="&#x253;" horiz-adv-x="512" 
 />
    <glyph glyph-name="uni0254" unicode="&#x254;" horiz-adv-x="512" 
 />
    <glyph glyph-name="uni0255" unicode="&#x255;" horiz-adv-x="512" 
 />
    <glyph glyph-name="uni0256" unicode="&#x256;" horiz-adv-x="512" 
 />
    <glyph glyph-name="uni0257" unicode="&#x257;" horiz-adv-x="512" 
 />
    <glyph glyph-name="uni0258" unicode="&#x258;" horiz-adv-x="512" 
 />
    <glyph glyph-name="uni0259" unicode="&#x259;" horiz-adv-x="512" 
 />
    <glyph glyph-name="uni025A" unicode="&#x25a;" horiz-adv-x="512" 
 />
    <glyph glyph-name="uni025B" unicode="&#x25b;" horiz-adv-x="512" 
 />
    <glyph glyph-name="uni025C" unicode="&#x25c;" horiz-adv-x="512" 
 />
    <glyph glyph-name="uni025D" unicode="&#x25d;" horiz-adv-x="512" 
 />
    <glyph glyph-name="uni025E" unicode="&#x25e;" horiz-adv-x="512" 
 />
    <glyph glyph-name="uni025F" unicode="&#x25f;" horiz-adv-x="512" 
 />
    <glyph glyph-name="uni0260" unicode="&#x260;" horiz-adv-x="512" 
 />
    <glyph glyph-name="uni0261" unicode="&#x261;" horiz-adv-x="512" 
 />
    <glyph glyph-name="uni0262" unicode="&#x262;" horiz-adv-x="512" 
 />
    <glyph glyph-name="uni0263" unicode="&#x263;" horiz-adv-x="512" 
 />
    <glyph glyph-name="uni0264" unicode="&#x264;" horiz-adv-x="512" 
 />
    <glyph glyph-name="uni0265" unicode="&#x265;" horiz-adv-x="512" 
 />
    <glyph glyph-name="uni0266" unicode="&#x266;" horiz-adv-x="512" 
 />
    <glyph glyph-name="uni0267" unicode="&#x267;" horiz-adv-x="512" 
 />
    <glyph glyph-name="uni0268" unicode="&#x268;" horiz-adv-x="512" 
 />
    <glyph glyph-name="uni0269" unicode="&#x269;" horiz-adv-x="512" 
 />
    <glyph glyph-name="uni026A" unicode="&#x26a;" horiz-adv-x="512" 
 />
    <glyph glyph-name="uni026B" unicode="&#x26b;" horiz-adv-x="512" 
 />
    <glyph glyph-name="uni026C" unicode="&#x26c;" horiz-adv-x="512" 
 />
    <glyph glyph-name="uni026D" unicode="&#x26d;" horiz-adv-x="512" 
 />
    <glyph glyph-name="uni026E" unicode="&#x26e;" horiz-adv-x="512" 
 />
    <glyph glyph-name="uni026F" unicode="&#x26f;" horiz-adv-x="512" 
 />
    <glyph glyph-name="uni0270" unicode="&#x270;" horiz-adv-x="512" 
 />
    <glyph glyph-name="uni0271" unicode="&#x271;" horiz-adv-x="512" 
 />
    <glyph glyph-name="uni0272" unicode="&#x272;" horiz-adv-x="512" 
 />
    <glyph glyph-name="uni0273" unicode="&#x273;" horiz-adv-x="512" 
 />
    <glyph glyph-name="uni0274" unicode="&#x274;" horiz-adv-x="512" 
 />
    <glyph glyph-name="uni0275" unicode="&#x275;" horiz-adv-x="512" 
 />
    <glyph glyph-name="uni0276" unicode="&#x276;" horiz-adv-x="512" 
 />
    <glyph glyph-name="uni0277" unicode="&#x277;" horiz-adv-x="512" 
 />
    <glyph glyph-name="uni0278" unicode="&#x278;" horiz-adv-x="512" 
 />
    <glyph glyph-name="uni0279" unicode="&#x279;" horiz-adv-x="512" 
 />
    <glyph glyph-name="uni027A" unicode="&#x27a;" horiz-adv-x="512" 
 />
    <glyph glyph-name="uni027B" unicode="&#x27b;" horiz-adv-x="512" 
 />
    <glyph glyph-name="uni027C" unicode="&#x27c;" horiz-adv-x="512" 
 />
    <glyph glyph-name="uni027D" unicode="&#x27d;" horiz-adv-x="512" 
 />
    <glyph glyph-name="uni027E" unicode="&#x27e;" horiz-adv-x="512" 
 />
    <glyph glyph-name="uni027F" unicode="&#x27f;" horiz-adv-x="512" 
 />
    <glyph glyph-name="uni0280" unicode="&#x280;" horiz-adv-x="512" 
 />
    <glyph glyph-name="uni0281" unicode="&#x281;" horiz-adv-x="512" 
 />
    <glyph glyph-name="uni0282" unicode="&#x282;" horiz-adv-x="512" 
 />
    <glyph glyph-name="uni0283" unicode="&#x283;" horiz-adv-x="512" 
 />
    <glyph glyph-name="uni0284" unicode="&#x284;" horiz-adv-x="512" 
 />
    <glyph glyph-name="uni0285" unicode="&#x285;" horiz-adv-x="512" 
 />
    <glyph glyph-name="uni0286" unicode="&#x286;" horiz-adv-x="512" 
 />
    <glyph glyph-name="uni0287" unicode="&#x287;" horiz-adv-x="512" 
 />
    <glyph glyph-name="uni0288" unicode="&#x288;" horiz-adv-x="512" 
 />
    <glyph glyph-name="uni0289" unicode="&#x289;" horiz-adv-x="512" 
 />
    <glyph glyph-name="uni028A" unicode="&#x28a;" horiz-adv-x="512" 
 />
    <glyph glyph-name="uni028B" unicode="&#x28b;" horiz-adv-x="512" 
 />
    <glyph glyph-name="uni028C" unicode="&#x28c;" horiz-adv-x="512" 
 />
    <glyph glyph-name="uni028D" unicode="&#x28d;" horiz-adv-x="512" 
 />
    <glyph glyph-name="uni028E" unicode="&#x28e;" horiz-adv-x="512" 
 />
    <glyph glyph-name="uni028F" unicode="&#x28f;" horiz-adv-x="512" 
 />
    <glyph glyph-name="uni0290" unicode="&#x290;" horiz-adv-x="512" 
 />
    <glyph glyph-name="uni0291" unicode="&#x291;" horiz-adv-x="512" 
 />
    <glyph glyph-name="uni0292" unicode="&#x292;" horiz-adv-x="512" 
 />
    <glyph glyph-name="uni0293" unicode="&#x293;" horiz-adv-x="512" 
 />
    <glyph glyph-name="uni0294" unicode="&#x294;" horiz-adv-x="512" 
 />
    <glyph glyph-name="uni0295" unicode="&#x295;" horiz-adv-x="512" 
 />
    <glyph glyph-name="uni0296" unicode="&#x296;" horiz-adv-x="512" 
 />
    <glyph glyph-name="uni0297" unicode="&#x297;" horiz-adv-x="512" 
 />
    <glyph glyph-name="uni0298" unicode="&#x298;" horiz-adv-x="512" 
 />
    <glyph glyph-name="uni0299" unicode="&#x299;" horiz-adv-x="512" 
 />
    <glyph glyph-name="uni029A" unicode="&#x29a;" horiz-adv-x="512" 
 />
    <glyph glyph-name="uni029B" unicode="&#x29b;" horiz-adv-x="512" 
 />
    <glyph glyph-name="uni029C" unicode="&#x29c;" horiz-adv-x="512" 
 />
    <glyph glyph-name="uni029D" unicode="&#x29d;" horiz-adv-x="512" 
 />
    <glyph glyph-name="uni029E" unicode="&#x29e;" horiz-adv-x="512" 
 />
    <glyph glyph-name="uni029F" unicode="&#x29f;" horiz-adv-x="512" 
 />
    <glyph glyph-name="uni02A0" unicode="&#x2a0;" horiz-adv-x="512" 
 />
    <glyph glyph-name="uni02A1" unicode="&#x2a1;" horiz-adv-x="512" 
 />
    <glyph glyph-name="uni02A2" unicode="&#x2a2;" horiz-adv-x="512" 
 />
    <glyph glyph-name="uni02A3" unicode="&#x2a3;" horiz-adv-x="512" 
 />
    <glyph glyph-name="uni02A4" unicode="&#x2a4;" horiz-adv-x="512" 
 />
    <glyph glyph-name="uni02A5" unicode="&#x2a5;" horiz-adv-x="512" 
 />
    <glyph glyph-name="uni02A6" unicode="&#x2a6;" horiz-adv-x="512" 
 />
    <glyph glyph-name="uni02A7" unicode="&#x2a7;" horiz-adv-x="512" 
 />
    <glyph glyph-name="uni02A8" unicode="&#x2a8;" horiz-adv-x="512" 
 />
    <glyph glyph-name="circumflex" unicode="&#x2c6;" horiz-adv-x="512" 
 />
    <glyph glyph-name="caron" unicode="&#x2c7;" horiz-adv-x="512" 
 />
    <glyph glyph-name="uni02C9" unicode="&#x2c9;" horiz-adv-x="512" 
 />
    <glyph glyph-name="breve" unicode="&#x2d8;" horiz-adv-x="512" 
 />
    <glyph glyph-name="dotaccent" unicode="&#x2d9;" horiz-adv-x="512" 
 />
    <glyph glyph-name="ring" unicode="&#x2da;" horiz-adv-x="512" 
 />
    <glyph glyph-name="ogonek" unicode="&#x2db;" horiz-adv-x="512" 
 />
    <glyph glyph-name="tilde" unicode="&#x2dc;" horiz-adv-x="512" 
 />
    <glyph glyph-name="hungarumlaut" unicode="&#x2dd;" horiz-adv-x="512" 
 />
    <glyph glyph-name="uni0374" unicode="&#x374;" horiz-adv-x="512" 
 />
    <glyph glyph-name="uni0375" unicode="&#x375;" horiz-adv-x="512" 
 />
    <glyph glyph-name="uni037A" unicode="&#x37a;" horiz-adv-x="512" 
 />
    <glyph glyph-name="uni037E" unicode="&#x37e;" horiz-adv-x="512" 
 />
    <glyph glyph-name="tonos" unicode="&#x384;" horiz-adv-x="512" 
 />
    <glyph glyph-name="dieresistonos" unicode="&#x385;" horiz-adv-x="512" 
 />
    <glyph glyph-name="Alphatonos" unicode="&#x386;" horiz-adv-x="512" 
 />
    <glyph glyph-name="anoteleia" unicode="&#x387;" horiz-adv-x="512" 
 />
    <glyph glyph-name="Epsilontonos" unicode="&#x388;" horiz-adv-x="512" 
 />
    <glyph glyph-name="Etatonos" unicode="&#x389;" horiz-adv-x="512" 
 />
    <glyph glyph-name="Iotatonos" unicode="&#x38a;" horiz-adv-x="512" 
 />
    <glyph glyph-name="Omicrontonos" unicode="&#x38c;" horiz-adv-x="512" 
 />
    <glyph glyph-name="Upsilontonos" unicode="&#x38e;" horiz-adv-x="512" 
 />
    <glyph glyph-name="Omegatonos" unicode="&#x38f;" horiz-adv-x="512" 
 />
    <glyph glyph-name="iotadieresistonos" unicode="&#x390;" horiz-adv-x="512" 
 />
    <glyph glyph-name="Alpha" unicode="&#x391;" 
 />
    <glyph glyph-name="Beta" unicode="&#x392;" 
 />
    <glyph glyph-name="Gamma" unicode="&#x393;" 
 />
    <glyph glyph-name="Delta" unicode="&#x394;" 
 />
    <glyph glyph-name="Epsilon" unicode="&#x395;" 
 />
    <glyph glyph-name="Zeta" unicode="&#x396;" 
 />
    <glyph glyph-name="Eta" unicode="&#x397;" 
 />
    <glyph glyph-name="Theta" unicode="&#x398;" 
 />
    <glyph glyph-name="Iota" unicode="&#x399;" 
 />
    <glyph glyph-name="Kappa" unicode="&#x39a;" 
 />
    <glyph glyph-name="Lambda" unicode="&#x39b;" 
 />
    <glyph glyph-name="Mu" unicode="&#x39c;" 
 />
    <glyph glyph-name="Nu" unicode="&#x39d;" 
 />
    <glyph glyph-name="Xi" unicode="&#x39e;" 
 />
    <glyph glyph-name="Omicron" unicode="&#x39f;" 
 />
    <glyph glyph-name="Pi" unicode="&#x3a0;" 
 />
    <glyph glyph-name="Rho" unicode="&#x3a1;" 
 />
    <glyph glyph-name="Sigma" unicode="&#x3a3;" 
 />
    <glyph glyph-name="Tau" unicode="&#x3a4;" 
 />
    <glyph glyph-name="Upsilon" unicode="&#x3a5;" 
 />
    <glyph glyph-name="Phi" unicode="&#x3a6;" 
 />
    <glyph glyph-name="Chi" unicode="&#x3a7;" 
 />
    <glyph glyph-name="Psi" unicode="&#x3a8;" 
 />
    <glyph glyph-name="Omega" unicode="&#x3a9;" 
 />
    <glyph glyph-name="Iotadieresis" unicode="&#x3aa;" horiz-adv-x="512" 
 />
    <glyph glyph-name="Upsilondieresis" unicode="&#x3ab;" horiz-adv-x="512" 
 />
    <glyph glyph-name="alphatonos" unicode="&#x3ac;" horiz-adv-x="512" 
 />
    <glyph glyph-name="epsilontonos" unicode="&#x3ad;" horiz-adv-x="512" 
 />
    <glyph glyph-name="etatonos" unicode="&#x3ae;" horiz-adv-x="512" 
 />
    <glyph glyph-name="iotatonos" unicode="&#x3af;" horiz-adv-x="512" 
 />
    <glyph glyph-name="upsilondieresistonos" unicode="&#x3b0;" horiz-adv-x="512" 
 />
    <glyph glyph-name="alpha" unicode="&#x3b1;" 
 />
    <glyph glyph-name="beta" unicode="&#x3b2;" 
 />
    <glyph glyph-name="gamma" unicode="&#x3b3;" 
 />
    <glyph glyph-name="delta" unicode="&#x3b4;" 
 />
    <glyph glyph-name="epsilon" unicode="&#x3b5;" 
 />
    <glyph glyph-name="zeta" unicode="&#x3b6;" 
 />
    <glyph glyph-name="eta" unicode="&#x3b7;" 
 />
    <glyph glyph-name="theta" unicode="&#x3b8;" 
 />
    <glyph glyph-name="iota" unicode="&#x3b9;" 
 />
    <glyph glyph-name="kappa" unicode="&#x3ba;" 
 />
    <glyph glyph-name="lambda" unicode="&#x3bb;" 
 />
    <glyph glyph-name="mu" unicode="&#x3bc;" 
 />
    <glyph glyph-name="nu" unicode="&#x3bd;" 
 />
    <glyph glyph-name="xi" unicode="&#x3be;" 
 />
    <glyph glyph-name="omicron" unicode="&#x3bf;" 
 />
    <glyph glyph-name="pi" unicode="&#x3c0;" 
 />
    <glyph glyph-name="rho" unicode="&#x3c1;" 
 />
    <glyph glyph-name="sigma1" unicode="&#x3c2;" horiz-adv-x="512" 
 />
    <glyph glyph-name="sigma" unicode="&#x3c3;" 
 />
    <glyph glyph-name="tau" unicode="&#x3c4;" 
 />
    <glyph glyph-name="upsilon" unicode="&#x3c5;" 
 />
    <glyph glyph-name="phi" unicode="&#x3c6;" 
 />
    <glyph glyph-name="chi" unicode="&#x3c7;" 
 />
    <glyph glyph-name="psi" unicode="&#x3c8;" 
 />
    <glyph glyph-name="omega" unicode="&#x3c9;" 
 />
    <glyph glyph-name="iotadieresis" unicode="&#x3ca;" horiz-adv-x="512" 
 />
    <glyph glyph-name="upsilondieresis" unicode="&#x3cb;" horiz-adv-x="512" 
 />
    <glyph glyph-name="omicrontonos" unicode="&#x3cc;" horiz-adv-x="512" 
 />
    <glyph glyph-name="upsilontonos" unicode="&#x3cd;" horiz-adv-x="512" 
 />
    <glyph glyph-name="omegatonos" unicode="&#x3ce;" horiz-adv-x="512" 
 />
    <glyph glyph-name="afii10023" unicode="&#x401;" 
 />
    <glyph glyph-name="afii10051" unicode="&#x402;" horiz-adv-x="512" 
 />
    <glyph glyph-name="afii10052" unicode="&#x403;" horiz-adv-x="512" 
 />
    <glyph glyph-name="afii10053" unicode="&#x404;" horiz-adv-x="512" 
 />
    <glyph glyph-name="afii10054" unicode="&#x405;" horiz-adv-x="512" 
 />
    <glyph glyph-name="afii10055" unicode="&#x406;" horiz-adv-x="512" 
 />
    <glyph glyph-name="afii10056" unicode="&#x407;" horiz-adv-x="512" 
 />
    <glyph glyph-name="afii10057" unicode="&#x408;" horiz-adv-x="512" 
 />
    <glyph glyph-name="afii10058" unicode="&#x409;" horiz-adv-x="512" 
 />
    <glyph glyph-name="afii10059" unicode="&#x40a;" horiz-adv-x="512" 
 />
    <glyph glyph-name="afii10060" unicode="&#x40b;" horiz-adv-x="512" 
 />
    <glyph glyph-name="afii10061" unicode="&#x40c;" horiz-adv-x="512" 
 />
    <glyph glyph-name="afii10062" unicode="&#x40e;" horiz-adv-x="512" 
 />
    <glyph glyph-name="afii10145" unicode="&#x40f;" horiz-adv-x="512" 
 />
    <glyph glyph-name="afii10017" unicode="&#x410;" 
 />
    <glyph glyph-name="afii10018" unicode="&#x411;" 
 />
    <glyph glyph-name="afii10019" unicode="&#x412;" 
 />
    <glyph glyph-name="afii10020" unicode="&#x413;" 
 />
    <glyph glyph-name="afii10021" unicode="&#x414;" 
 />
    <glyph glyph-name="afii10022" unicode="&#x415;" 
 />
    <glyph glyph-name="afii10024" unicode="&#x416;" 
 />
    <glyph glyph-name="afii10025" unicode="&#x417;" 
 />
    <glyph glyph-name="afii10026" unicode="&#x418;" 
 />
    <glyph glyph-name="afii10027" unicode="&#x419;" 
 />
    <glyph glyph-name="afii10028" unicode="&#x41a;" 
 />
    <glyph glyph-name="afii10029" unicode="&#x41b;" 
 />
    <glyph glyph-name="afii10030" unicode="&#x41c;" 
 />
    <glyph glyph-name="afii10031" unicode="&#x41d;" 
 />
    <glyph glyph-name="afii10032" unicode="&#x41e;" 
 />
    <glyph glyph-name="afii10033" unicode="&#x41f;" 
 />
    <glyph glyph-name="afii10034" unicode="&#x420;" 
 />
    <glyph glyph-name="afii10035" unicode="&#x421;" 
 />
    <glyph glyph-name="afii10036" unicode="&#x422;" 
 />
    <glyph glyph-name="afii10037" unicode="&#x423;" 
 />
    <glyph glyph-name="afii10038" unicode="&#x424;" 
 />
    <glyph glyph-name="afii10039" unicode="&#x425;" 
 />
    <glyph glyph-name="afii10040" unicode="&#x426;" 
 />
    <glyph glyph-name="afii10041" unicode="&#x427;" 
 />
    <glyph glyph-name="afii10042" unicode="&#x428;" 
 />
    <glyph glyph-name="afii10043" unicode="&#x429;" 
 />
    <glyph glyph-name="afii10044" unicode="&#x42a;" 
 />
    <glyph glyph-name="afii10045" unicode="&#x42b;" 
 />
    <glyph glyph-name="afii10046" unicode="&#x42c;" 
 />
    <glyph glyph-name="afii10047" unicode="&#x42d;" 
 />
    <glyph glyph-name="afii10048" unicode="&#x42e;" 
 />
    <glyph glyph-name="afii10049" unicode="&#x42f;" 
 />
    <glyph glyph-name="afii10065" unicode="&#x430;" 
 />
    <glyph glyph-name="afii10066" unicode="&#x431;" 
 />
    <glyph glyph-name="afii10067" unicode="&#x432;" 
 />
    <glyph glyph-name="afii10068" unicode="&#x433;" 
 />
    <glyph glyph-name="afii10069" unicode="&#x434;" 
 />
    <glyph glyph-name="afii10070" unicode="&#x435;" 
 />
    <glyph glyph-name="afii10072" unicode="&#x436;" 
 />
    <glyph glyph-name="afii10073" unicode="&#x437;" 
 />
    <glyph glyph-name="afii10074" unicode="&#x438;" 
 />
    <glyph glyph-name="afii10075" unicode="&#x439;" 
 />
    <glyph glyph-name="afii10076" unicode="&#x43a;" 
 />
    <glyph glyph-name="afii10077" unicode="&#x43b;" 
 />
    <glyph glyph-name="afii10078" unicode="&#x43c;" 
 />
    <glyph glyph-name="afii10079" unicode="&#x43d;" 
 />
    <glyph glyph-name="afii10080" unicode="&#x43e;" 
 />
    <glyph glyph-name="afii10081" unicode="&#x43f;" 
 />
    <glyph glyph-name="afii10082" unicode="&#x440;" 
 />
    <glyph glyph-name="afii10083" unicode="&#x441;" 
 />
    <glyph glyph-name="afii10084" unicode="&#x442;" 
 />
    <glyph glyph-name="afii10085" unicode="&#x443;" 
 />
    <glyph glyph-name="afii10086" unicode="&#x444;" 
 />
    <glyph glyph-name="afii10087" unicode="&#x445;" 
 />
    <glyph glyph-name="afii10088" unicode="&#x446;" 
 />
    <glyph glyph-name="afii10089" unicode="&#x447;" 
 />
    <glyph glyph-name="afii10090" unicode="&#x448;" 
 />
    <glyph glyph-name="afii10091" unicode="&#x449;" 
 />
    <glyph glyph-name="afii10092" unicode="&#x44a;" 
 />
    <glyph glyph-name="afii10093" unicode="&#x44b;" 
 />
    <glyph glyph-name="afii10094" unicode="&#x44c;" 
 />
    <glyph glyph-name="afii10095" unicode="&#x44d;" 
 />
    <glyph glyph-name="afii10096" unicode="&#x44e;" 
 />
    <glyph glyph-name="afii10097" unicode="&#x44f;" 
 />
    <glyph glyph-name="afii10071" unicode="&#x451;" 
 />
    <glyph glyph-name="afii10099" unicode="&#x452;" horiz-adv-x="512" 
 />
    <glyph glyph-name="afii10100" unicode="&#x453;" horiz-adv-x="512" 
 />
    <glyph glyph-name="afii10101" unicode="&#x454;" horiz-adv-x="512" 
 />
    <glyph glyph-name="afii10102" unicode="&#x455;" horiz-adv-x="512" 
 />
    <glyph glyph-name="afii10103" unicode="&#x456;" horiz-adv-x="512" 
 />
    <glyph glyph-name="afii10104" unicode="&#x457;" horiz-adv-x="512" 
 />
    <glyph glyph-name="afii10105" unicode="&#x458;" horiz-adv-x="512" 
 />
    <glyph glyph-name="afii10106" unicode="&#x459;" horiz-adv-x="512" 
 />
    <glyph glyph-name="afii10107" unicode="&#x45a;" horiz-adv-x="512" 
 />
    <glyph glyph-name="afii10108" unicode="&#x45b;" horiz-adv-x="512" 
 />
    <glyph glyph-name="afii10109" unicode="&#x45c;" horiz-adv-x="512" 
 />
    <glyph glyph-name="afii10110" unicode="&#x45e;" horiz-adv-x="512" 
 />
    <glyph glyph-name="afii10193" unicode="&#x45f;" horiz-adv-x="512" 
 />
    <glyph glyph-name="uni0460" unicode="&#x460;" horiz-adv-x="512" 
 />
    <glyph glyph-name="uni0461" unicode="&#x461;" horiz-adv-x="512" 
 />
    <glyph glyph-name="afii10146" unicode="&#x462;" horiz-adv-x="512" 
 />
    <glyph glyph-name="afii10194" unicode="&#x463;" horiz-adv-x="512" 
 />
    <glyph glyph-name="uni0464" unicode="&#x464;" horiz-adv-x="512" 
 />
    <glyph glyph-name="uni0465" unicode="&#x465;" horiz-adv-x="512" 
 />
    <glyph glyph-name="uni0466" unicode="&#x466;" horiz-adv-x="512" 
 />
    <glyph glyph-name="uni0467" unicode="&#x467;" horiz-adv-x="512" 
 />
    <glyph glyph-name="uni0468" unicode="&#x468;" horiz-adv-x="512" 
 />
    <glyph glyph-name="uni0469" unicode="&#x469;" horiz-adv-x="512" 
 />
    <glyph glyph-name="uni046A" unicode="&#x46a;" horiz-adv-x="512" 
 />
    <glyph glyph-name="uni046B" unicode="&#x46b;" horiz-adv-x="512" 
 />
    <glyph glyph-name="uni046C" unicode="&#x46c;" horiz-adv-x="512" 
 />
    <glyph glyph-name="uni046D" unicode="&#x46d;" horiz-adv-x="512" 
 />
    <glyph glyph-name="uni046E" unicode="&#x46e;" horiz-adv-x="512" 
 />
    <glyph glyph-name="uni046F" unicode="&#x46f;" horiz-adv-x="512" 
 />
    <glyph glyph-name="uni0470" unicode="&#x470;" horiz-adv-x="512" 
 />
    <glyph glyph-name="uni0471" unicode="&#x471;" horiz-adv-x="512" 
 />
    <glyph glyph-name="afii10147" unicode="&#x472;" horiz-adv-x="512" 
 />
    <glyph glyph-name="afii10195" unicode="&#x473;" horiz-adv-x="512" 
 />
    <glyph glyph-name="afii10148" unicode="&#x474;" horiz-adv-x="512" 
 />
    <glyph glyph-name="afii10196" unicode="&#x475;" horiz-adv-x="512" 
 />
    <glyph glyph-name="uni0476" unicode="&#x476;" horiz-adv-x="512" 
 />
    <glyph glyph-name="uni0477" unicode="&#x477;" horiz-adv-x="512" 
 />
    <glyph glyph-name="uni0478" unicode="&#x478;" horiz-adv-x="512" 
 />
    <glyph glyph-name="uni0479" unicode="&#x479;" horiz-adv-x="512" 
 />
    <glyph glyph-name="uni047A" unicode="&#x47a;" horiz-adv-x="512" 
 />
    <glyph glyph-name="uni047B" unicode="&#x47b;" horiz-adv-x="512" 
 />
    <glyph glyph-name="uni047C" unicode="&#x47c;" horiz-adv-x="512" 
 />
    <glyph glyph-name="uni047D" unicode="&#x47d;" horiz-adv-x="512" 
 />
    <glyph glyph-name="uni047E" unicode="&#x47e;" horiz-adv-x="512" 
 />
    <glyph glyph-name="uni047F" unicode="&#x47f;" horiz-adv-x="512" 
 />
    <glyph glyph-name="uni0480" unicode="&#x480;" horiz-adv-x="512" 
 />
    <glyph glyph-name="uni0481" unicode="&#x481;" horiz-adv-x="512" 
 />
    <glyph glyph-name="uni0482" unicode="&#x482;" horiz-adv-x="512" 
 />
    <glyph glyph-name="uni0483" unicode="&#x483;" horiz-adv-x="512" 
 />
    <glyph glyph-name="uni0484" unicode="&#x484;" horiz-adv-x="512" 
 />
    <glyph glyph-name="uni0485" unicode="&#x485;" horiz-adv-x="512" 
 />
    <glyph glyph-name="uni0486" unicode="&#x486;" horiz-adv-x="512" 
 />
    <glyph glyph-name="afii10050" unicode="&#x490;" horiz-adv-x="512" 
 />
    <glyph glyph-name="afii10098" unicode="&#x491;" horiz-adv-x="512" 
 />
    <glyph glyph-name="uni0492" unicode="&#x492;" horiz-adv-x="512" 
 />
    <glyph glyph-name="uni0493" unicode="&#x493;" horiz-adv-x="512" 
 />
    <glyph glyph-name="uni0494" unicode="&#x494;" horiz-adv-x="512" 
 />
    <glyph glyph-name="uni0495" unicode="&#x495;" horiz-adv-x="512" 
 />
    <glyph glyph-name="uni0496" unicode="&#x496;" horiz-adv-x="512" 
 />
    <glyph glyph-name="uni0497" unicode="&#x497;" horiz-adv-x="512" 
 />
    <glyph glyph-name="uni0498" unicode="&#x498;" horiz-adv-x="512" 
 />
    <glyph glyph-name="uni0499" unicode="&#x499;" horiz-adv-x="512" 
 />
    <glyph glyph-name="uni049A" unicode="&#x49a;" horiz-adv-x="512" 
 />
    <glyph glyph-name="uni049B" unicode="&#x49b;" horiz-adv-x="512" 
 />
    <glyph glyph-name="uni049C" unicode="&#x49c;" horiz-adv-x="512" 
 />
    <glyph glyph-name="uni049D" unicode="&#x49d;" horiz-adv-x="512" 
 />
    <glyph glyph-name="uni049E" unicode="&#x49e;" horiz-adv-x="512" 
 />
    <glyph glyph-name="uni049F" unicode="&#x49f;" horiz-adv-x="512" 
 />
    <glyph glyph-name="uni04A0" unicode="&#x4a0;" horiz-adv-x="512" 
 />
    <glyph glyph-name="uni04A1" unicode="&#x4a1;" horiz-adv-x="512" 
 />
    <glyph glyph-name="uni04A2" unicode="&#x4a2;" horiz-adv-x="512" 
 />
    <glyph glyph-name="uni04A3" unicode="&#x4a3;" horiz-adv-x="512" 
 />
    <glyph glyph-name="uni04A4" unicode="&#x4a4;" horiz-adv-x="512" 
 />
    <glyph glyph-name="uni04A5" unicode="&#x4a5;" horiz-adv-x="512" 
 />
    <glyph glyph-name="uni04A6" unicode="&#x4a6;" horiz-adv-x="512" 
 />
    <glyph glyph-name="uni04A7" unicode="&#x4a7;" horiz-adv-x="512" 
 />
    <glyph glyph-name="uni04A8" unicode="&#x4a8;" horiz-adv-x="512" 
 />
    <glyph glyph-name="uni04A9" unicode="&#x4a9;" horiz-adv-x="512" 
 />
    <glyph glyph-name="uni04AA" unicode="&#x4aa;" horiz-adv-x="512" 
 />
    <glyph glyph-name="uni04AB" unicode="&#x4ab;" horiz-adv-x="512" 
 />
    <glyph glyph-name="uni04AC" unicode="&#x4ac;" horiz-adv-x="512" 
 />
    <glyph glyph-name="uni04AD" unicode="&#x4ad;" horiz-adv-x="512" 
 />
    <glyph glyph-name="uni04AE" unicode="&#x4ae;" horiz-adv-x="512" 
 />
    <glyph glyph-name="uni04AF" unicode="&#x4af;" horiz-adv-x="512" 
 />
    <glyph glyph-name="uni04B0" unicode="&#x4b0;" horiz-adv-x="512" 
 />
    <glyph glyph-name="uni04B1" unicode="&#x4b1;" horiz-adv-x="512" 
 />
    <glyph glyph-name="uni04B2" unicode="&#x4b2;" horiz-adv-x="512" 
 />
    <glyph glyph-name="uni04B3" unicode="&#x4b3;" horiz-adv-x="512" 
 />
    <glyph glyph-name="uni04B4" unicode="&#x4b4;" horiz-adv-x="512" 
 />
    <glyph glyph-name="uni04B5" unicode="&#x4b5;" horiz-adv-x="512" 
 />
    <glyph glyph-name="uni04B6" unicode="&#x4b6;" horiz-adv-x="512" 
 />
    <glyph glyph-name="uni04B7" unicode="&#x4b7;" horiz-adv-x="512" 
 />
    <glyph glyph-name="uni04B8" unicode="&#x4b8;" horiz-adv-x="512" 
 />
    <glyph glyph-name="uni04B9" unicode="&#x4b9;" horiz-adv-x="512" 
 />
    <glyph glyph-name="uni04BA" unicode="&#x4ba;" horiz-adv-x="512" 
 />
    <glyph glyph-name="uni04BB" unicode="&#x4bb;" horiz-adv-x="512" 
 />
    <glyph glyph-name="uni04BC" unicode="&#x4bc;" horiz-adv-x="512" 
 />
    <glyph glyph-name="uni04BD" unicode="&#x4bd;" horiz-adv-x="512" 
 />
    <glyph glyph-name="uni04BE" unicode="&#x4be;" horiz-adv-x="512" 
 />
    <glyph glyph-name="uni04BF" unicode="&#x4bf;" horiz-adv-x="512" 
 />
    <glyph glyph-name="uni04C0" unicode="&#x4c0;" horiz-adv-x="512" 
 />
    <glyph glyph-name="uni04C1" unicode="&#x4c1;" horiz-adv-x="512" 
 />
    <glyph glyph-name="uni04C2" unicode="&#x4c2;" horiz-adv-x="512" 
 />
    <glyph glyph-name="uni04C3" unicode="&#x4c3;" horiz-adv-x="512" 
 />
    <glyph glyph-name="uni04C4" unicode="&#x4c4;" horiz-adv-x="512" 
 />
    <glyph glyph-name="uni04C7" unicode="&#x4c7;" horiz-adv-x="512" 
 />
    <glyph glyph-name="uni04C8" unicode="&#x4c8;" horiz-adv-x="512" 
 />
    <glyph glyph-name="uni04CB" unicode="&#x4cb;" horiz-adv-x="512" 
 />
    <glyph glyph-name="uni04CC" unicode="&#x4cc;" horiz-adv-x="512" 
 />
    <glyph glyph-name="uni04D0" unicode="&#x4d0;" horiz-adv-x="512" 
 />
    <glyph glyph-name="uni04D1" unicode="&#x4d1;" horiz-adv-x="512" 
 />
    <glyph glyph-name="uni04D2" unicode="&#x4d2;" horiz-adv-x="512" 
 />
    <glyph glyph-name="uni04D3" unicode="&#x4d3;" horiz-adv-x="512" 
 />
    <glyph glyph-name="uni04D4" unicode="&#x4d4;" horiz-adv-x="512" 
 />
    <glyph glyph-name="uni04D5" unicode="&#x4d5;" horiz-adv-x="512" 
 />
    <glyph glyph-name="uni04D6" unicode="&#x4d6;" horiz-adv-x="512" 
 />
    <glyph glyph-name="uni04D7" unicode="&#x4d7;" horiz-adv-x="512" 
 />
    <glyph glyph-name="uni04D8" unicode="&#x4d8;" horiz-adv-x="512" 
 />
    <glyph glyph-name="afii10846" unicode="&#x4d9;" horiz-adv-x="512" 
 />
    <glyph glyph-name="uni04DA" unicode="&#x4da;" horiz-adv-x="512" 
 />
    <glyph glyph-name="uni04DB" unicode="&#x4db;" horiz-adv-x="512" 
 />
    <glyph glyph-name="uni04DC" unicode="&#x4dc;" horiz-adv-x="512" 
 />
    <glyph glyph-name="uni04DD" unicode="&#x4dd;" horiz-adv-x="512" 
 />
    <glyph glyph-name="uni04DE" unicode="&#x4de;" horiz-adv-x="512" 
 />
    <glyph glyph-name="uni04DF" unicode="&#x4df;" horiz-adv-x="512" 
 />
    <glyph glyph-name="uni04E0" unicode="&#x4e0;" horiz-adv-x="512" 
 />
    <glyph glyph-name="uni04E1" unicode="&#x4e1;" horiz-adv-x="512" 
 />
    <glyph glyph-name="uni04E2" unicode="&#x4e2;" horiz-adv-x="512" 
 />
    <glyph glyph-name="uni04E3" unicode="&#x4e3;" horiz-adv-x="512" 
 />
    <glyph glyph-name="uni04E4" unicode="&#x4e4;" horiz-adv-x="512" 
 />
    <glyph glyph-name="uni04E5" unicode="&#x4e5;" horiz-adv-x="512" 
 />
    <glyph glyph-name="uni04E6" unicode="&#x4e6;" horiz-adv-x="512" 
 />
    <glyph glyph-name="uni04E7" unicode="&#x4e7;" horiz-adv-x="512" 
 />
    <glyph glyph-name="uni04E8" unicode="&#x4e8;" horiz-adv-x="512" 
 />
    <glyph glyph-name="uni04E9" unicode="&#x4e9;" horiz-adv-x="512" 
 />
    <glyph glyph-name="uni04EA" unicode="&#x4ea;" horiz-adv-x="512" 
 />
    <glyph glyph-name="uni04EB" unicode="&#x4eb;" horiz-adv-x="512" 
 />
    <glyph glyph-name="uni04EE" unicode="&#x4ee;" horiz-adv-x="512" 
 />
    <glyph glyph-name="uni04EF" unicode="&#x4ef;" horiz-adv-x="512" 
 />
    <glyph glyph-name="uni04F0" unicode="&#x4f0;" horiz-adv-x="512" 
 />
    <glyph glyph-name="uni04F1" unicode="&#x4f1;" horiz-adv-x="512" 
 />
    <glyph glyph-name="uni04F2" unicode="&#x4f2;" horiz-adv-x="512" 
 />
    <glyph glyph-name="uni04F3" unicode="&#x4f3;" horiz-adv-x="512" 
 />
    <glyph glyph-name="uni04F4" unicode="&#x4f4;" horiz-adv-x="512" 
 />
    <glyph glyph-name="uni04F5" unicode="&#x4f5;" horiz-adv-x="512" 
 />
    <glyph glyph-name="uni04F8" unicode="&#x4f8;" horiz-adv-x="512" 
 />
    <glyph glyph-name="uni04F9" unicode="&#x4f9;" horiz-adv-x="512" 
 />
    <glyph glyph-name="Wgrave" unicode="&#x1e80;" horiz-adv-x="512" 
 />
    <glyph glyph-name="wgrave" unicode="&#x1e81;" horiz-adv-x="512" 
 />
    <glyph glyph-name="Wacute" unicode="&#x1e82;" horiz-adv-x="512" 
 />
    <glyph glyph-name="wacute" unicode="&#x1e83;" horiz-adv-x="512" 
 />
    <glyph glyph-name="Wdieresis" unicode="&#x1e84;" horiz-adv-x="512" 
 />
    <glyph glyph-name="wdieresis" unicode="&#x1e85;" horiz-adv-x="512" 
 />
    <glyph glyph-name="Ygrave" unicode="&#x1ef2;" horiz-adv-x="512" 
 />
    <glyph glyph-name="ygrave" unicode="&#x1ef3;" horiz-adv-x="512" 
 />
    <glyph glyph-name="uni2000" unicode="&#x2000;" 
 />
    <glyph glyph-name="uni2001" unicode="&#x2001;" 
 />
    <glyph glyph-name="uni2002" unicode="&#x2002;" 
 />
    <glyph glyph-name="uni2003" unicode="&#x2003;" 
 />
    <glyph glyph-name="uni2004" unicode="&#x2004;" 
 />
    <glyph glyph-name="uni2005" unicode="&#x2005;" 
 />
    <glyph glyph-name="uni2006" unicode="&#x2006;" 
 />
    <glyph glyph-name="uni2007" unicode="&#x2007;" 
 />
    <glyph glyph-name="uni2008" unicode="&#x2008;" 
 />
    <glyph glyph-name="uni2009" unicode="&#x2009;" 
 />
    <glyph glyph-name="uni200A" unicode="&#x200a;" 
 />
    <glyph glyph-name="uni200B" unicode="&#x200b;" horiz-adv-x="512" 
 />
    <glyph glyph-name="afii61664" unicode="&#x200c;" horiz-adv-x="512" 
 />
    <glyph glyph-name="afii301" unicode="&#x200d;" horiz-adv-x="512" 
 />
    <glyph glyph-name="afii299" unicode="&#x200e;" horiz-adv-x="512" 
 />
    <glyph glyph-name="afii300" unicode="&#x200f;" horiz-adv-x="512" 
 />
    <glyph glyph-name="uni2010" unicode="&#x2010;" 
 />
    <glyph glyph-name="uni2011" unicode="&#x2011;" 
 />
    <glyph glyph-name="figuredash" unicode="&#x2012;" 
 />
    <glyph glyph-name="endash" unicode="&#x2013;" 
 />
    <glyph glyph-name="emdash" unicode="&#x2014;" 
 />
    <glyph glyph-name="afii00208" unicode="&#x2015;" 
 />
    <glyph glyph-name="underscoredbl" unicode="&#x2017;" 
 />
    <glyph glyph-name="quoteleft" unicode="&#x2018;" 
 />
    <glyph glyph-name="quoteright" unicode="&#x2019;" 
d="M159 804h-81v-81h60l-26 -67l17 -7l30 74h-1h1v81z" />
    <glyph glyph-name="quotesinglbase" unicode="&#x201a;" 
 />
    <glyph glyph-name="quotereversed" unicode="&#x201b;" 
 />
    <glyph glyph-name="quotedblleft" unicode="&#x201c;" 
 />
    <glyph glyph-name="quotedblright" unicode="&#x201d;" 
d="M79 681h61l-27 -67l18 -7l29 74v0v0v82h-81v-82zM270 763h-81v-82h61l-27 -67l18 -7l29 74v0v0v82z" />
    <glyph glyph-name="quotedblbase" unicode="&#x201e;" 
 />
    <glyph glyph-name="uni201F" unicode="&#x201f;" 
 />
    <glyph glyph-name="dagger" unicode="&#x2020;" 
 />
    <glyph glyph-name="daggerdbl" unicode="&#x2021;" 
 />
    <glyph glyph-name="bullet" unicode="&#x2022;" 
 />
    <glyph glyph-name="uni2023" unicode="&#x2023;" 
 />
    <glyph glyph-name="onedotenleader" unicode="&#x2024;" 
 />
    <glyph glyph-name="twodotenleader" unicode="&#x2025;" 
 />
    <glyph glyph-name="ellipsis" unicode="&#x2026;" 
d="M512 339q-22 3 -24 25q2 23 24 24q22 -1 25 -24q-3 -22 -25 -25zM638 339q-23 3 -25 25q2 23 25 24q22 -1 24 -24q-2 -22 -24 -25zM387 339q-23 3 -24 25q1 22 24 24q22 -1 24 -24q-2 -22 -24 -25zM262 339q-23 3 -25 25q2 22 25 24q22 -1 24 -24q-2 -22 -24 -25z
M763 339q-22 3 -24 25q2 23 24 24q22 -2 25 -24q-3 -22 -25 -25z" />
    <glyph glyph-name="uni2027" unicode="&#x2027;" 
 />
    <glyph glyph-name="uni2028" unicode="&#x2028;" 
 />
    <glyph glyph-name="uni2029" unicode="&#x2029;" horiz-adv-x="512" 
 />
    <glyph glyph-name="uni202A" unicode="&#x202a;" horiz-adv-x="512" 
 />
    <glyph glyph-name="uni202B" unicode="&#x202b;" horiz-adv-x="512" 
 />
    <glyph glyph-name="afii61573" unicode="&#x202c;" horiz-adv-x="512" 
 />
    <glyph glyph-name="afii61574" unicode="&#x202d;" horiz-adv-x="512" 
 />
    <glyph glyph-name="afii61575" unicode="&#x202e;" horiz-adv-x="512" 
 />
    <glyph glyph-name="perthousand" unicode="&#x2030;" 
 />
    <glyph glyph-name="uni2031" unicode="&#x2031;" 
 />
    <glyph glyph-name="minute" unicode="&#x2032;" 
 />
    <glyph glyph-name="second" unicode="&#x2033;" 
 />
    <glyph glyph-name="uni2034" unicode="&#x2034;" 
 />
    <glyph glyph-name="uni2035" unicode="&#x2035;" 
 />
    <glyph glyph-name="uni2036" unicode="&#x2036;" 
 />
    <glyph glyph-name="uni2037" unicode="&#x2037;" 
 />
    <glyph glyph-name="uni2038" unicode="&#x2038;" 
 />
    <glyph glyph-name="guilsinglleft" unicode="&#x2039;" 
 />
    <glyph glyph-name="guilsinglright" unicode="&#x203a;" 
 />
    <glyph glyph-name="uni203B" unicode="&#x203b;" 
d="M297 114l-14 14l449 448l13 -13zM732 114l-449 449l14 13l448 -448zM566 557q-5 -49 -54 -53q-49 4 -54 53q4 50 54 54q50 -4 54 -54zM566 159q-4 -50 -54 -54q-50 4 -54 54q5 49 54 53q49 -4 54 -53zM364 331q-5 -49 -54 -53q-49 4 -54 53q4 50 54 54q50 -4 54 -54z
M770 331q-5 -49 -54 -53q-49 4 -54 53q4 50 54 54q50 -4 54 -54z" />
    <glyph glyph-name="exclamdbl" unicode="&#x203c;" 
 />
    <glyph glyph-name="uni203D" unicode="&#x203d;" 
 />
    <glyph glyph-name="uni203E" unicode="&#x203e;" 
 />
    <glyph glyph-name="uni203F" unicode="&#x203f;" 
 />
    <glyph glyph-name="uni2040" unicode="&#x2040;" 
 />
    <glyph glyph-name="uni2041" unicode="&#x2041;" 
 />
    <glyph glyph-name="uni2042" unicode="&#x2042;" 
 />
    <glyph glyph-name="uni2043" unicode="&#x2043;" 
 />
    <glyph glyph-name="fraction" unicode="&#x2044;" 
 />
    <glyph glyph-name="uni2045" unicode="&#x2045;" 
 />
    <glyph glyph-name="uni2046" unicode="&#x2046;" 
 />
    <glyph glyph-name="uni2070" unicode="&#x2070;" horiz-adv-x="512" 
 />
    <glyph glyph-name="uni2074" unicode="&#x2074;" horiz-adv-x="512" 
 />
    <glyph glyph-name="uni2075" unicode="&#x2075;" horiz-adv-x="512" 
 />
    <glyph glyph-name="uni2076" unicode="&#x2076;" horiz-adv-x="512" 
 />
    <glyph glyph-name="uni2077" unicode="&#x2077;" horiz-adv-x="512" 
 />
    <glyph glyph-name="uni2078" unicode="&#x2078;" horiz-adv-x="512" 
 />
    <glyph glyph-name="uni2079" unicode="&#x2079;" horiz-adv-x="512" 
 />
    <glyph glyph-name="uni207A" unicode="&#x207a;" horiz-adv-x="512" 
 />
    <glyph glyph-name="uni207B" unicode="&#x207b;" horiz-adv-x="512" 
 />
    <glyph glyph-name="uni207C" unicode="&#x207c;" horiz-adv-x="512" 
 />
    <glyph glyph-name="uni207D" unicode="&#x207d;" horiz-adv-x="512" 
 />
    <glyph glyph-name="uni207E" unicode="&#x207e;" horiz-adv-x="512" 
 />
    <glyph glyph-name="uni207F" unicode="&#x207f;" horiz-adv-x="512" 
 />
    <glyph glyph-name="uni2080" unicode="&#x2080;" horiz-adv-x="512" 
 />
    <glyph glyph-name="uni2081" unicode="&#x2081;" horiz-adv-x="512" 
 />
    <glyph glyph-name="uni2082" unicode="&#x2082;" horiz-adv-x="512" 
 />
    <glyph glyph-name="uni2083" unicode="&#x2083;" horiz-adv-x="512" 
 />
    <glyph glyph-name="uni2084" unicode="&#x2084;" horiz-adv-x="512" 
 />
    <glyph glyph-name="uni2085" unicode="&#x2085;" horiz-adv-x="512" 
 />
    <glyph glyph-name="uni2086" unicode="&#x2086;" horiz-adv-x="512" 
 />
    <glyph glyph-name="uni2087" unicode="&#x2087;" horiz-adv-x="512" 
 />
    <glyph glyph-name="uni2088" unicode="&#x2088;" horiz-adv-x="512" 
 />
    <glyph glyph-name="uni2089" unicode="&#x2089;" horiz-adv-x="512" 
 />
    <glyph glyph-name="uni208A" unicode="&#x208a;" horiz-adv-x="512" 
 />
    <glyph glyph-name="uni208B" unicode="&#x208b;" horiz-adv-x="512" 
 />
    <glyph glyph-name="uni208C" unicode="&#x208c;" horiz-adv-x="512" 
 />
    <glyph glyph-name="uni208D" unicode="&#x208d;" horiz-adv-x="512" 
 />
    <glyph glyph-name="uni208E" unicode="&#x208e;" horiz-adv-x="512" 
 />
    <glyph glyph-name="uni20A0" unicode="&#x20a0;" horiz-adv-x="512" 
 />
    <glyph glyph-name="colonmonetary" unicode="&#x20a1;" horiz-adv-x="512" 
 />
    <glyph glyph-name="uni20A2" unicode="&#x20a2;" horiz-adv-x="512" 
 />
    <glyph glyph-name="franc" unicode="&#x20a3;" horiz-adv-x="512" 
 />
    <glyph glyph-name="lira" unicode="&#x20a4;" horiz-adv-x="512" 
 />
    <glyph glyph-name="uni20A5" unicode="&#x20a5;" horiz-adv-x="512" 
 />
    <glyph glyph-name="uni20A6" unicode="&#x20a6;" horiz-adv-x="512" 
 />
    <glyph glyph-name="peseta" unicode="&#x20a7;" horiz-adv-x="512" 
 />
    <glyph glyph-name="uni20A8" unicode="&#x20a8;" horiz-adv-x="512" 
 />
    <glyph glyph-name="uni20A9" unicode="&#x20a9;" horiz-adv-x="512" 
 />
    <glyph glyph-name="afii57636" unicode="&#x20aa;" horiz-adv-x="512" 
 />
    <glyph glyph-name="uni2100" unicode="&#x2100;" 
 />
    <glyph glyph-name="uni2101" unicode="&#x2101;" 
 />
    <glyph glyph-name="uni2102" unicode="&#x2102;" 
 />
    <glyph glyph-name="uni2103" unicode="&#x2103;" 
 />
    <glyph glyph-name="uni2104" unicode="&#x2104;" 
 />
    <glyph glyph-name="afii61248" unicode="&#x2105;" 
 />
    <glyph glyph-name="uni2106" unicode="&#x2106;" 
 />
    <glyph glyph-name="uni2107" unicode="&#x2107;" 
 />
    <glyph glyph-name="uni2108" unicode="&#x2108;" 
 />
    <glyph glyph-name="uni2109" unicode="&#x2109;" 
 />
    <glyph glyph-name="uni210A" unicode="&#x210a;" 
 />
    <glyph glyph-name="uni210B" unicode="&#x210b;" 
 />
    <glyph glyph-name="uni210C" unicode="&#x210c;" 
 />
    <glyph glyph-name="uni210D" unicode="&#x210d;" 
 />
    <glyph glyph-name="uni210E" unicode="&#x210e;" 
 />
    <glyph glyph-name="uni210F" unicode="&#x210f;" 
 />
    <glyph glyph-name="uni2110" unicode="&#x2110;" 
 />
    <glyph glyph-name="Ifraktur" unicode="&#x2111;" 
 />
    <glyph glyph-name="uni2112" unicode="&#x2112;" 
 />
    <glyph glyph-name="afii61289" unicode="&#x2113;" 
 />
    <glyph glyph-name="uni2114" unicode="&#x2114;" 
 />
    <glyph glyph-name="uni2115" unicode="&#x2115;" 
 />
    <glyph glyph-name="afii61352" unicode="&#x2116;" 
 />
    <glyph glyph-name="uni2117" unicode="&#x2117;" 
 />
    <glyph glyph-name="weierstrass" unicode="&#x2118;" 
 />
    <glyph glyph-name="uni2119" unicode="&#x2119;" 
 />
    <glyph glyph-name="uni211A" unicode="&#x211a;" 
 />
    <glyph glyph-name="uni211B" unicode="&#x211b;" 
 />
    <glyph glyph-name="Rfraktur" unicode="&#x211c;" 
 />
    <glyph glyph-name="uni211D" unicode="&#x211d;" 
 />
    <glyph glyph-name="prescription" unicode="&#x211e;" 
 />
    <glyph glyph-name="uni211F" unicode="&#x211f;" 
 />
    <glyph glyph-name="uni2120" unicode="&#x2120;" 
 />
    <glyph glyph-name="uni2121" unicode="&#x2121;" 
 />
    <glyph glyph-name="trademark" unicode="&#x2122;" 
 />
    <glyph glyph-name="uni2123" unicode="&#x2123;" 
 />
    <glyph glyph-name="uni2124" unicode="&#x2124;" 
 />
    <glyph glyph-name="uni2125" unicode="&#x2125;" 
 />
    <glyph glyph-name="uni2126" unicode="&#x2126;" 
 />
    <glyph glyph-name="uni2127" unicode="&#x2127;" 
 />
    <glyph glyph-name="uni2128" unicode="&#x2128;" 
 />
    <glyph glyph-name="uni2129" unicode="&#x2129;" 
 />
    <glyph glyph-name="uni212A" unicode="&#x212a;" 
 />
    <glyph glyph-name="uni212B" unicode="&#x212b;" 
 />
    <glyph glyph-name="uni212C" unicode="&#x212c;" 
 />
    <glyph glyph-name="uni212D" unicode="&#x212d;" 
 />
    <glyph glyph-name="estimated" unicode="&#x212e;" 
 />
    <glyph glyph-name="uni212F" unicode="&#x212f;" 
 />
    <glyph glyph-name="uni2130" unicode="&#x2130;" 
 />
    <glyph glyph-name="uni2131" unicode="&#x2131;" 
 />
    <glyph glyph-name="uni2132" unicode="&#x2132;" 
 />
    <glyph glyph-name="uni2133" unicode="&#x2133;" 
 />
    <glyph glyph-name="uni2134" unicode="&#x2134;" 
 />
    <glyph glyph-name="aleph" unicode="&#x2135;" 
 />
    <glyph glyph-name="uni2136" unicode="&#x2136;" 
 />
    <glyph glyph-name="uni2137" unicode="&#x2137;" 
 />
    <glyph glyph-name="uni2138" unicode="&#x2138;" 
 />
    <glyph glyph-name="onethird" unicode="&#x2153;" horiz-adv-x="512" 
 />
    <glyph glyph-name="twothirds" unicode="&#x2154;" horiz-adv-x="512" 
 />
    <glyph glyph-name="uni2155" unicode="&#x2155;" horiz-adv-x="512" 
 />
    <glyph glyph-name="uni2156" unicode="&#x2156;" horiz-adv-x="512" 
 />
    <glyph glyph-name="uni2157" unicode="&#x2157;" horiz-adv-x="512" 
 />
    <glyph glyph-name="uni2158" unicode="&#x2158;" horiz-adv-x="512" 
 />
    <glyph glyph-name="uni2159" unicode="&#x2159;" horiz-adv-x="512" 
 />
    <glyph glyph-name="uni215A" unicode="&#x215a;" horiz-adv-x="512" 
 />
    <glyph glyph-name="oneeighth" unicode="&#x215b;" horiz-adv-x="512" 
 />
    <glyph glyph-name="threeeighths" unicode="&#x215c;" horiz-adv-x="512" 
 />
    <glyph glyph-name="fiveeighths" unicode="&#x215d;" horiz-adv-x="512" 
 />
    <glyph glyph-name="seveneighths" unicode="&#x215e;" horiz-adv-x="512" 
 />
    <glyph glyph-name="uni215F" unicode="&#x215f;" horiz-adv-x="512" 
 />
    <glyph glyph-name="uni2160" unicode="&#x2160;" 
 />
    <glyph glyph-name="uni2161" unicode="&#x2161;" 
 />
    <glyph glyph-name="uni2162" unicode="&#x2162;" 
 />
    <glyph glyph-name="uni2163" unicode="&#x2163;" 
 />
    <glyph glyph-name="uni2164" unicode="&#x2164;" 
 />
    <glyph glyph-name="uni2165" unicode="&#x2165;" 
 />
    <glyph glyph-name="uni2166" unicode="&#x2166;" 
 />
    <glyph glyph-name="uni2167" unicode="&#x2167;" 
 />
    <glyph glyph-name="uni2168" unicode="&#x2168;" 
 />
    <glyph glyph-name="uni2169" unicode="&#x2169;" 
 />
    <glyph glyph-name="uni216A" unicode="&#x216a;" horiz-adv-x="512" 
 />
    <glyph glyph-name="uni216B" unicode="&#x216b;" horiz-adv-x="512" 
 />
    <glyph glyph-name="uni216C" unicode="&#x216c;" horiz-adv-x="512" 
 />
    <glyph glyph-name="uni216D" unicode="&#x216d;" horiz-adv-x="512" 
 />
    <glyph glyph-name="uni216E" unicode="&#x216e;" horiz-adv-x="512" 
 />
    <glyph glyph-name="uni216F" unicode="&#x216f;" horiz-adv-x="512" 
 />
    <glyph glyph-name="uni2170" unicode="&#x2170;" 
 />
    <glyph glyph-name="uni2171" unicode="&#x2171;" 
 />
    <glyph glyph-name="uni2172" unicode="&#x2172;" 
 />
    <glyph glyph-name="uni2173" unicode="&#x2173;" 
 />
    <glyph glyph-name="uni2174" unicode="&#x2174;" 
 />
    <glyph glyph-name="uni2175" unicode="&#x2175;" 
 />
    <glyph glyph-name="uni2176" unicode="&#x2176;" 
 />
    <glyph glyph-name="uni2177" unicode="&#x2177;" 
 />
    <glyph glyph-name="uni2178" unicode="&#x2178;" 
 />
    <glyph glyph-name="uni2179" unicode="&#x2179;" 
 />
    <glyph glyph-name="uni217A" unicode="&#x217a;" horiz-adv-x="512" 
 />
    <glyph glyph-name="uni217B" unicode="&#x217b;" horiz-adv-x="512" 
 />
    <glyph glyph-name="uni217C" unicode="&#x217c;" horiz-adv-x="512" 
 />
    <glyph glyph-name="uni217D" unicode="&#x217d;" horiz-adv-x="512" 
 />
    <glyph glyph-name="uni217E" unicode="&#x217e;" horiz-adv-x="512" 
 />
    <glyph glyph-name="uni217F" unicode="&#x217f;" horiz-adv-x="512" 
 />
    <glyph glyph-name="uni2180" unicode="&#x2180;" horiz-adv-x="512" 
 />
    <glyph glyph-name="uni2181" unicode="&#x2181;" horiz-adv-x="512" 
 />
    <glyph glyph-name="uni2182" unicode="&#x2182;" horiz-adv-x="512" 
 />
    <glyph glyph-name="arrowleft" unicode="&#x2190;" 
 />
    <glyph glyph-name="arrowup" unicode="&#x2191;" 
 />
    <glyph glyph-name="arrowright" unicode="&#x2192;" 
 />
    <glyph glyph-name="arrowdown" unicode="&#x2193;" 
 />
    <glyph glyph-name="arrowboth" unicode="&#x2194;" horiz-adv-x="512" 
 />
    <glyph glyph-name="arrowupdn" unicode="&#x2195;" horiz-adv-x="512" 
 />
    <glyph glyph-name="uni2196" unicode="&#x2196;" horiz-adv-x="512" 
 />
    <glyph glyph-name="uni2197" unicode="&#x2197;" horiz-adv-x="512" 
 />
    <glyph glyph-name="uni2198" unicode="&#x2198;" horiz-adv-x="512" 
 />
    <glyph glyph-name="uni2199" unicode="&#x2199;" horiz-adv-x="512" 
 />
    <glyph glyph-name="uni219A" unicode="&#x219a;" horiz-adv-x="512" 
 />
    <glyph glyph-name="uni219B" unicode="&#x219b;" horiz-adv-x="512" 
 />
    <glyph glyph-name="uni219C" unicode="&#x219c;" horiz-adv-x="512" 
 />
    <glyph glyph-name="uni219D" unicode="&#x219d;" horiz-adv-x="512" 
 />
    <glyph glyph-name="uni219E" unicode="&#x219e;" horiz-adv-x="512" 
 />
    <glyph glyph-name="uni219F" unicode="&#x219f;" horiz-adv-x="512" 
 />
    <glyph glyph-name="uni21A0" unicode="&#x21a0;" horiz-adv-x="512" 
 />
    <glyph glyph-name="uni21A1" unicode="&#x21a1;" horiz-adv-x="512" 
 />
    <glyph glyph-name="uni21A2" unicode="&#x21a2;" horiz-adv-x="512" 
 />
    <glyph glyph-name="uni21A3" unicode="&#x21a3;" horiz-adv-x="512" 
 />
    <glyph glyph-name="uni21A4" unicode="&#x21a4;" horiz-adv-x="512" 
 />
    <glyph glyph-name="uni21A5" unicode="&#x21a5;" horiz-adv-x="512" 
 />
    <glyph glyph-name="uni21A6" unicode="&#x21a6;" horiz-adv-x="512" 
 />
    <glyph glyph-name="uni21A7" unicode="&#x21a7;" horiz-adv-x="512" 
 />
    <glyph glyph-name="arrowupdnbse" unicode="&#x21a8;" horiz-adv-x="512" 
 />
    <glyph glyph-name="uni21A9" unicode="&#x21a9;" horiz-adv-x="512" 
 />
    <glyph glyph-name="uni21AA" unicode="&#x21aa;" horiz-adv-x="512" 
 />
    <glyph glyph-name="uni21AB" unicode="&#x21ab;" horiz-adv-x="512" 
 />
    <glyph glyph-name="uni21AC" unicode="&#x21ac;" horiz-adv-x="512" 
 />
    <glyph glyph-name="uni21AD" unicode="&#x21ad;" horiz-adv-x="512" 
 />
    <glyph glyph-name="uni21AE" unicode="&#x21ae;" horiz-adv-x="512" 
 />
    <glyph glyph-name="uni21AF" unicode="&#x21af;" horiz-adv-x="512" 
 />
    <glyph glyph-name="uni21B0" unicode="&#x21b0;" horiz-adv-x="512" 
 />
    <glyph glyph-name="uni21B1" unicode="&#x21b1;" horiz-adv-x="512" 
 />
    <glyph glyph-name="uni21B2" unicode="&#x21b2;" horiz-adv-x="512" 
 />
    <glyph glyph-name="uni21B3" unicode="&#x21b3;" horiz-adv-x="512" 
 />
    <glyph glyph-name="uni21B4" unicode="&#x21b4;" horiz-adv-x="512" 
 />
    <glyph glyph-name="carriagereturn" unicode="&#x21b5;" horiz-adv-x="512" 
 />
    <glyph glyph-name="uni21B6" unicode="&#x21b6;" horiz-adv-x="512" 
 />
    <glyph glyph-name="uni21B7" unicode="&#x21b7;" horiz-adv-x="512" 
 />
    <glyph glyph-name="uni21B8" unicode="&#x21b8;" horiz-adv-x="512" 
 />
    <glyph glyph-name="uni21B9" unicode="&#x21b9;" horiz-adv-x="512" 
 />
    <glyph glyph-name="uni21BA" unicode="&#x21ba;" horiz-adv-x="512" 
 />
    <glyph glyph-name="uni21BB" unicode="&#x21bb;" horiz-adv-x="512" 
 />
    <glyph glyph-name="uni21BC" unicode="&#x21bc;" horiz-adv-x="512" 
 />
    <glyph glyph-name="uni21BD" unicode="&#x21bd;" horiz-adv-x="512" 
 />
    <glyph glyph-name="uni21BE" unicode="&#x21be;" horiz-adv-x="512" 
 />
    <glyph glyph-name="uni21BF" unicode="&#x21bf;" horiz-adv-x="512" 
 />
    <glyph glyph-name="uni21C0" unicode="&#x21c0;" horiz-adv-x="512" 
 />
    <glyph glyph-name="uni21C1" unicode="&#x21c1;" horiz-adv-x="512" 
 />
    <glyph glyph-name="uni21C2" unicode="&#x21c2;" horiz-adv-x="512" 
 />
    <glyph glyph-name="uni21C3" unicode="&#x21c3;" horiz-adv-x="512" 
 />
    <glyph glyph-name="uni21C4" unicode="&#x21c4;" horiz-adv-x="512" 
 />
    <glyph glyph-name="uni21C5" unicode="&#x21c5;" horiz-adv-x="512" 
 />
    <glyph glyph-name="uni21C6" unicode="&#x21c6;" horiz-adv-x="512" 
 />
    <glyph glyph-name="uni21C7" unicode="&#x21c7;" horiz-adv-x="512" 
 />
    <glyph glyph-name="uni21C8" unicode="&#x21c8;" horiz-adv-x="512" 
 />
    <glyph glyph-name="uni21C9" unicode="&#x21c9;" horiz-adv-x="512" 
 />
    <glyph glyph-name="uni21CA" unicode="&#x21ca;" horiz-adv-x="512" 
 />
    <glyph glyph-name="uni21CB" unicode="&#x21cb;" horiz-adv-x="512" 
 />
    <glyph glyph-name="uni21CC" unicode="&#x21cc;" horiz-adv-x="512" 
 />
    <glyph glyph-name="uni21CD" unicode="&#x21cd;" horiz-adv-x="512" 
 />
    <glyph glyph-name="uni21CE" unicode="&#x21ce;" horiz-adv-x="512" 
 />
    <glyph glyph-name="uni21CF" unicode="&#x21cf;" horiz-adv-x="512" 
 />
    <glyph glyph-name="arrowdblleft" unicode="&#x21d0;" horiz-adv-x="512" 
 />
    <glyph glyph-name="arrowdblup" unicode="&#x21d1;" horiz-adv-x="512" 
 />
    <glyph glyph-name="arrowdblright" unicode="&#x21d2;" 
 />
    <glyph glyph-name="arrowdbldown" unicode="&#x21d3;" horiz-adv-x="512" 
 />
    <glyph glyph-name="arrowdblboth" unicode="&#x21d4;" 
 />
    <glyph glyph-name="uni21D5" unicode="&#x21d5;" horiz-adv-x="512" 
 />
    <glyph glyph-name="uni21D6" unicode="&#x21d6;" horiz-adv-x="512" 
 />
    <glyph glyph-name="uni21D7" unicode="&#x21d7;" horiz-adv-x="512" 
 />
    <glyph glyph-name="uni21D8" unicode="&#x21d8;" horiz-adv-x="512" 
 />
    <glyph glyph-name="uni21D9" unicode="&#x21d9;" horiz-adv-x="512" 
 />
    <glyph glyph-name="uni21DA" unicode="&#x21da;" horiz-adv-x="512" 
 />
    <glyph glyph-name="uni21DB" unicode="&#x21db;" horiz-adv-x="512" 
 />
    <glyph glyph-name="uni21DC" unicode="&#x21dc;" horiz-adv-x="512" 
 />
    <glyph glyph-name="uni21DD" unicode="&#x21dd;" horiz-adv-x="512" 
 />
    <glyph glyph-name="uni21DE" unicode="&#x21de;" horiz-adv-x="512" 
 />
    <glyph glyph-name="uni21DF" unicode="&#x21df;" horiz-adv-x="512" 
 />
    <glyph glyph-name="uni21E0" unicode="&#x21e0;" horiz-adv-x="512" 
 />
    <glyph glyph-name="uni21E1" unicode="&#x21e1;" horiz-adv-x="512" 
 />
    <glyph glyph-name="uni21E2" unicode="&#x21e2;" horiz-adv-x="512" 
 />
    <glyph glyph-name="uni21E3" unicode="&#x21e3;" horiz-adv-x="512" 
 />
    <glyph glyph-name="uni21E4" unicode="&#x21e4;" horiz-adv-x="512" 
 />
    <glyph glyph-name="uni21E5" unicode="&#x21e5;" horiz-adv-x="512" 
 />
    <glyph glyph-name="uni21E6" unicode="&#x21e6;" horiz-adv-x="512" 
 />
    <glyph glyph-name="uni21E7" unicode="&#x21e7;" horiz-adv-x="512" 
 />
    <glyph glyph-name="uni21E8" unicode="&#x21e8;" horiz-adv-x="512" 
 />
    <glyph glyph-name="uni21E9" unicode="&#x21e9;" horiz-adv-x="512" 
 />
    <glyph glyph-name="uni21EA" unicode="&#x21ea;" horiz-adv-x="512" 
 />
    <glyph glyph-name="universal" unicode="&#x2200;" 
 />
    <glyph glyph-name="uni2201" unicode="&#x2201;" horiz-adv-x="512" 
 />
    <glyph glyph-name="partialdiff" unicode="&#x2202;" 
 />
    <glyph glyph-name="existential" unicode="&#x2203;" 
 />
    <glyph glyph-name="uni2204" unicode="&#x2204;" horiz-adv-x="512" 
 />
    <glyph glyph-name="emptyset" unicode="&#x2205;" horiz-adv-x="512" 
 />
    <glyph glyph-name="uni2206" unicode="&#x2206;" horiz-adv-x="512" 
 />
    <glyph glyph-name="gradient" unicode="&#x2207;" 
 />
    <glyph glyph-name="element" unicode="&#x2208;" 
 />
    <glyph glyph-name="notelement" unicode="&#x2209;" horiz-adv-x="512" 
 />
    <glyph glyph-name="uni220A" unicode="&#x220a;" horiz-adv-x="512" 
 />
    <glyph glyph-name="suchthat" unicode="&#x220b;" 
 />
    <glyph glyph-name="uni220C" unicode="&#x220c;" horiz-adv-x="512" 
 />
    <glyph glyph-name="uni220D" unicode="&#x220d;" horiz-adv-x="512" 
 />
    <glyph glyph-name="uni220E" unicode="&#x220e;" horiz-adv-x="512" 
 />
    <glyph glyph-name="product" unicode="&#x220f;" horiz-adv-x="512" 
 />
    <glyph glyph-name="uni2210" unicode="&#x2210;" horiz-adv-x="512" 
 />
    <glyph glyph-name="summation" unicode="&#x2211;" 
 />
    <glyph glyph-name="minus" unicode="&#x2212;" horiz-adv-x="512" 
 />
    <glyph glyph-name="uni2213" unicode="&#x2213;" horiz-adv-x="512" 
 />
    <glyph glyph-name="uni2214" unicode="&#x2214;" horiz-adv-x="512" 
 />
    <glyph glyph-name="uni2215" unicode="&#x2215;" horiz-adv-x="512" 
 />
    <glyph glyph-name="uni2216" unicode="&#x2216;" horiz-adv-x="512" 
 />
    <glyph glyph-name="asteriskmath" unicode="&#x2217;" horiz-adv-x="512" 
 />
    <glyph glyph-name="uni2218" unicode="&#x2218;" horiz-adv-x="512" 
 />
    <glyph glyph-name="uni2219" unicode="&#x2219;" horiz-adv-x="512" 
 />
    <glyph glyph-name="radical" unicode="&#x221a;" 
 />
    <glyph glyph-name="uni221B" unicode="&#x221b;" horiz-adv-x="512" 
 />
    <glyph glyph-name="uni221C" unicode="&#x221c;" horiz-adv-x="512" 
 />
    <glyph glyph-name="proportional" unicode="&#x221d;" 
 />
    <glyph glyph-name="infinity" unicode="&#x221e;" 
 />
    <glyph glyph-name="orthogonal" unicode="&#x221f;" 
 />
    <glyph glyph-name="angle" unicode="&#x2220;" 
 />
    <glyph glyph-name="uni2221" unicode="&#x2221;" horiz-adv-x="512" 
 />
    <glyph glyph-name="uni2222" unicode="&#x2222;" horiz-adv-x="512" 
 />
    <glyph glyph-name="uni2223" unicode="&#x2223;" horiz-adv-x="512" 
 />
    <glyph glyph-name="uni2224" unicode="&#x2224;" horiz-adv-x="512" 
 />
    <glyph glyph-name="uni2225" unicode="&#x2225;" 
 />
    <glyph glyph-name="uni2226" unicode="&#x2226;" horiz-adv-x="512" 
 />
    <glyph glyph-name="logicaland" unicode="&#x2227;" 
 />
    <glyph glyph-name="logicalor" unicode="&#x2228;" 
 />
    <glyph glyph-name="intersection" unicode="&#x2229;" 
 />
    <glyph glyph-name="union" unicode="&#x222a;" 
 />
    <glyph glyph-name="integral" unicode="&#x222b;" 
 />
    <glyph glyph-name="uni222C" unicode="&#x222c;" 
 />
    <glyph glyph-name="uni222D" unicode="&#x222d;" horiz-adv-x="512" 
 />
    <glyph glyph-name="uni222E" unicode="&#x222e;" 
 />
    <glyph glyph-name="uni222F" unicode="&#x222f;" horiz-adv-x="512" 
 />
    <glyph glyph-name="uni2230" unicode="&#x2230;" horiz-adv-x="512" 
 />
    <glyph glyph-name="uni2231" unicode="&#x2231;" horiz-adv-x="512" 
 />
    <glyph glyph-name="uni2232" unicode="&#x2232;" horiz-adv-x="512" 
 />
    <glyph glyph-name="uni2233" unicode="&#x2233;" horiz-adv-x="512" 
 />
    <glyph glyph-name="therefore" unicode="&#x2234;" 
 />
    <glyph glyph-name="uni2235" unicode="&#x2235;" 
 />
    <glyph glyph-name="uni2236" unicode="&#x2236;" horiz-adv-x="512" 
 />
    <glyph glyph-name="uni2237" unicode="&#x2237;" horiz-adv-x="512" 
 />
    <glyph glyph-name="uni2238" unicode="&#x2238;" horiz-adv-x="512" 
 />
    <glyph glyph-name="uni2239" unicode="&#x2239;" horiz-adv-x="512" 
 />
    <glyph glyph-name="uni223A" unicode="&#x223a;" horiz-adv-x="512" 
 />
    <glyph glyph-name="uni223B" unicode="&#x223b;" horiz-adv-x="512" 
 />
    <glyph glyph-name="similar" unicode="&#x223c;" horiz-adv-x="512" 
 />
    <glyph glyph-name="uni223D" unicode="&#x223d;" 
 />
    <glyph glyph-name="uni223E" unicode="&#x223e;" horiz-adv-x="512" 
 />
    <glyph glyph-name="uni223F" unicode="&#x223f;" horiz-adv-x="512" 
 />
    <glyph glyph-name="uni2240" unicode="&#x2240;" horiz-adv-x="512" 
 />
    <glyph glyph-name="uni2241" unicode="&#x2241;" horiz-adv-x="512" 
 />
    <glyph glyph-name="uni2242" unicode="&#x2242;" horiz-adv-x="512" 
 />
    <glyph glyph-name="uni2243" unicode="&#x2243;" horiz-adv-x="512" 
 />
    <glyph glyph-name="uni2244" unicode="&#x2244;" horiz-adv-x="512" 
 />
    <glyph glyph-name="congruent" unicode="&#x2245;" horiz-adv-x="512" 
 />
    <glyph glyph-name="uni2246" unicode="&#x2246;" horiz-adv-x="512" 
 />
    <glyph glyph-name="uni2247" unicode="&#x2247;" horiz-adv-x="512" 
 />
    <glyph glyph-name="approxequal" unicode="&#x2248;" horiz-adv-x="512" 
 />
    <glyph glyph-name="uni2249" unicode="&#x2249;" horiz-adv-x="512" 
 />
    <glyph glyph-name="uni224A" unicode="&#x224a;" horiz-adv-x="512" 
 />
    <glyph glyph-name="uni224B" unicode="&#x224b;" horiz-adv-x="512" 
 />
    <glyph glyph-name="uni224C" unicode="&#x224c;" horiz-adv-x="512" 
 />
    <glyph glyph-name="uni224D" unicode="&#x224d;" horiz-adv-x="512" 
 />
    <glyph glyph-name="uni224E" unicode="&#x224e;" horiz-adv-x="512" 
 />
    <glyph glyph-name="uni224F" unicode="&#x224f;" horiz-adv-x="512" 
 />
    <glyph glyph-name="uni2250" unicode="&#x2250;" horiz-adv-x="512" 
 />
    <glyph glyph-name="uni2251" unicode="&#x2251;" horiz-adv-x="512" 
 />
    <glyph glyph-name="uni2252" unicode="&#x2252;" 
 />
    <glyph glyph-name="uni2253" unicode="&#x2253;" horiz-adv-x="512" 
 />
    <glyph glyph-name="uni2254" unicode="&#x2254;" horiz-adv-x="512" 
 />
    <glyph glyph-name="uni2255" unicode="&#x2255;" horiz-adv-x="512" 
 />
    <glyph glyph-name="uni2256" unicode="&#x2256;" horiz-adv-x="512" 
 />
    <glyph glyph-name="uni2257" unicode="&#x2257;" horiz-adv-x="512" 
 />
    <glyph glyph-name="uni2258" unicode="&#x2258;" horiz-adv-x="512" 
 />
    <glyph glyph-name="uni2259" unicode="&#x2259;" horiz-adv-x="512" 
 />
    <glyph glyph-name="uni225A" unicode="&#x225a;" horiz-adv-x="512" 
 />
    <glyph glyph-name="uni225B" unicode="&#x225b;" horiz-adv-x="512" 
 />
    <glyph glyph-name="uni225C" unicode="&#x225c;" horiz-adv-x="512" 
 />
    <glyph glyph-name="uni225D" unicode="&#x225d;" horiz-adv-x="512" 
 />
    <glyph glyph-name="uni225E" unicode="&#x225e;" horiz-adv-x="512" 
 />
    <glyph glyph-name="uni225F" unicode="&#x225f;" horiz-adv-x="512" 
 />
    <glyph glyph-name="notequal" unicode="&#x2260;" 
 />
    <glyph glyph-name="equivalence" unicode="&#x2261;" 
 />
    <glyph glyph-name="uni2262" unicode="&#x2262;" horiz-adv-x="512" 
 />
    <glyph glyph-name="uni2263" unicode="&#x2263;" horiz-adv-x="512" 
 />
    <glyph glyph-name="lessequal" unicode="&#x2264;" horiz-adv-x="512" 
 />
    <glyph glyph-name="greaterequal" unicode="&#x2265;" horiz-adv-x="512" 
 />
    <glyph glyph-name="uni2266" unicode="&#x2266;" 
 />
    <glyph glyph-name="uni2267" unicode="&#x2267;" 
 />
    <glyph glyph-name="uni2268" unicode="&#x2268;" horiz-adv-x="512" 
 />
    <glyph glyph-name="uni2269" unicode="&#x2269;" horiz-adv-x="512" 
 />
    <glyph glyph-name="uni226A" unicode="&#x226a;" 
 />
    <glyph glyph-name="uni226B" unicode="&#x226b;" 
 />
    <glyph glyph-name="uni226C" unicode="&#x226c;" horiz-adv-x="512" 
 />
    <glyph glyph-name="uni226D" unicode="&#x226d;" horiz-adv-x="512" 
 />
    <glyph glyph-name="uni226E" unicode="&#x226e;" horiz-adv-x="512" 
 />
    <glyph glyph-name="uni226F" unicode="&#x226f;" horiz-adv-x="512" 
 />
    <glyph glyph-name="uni2270" unicode="&#x2270;" horiz-adv-x="512" 
 />
    <glyph glyph-name="uni2271" unicode="&#x2271;" horiz-adv-x="512" 
 />
    <glyph glyph-name="uni2272" unicode="&#x2272;" horiz-adv-x="512" 
 />
    <glyph glyph-name="uni2273" unicode="&#x2273;" horiz-adv-x="512" 
 />
    <glyph glyph-name="uni2274" unicode="&#x2274;" horiz-adv-x="512" 
 />
    <glyph glyph-name="uni2275" unicode="&#x2275;" horiz-adv-x="512" 
 />
    <glyph glyph-name="uni2276" unicode="&#x2276;" horiz-adv-x="512" 
 />
    <glyph glyph-name="uni2277" unicode="&#x2277;" horiz-adv-x="512" 
 />
    <glyph glyph-name="uni2278" unicode="&#x2278;" horiz-adv-x="512" 
 />
    <glyph glyph-name="uni2279" unicode="&#x2279;" horiz-adv-x="512" 
 />
    <glyph glyph-name="uni227A" unicode="&#x227a;" horiz-adv-x="512" 
 />
    <glyph glyph-name="uni227B" unicode="&#x227b;" horiz-adv-x="512" 
 />
    <glyph glyph-name="uni227C" unicode="&#x227c;" horiz-adv-x="512" 
 />
    <glyph glyph-name="uni227D" unicode="&#x227d;" horiz-adv-x="512" 
 />
    <glyph glyph-name="uni227E" unicode="&#x227e;" horiz-adv-x="512" 
 />
    <glyph glyph-name="uni227F" unicode="&#x227f;" horiz-adv-x="512" 
 />
    <glyph glyph-name="uni2280" unicode="&#x2280;" horiz-adv-x="512" 
 />
    <glyph glyph-name="uni2281" unicode="&#x2281;" horiz-adv-x="512" 
 />
    <glyph glyph-name="propersubset" unicode="&#x2282;" 
 />
    <glyph glyph-name="propersuperset" unicode="&#x2283;" 
 />
    <glyph glyph-name="notsubset" unicode="&#x2284;" horiz-adv-x="512" 
 />
    <glyph glyph-name="uni2285" unicode="&#x2285;" horiz-adv-x="512" 
 />
    <glyph glyph-name="reflexsubset" unicode="&#x2286;" 
 />
    <glyph glyph-name="reflexsuperset" unicode="&#x2287;" 
 />
    <glyph glyph-name="uni2288" unicode="&#x2288;" horiz-adv-x="512" 
 />
    <glyph glyph-name="uni2289" unicode="&#x2289;" horiz-adv-x="512" 
 />
    <glyph glyph-name="uni228A" unicode="&#x228a;" horiz-adv-x="512" 
 />
    <glyph glyph-name="uni228B" unicode="&#x228b;" horiz-adv-x="512" 
 />
    <glyph glyph-name="uni228C" unicode="&#x228c;" horiz-adv-x="512" 
 />
    <glyph glyph-name="uni228D" unicode="&#x228d;" horiz-adv-x="512" 
 />
    <glyph glyph-name="uni228E" unicode="&#x228e;" horiz-adv-x="512" 
 />
    <glyph glyph-name="uni228F" unicode="&#x228f;" horiz-adv-x="512" 
 />
    <glyph glyph-name="uni2290" unicode="&#x2290;" horiz-adv-x="512" 
 />
    <glyph glyph-name="uni2291" unicode="&#x2291;" horiz-adv-x="512" 
 />
    <glyph glyph-name="uni2292" unicode="&#x2292;" horiz-adv-x="512" 
 />
    <glyph glyph-name="uni2293" unicode="&#x2293;" horiz-adv-x="512" 
 />
    <glyph glyph-name="uni2294" unicode="&#x2294;" horiz-adv-x="512" 
 />
    <glyph glyph-name="circleplus" unicode="&#x2295;" horiz-adv-x="512" 
 />
    <glyph glyph-name="uni2296" unicode="&#x2296;" horiz-adv-x="512" 
 />
    <glyph glyph-name="circlemultiply" unicode="&#x2297;" horiz-adv-x="512" 
 />
    <glyph glyph-name="uni2298" unicode="&#x2298;" horiz-adv-x="512" 
 />
    <glyph glyph-name="uni2299" unicode="&#x2299;" horiz-adv-x="512" 
 />
    <glyph glyph-name="uni229A" unicode="&#x229a;" horiz-adv-x="512" 
 />
    <glyph glyph-name="uni229B" unicode="&#x229b;" horiz-adv-x="512" 
 />
    <glyph glyph-name="uni229C" unicode="&#x229c;" horiz-adv-x="512" 
 />
    <glyph glyph-name="uni229D" unicode="&#x229d;" horiz-adv-x="512" 
 />
    <glyph glyph-name="uni229E" unicode="&#x229e;" horiz-adv-x="512" 
 />
    <glyph glyph-name="uni229F" unicode="&#x229f;" horiz-adv-x="512" 
 />
    <glyph glyph-name="uni22A0" unicode="&#x22a0;" horiz-adv-x="512" 
 />
    <glyph glyph-name="uni22A1" unicode="&#x22a1;" horiz-adv-x="512" 
 />
    <glyph glyph-name="uni22A2" unicode="&#x22a2;" horiz-adv-x="512" 
 />
    <glyph glyph-name="uni22A3" unicode="&#x22a3;" horiz-adv-x="512" 
 />
    <glyph glyph-name="uni22A4" unicode="&#x22a4;" horiz-adv-x="512" 
 />
    <glyph glyph-name="perpendicular" unicode="&#x22a5;" 
 />
    <glyph glyph-name="uni22A6" unicode="&#x22a6;" horiz-adv-x="512" 
 />
    <glyph glyph-name="uni22A7" unicode="&#x22a7;" horiz-adv-x="512" 
 />
    <glyph glyph-name="uni22A8" unicode="&#x22a8;" horiz-adv-x="512" 
 />
    <glyph glyph-name="uni22A9" unicode="&#x22a9;" horiz-adv-x="512" 
 />
    <glyph glyph-name="uni22AA" unicode="&#x22aa;" horiz-adv-x="512" 
 />
    <glyph glyph-name="uni22AB" unicode="&#x22ab;" horiz-adv-x="512" 
 />
    <glyph glyph-name="uni22AC" unicode="&#x22ac;" horiz-adv-x="512" 
 />
    <glyph glyph-name="uni22AD" unicode="&#x22ad;" horiz-adv-x="512" 
 />
    <glyph glyph-name="uni22AE" unicode="&#x22ae;" horiz-adv-x="512" 
 />
    <glyph glyph-name="uni22AF" unicode="&#x22af;" horiz-adv-x="512" 
 />
    <glyph glyph-name="uni22B0" unicode="&#x22b0;" horiz-adv-x="512" 
 />
    <glyph glyph-name="uni22B1" unicode="&#x22b1;" horiz-adv-x="512" 
 />
    <glyph glyph-name="uni22B2" unicode="&#x22b2;" horiz-adv-x="512" 
 />
    <glyph glyph-name="uni22B3" unicode="&#x22b3;" horiz-adv-x="512" 
 />
    <glyph glyph-name="uni22B4" unicode="&#x22b4;" horiz-adv-x="512" 
 />
    <glyph glyph-name="uni22B5" unicode="&#x22b5;" horiz-adv-x="512" 
 />
    <glyph glyph-name="uni22B6" unicode="&#x22b6;" horiz-adv-x="512" 
 />
    <glyph glyph-name="uni22B7" unicode="&#x22b7;" horiz-adv-x="512" 
 />
    <glyph glyph-name="uni22B8" unicode="&#x22b8;" horiz-adv-x="512" 
 />
    <glyph glyph-name="uni22B9" unicode="&#x22b9;" horiz-adv-x="512" 
 />
    <glyph glyph-name="uni22BA" unicode="&#x22ba;" horiz-adv-x="512" 
 />
    <glyph glyph-name="uni22BB" unicode="&#x22bb;" horiz-adv-x="512" 
 />
    <glyph glyph-name="uni22BC" unicode="&#x22bc;" horiz-adv-x="512" 
 />
    <glyph glyph-name="uni22BD" unicode="&#x22bd;" horiz-adv-x="512" 
 />
    <glyph glyph-name="uni22BE" unicode="&#x22be;" horiz-adv-x="512" 
 />
    <glyph glyph-name="uni22BF" unicode="&#x22bf;" 
 />
    <glyph glyph-name="uni22C0" unicode="&#x22c0;" horiz-adv-x="512" 
 />
    <glyph glyph-name="uni22C1" unicode="&#x22c1;" horiz-adv-x="512" 
 />
    <glyph glyph-name="uni22C2" unicode="&#x22c2;" horiz-adv-x="512" 
 />
    <glyph glyph-name="uni22C3" unicode="&#x22c3;" horiz-adv-x="512" 
 />
    <glyph glyph-name="uni22C4" unicode="&#x22c4;" horiz-adv-x="512" 
 />
    <glyph glyph-name="dotmath" unicode="&#x22c5;" horiz-adv-x="512" 
 />
    <glyph glyph-name="uni22C6" unicode="&#x22c6;" horiz-adv-x="512" 
 />
    <glyph glyph-name="uni22C7" unicode="&#x22c7;" horiz-adv-x="512" 
 />
    <glyph glyph-name="uni22C8" unicode="&#x22c8;" horiz-adv-x="512" 
 />
    <glyph glyph-name="uni22C9" unicode="&#x22c9;" horiz-adv-x="512" 
 />
    <glyph glyph-name="uni22CA" unicode="&#x22ca;" horiz-adv-x="512" 
 />
    <glyph glyph-name="uni22CB" unicode="&#x22cb;" horiz-adv-x="512" 
 />
    <glyph glyph-name="uni22CC" unicode="&#x22cc;" horiz-adv-x="512" 
 />
    <glyph glyph-name="uni22CD" unicode="&#x22cd;" horiz-adv-x="512" 
 />
    <glyph glyph-name="uni22CE" unicode="&#x22ce;" horiz-adv-x="512" 
 />
    <glyph glyph-name="uni22CF" unicode="&#x22cf;" horiz-adv-x="512" 
 />
    <glyph glyph-name="uni22D0" unicode="&#x22d0;" horiz-adv-x="512" 
 />
    <glyph glyph-name="uni22D1" unicode="&#x22d1;" horiz-adv-x="512" 
 />
    <glyph glyph-name="uni22D2" unicode="&#x22d2;" horiz-adv-x="512" 
 />
    <glyph glyph-name="uni22D3" unicode="&#x22d3;" horiz-adv-x="512" 
 />
    <glyph glyph-name="uni22D4" unicode="&#x22d4;" horiz-adv-x="512" 
 />
    <glyph glyph-name="uni22D5" unicode="&#x22d5;" horiz-adv-x="512" 
 />
    <glyph glyph-name="uni22D6" unicode="&#x22d6;" horiz-adv-x="512" 
 />
    <glyph glyph-name="uni22D7" unicode="&#x22d7;" horiz-adv-x="512" 
 />
    <glyph glyph-name="uni22D8" unicode="&#x22d8;" horiz-adv-x="512" 
 />
    <glyph glyph-name="uni22D9" unicode="&#x22d9;" horiz-adv-x="512" 
 />
    <glyph glyph-name="uni22DA" unicode="&#x22da;" horiz-adv-x="512" 
 />
    <glyph glyph-name="uni22DB" unicode="&#x22db;" horiz-adv-x="512" 
 />
    <glyph glyph-name="uni22DC" unicode="&#x22dc;" horiz-adv-x="512" 
 />
    <glyph glyph-name="uni22DD" unicode="&#x22dd;" horiz-adv-x="512" 
 />
    <glyph glyph-name="uni22DE" unicode="&#x22de;" horiz-adv-x="512" 
 />
    <glyph glyph-name="uni22DF" unicode="&#x22df;" horiz-adv-x="512" 
 />
    <glyph glyph-name="uni22E0" unicode="&#x22e0;" horiz-adv-x="512" 
 />
    <glyph glyph-name="uni22E1" unicode="&#x22e1;" horiz-adv-x="512" 
 />
    <glyph glyph-name="uni22E2" unicode="&#x22e2;" horiz-adv-x="512" 
 />
    <glyph glyph-name="uni22E3" unicode="&#x22e3;" horiz-adv-x="512" 
 />
    <glyph glyph-name="uni22E4" unicode="&#x22e4;" horiz-adv-x="512" 
 />
    <glyph glyph-name="uni22E5" unicode="&#x22e5;" horiz-adv-x="512" 
 />
    <glyph glyph-name="uni22E6" unicode="&#x22e6;" horiz-adv-x="512" 
 />
    <glyph glyph-name="uni22E7" unicode="&#x22e7;" horiz-adv-x="512" 
 />
    <glyph glyph-name="uni22E8" unicode="&#x22e8;" horiz-adv-x="512" 
 />
    <glyph glyph-name="uni22E9" unicode="&#x22e9;" horiz-adv-x="512" 
 />
    <glyph glyph-name="uni22EA" unicode="&#x22ea;" horiz-adv-x="512" 
 />
    <glyph glyph-name="uni22EB" unicode="&#x22eb;" horiz-adv-x="512" 
 />
    <glyph glyph-name="uni22EC" unicode="&#x22ec;" horiz-adv-x="512" 
 />
    <glyph glyph-name="uni22ED" unicode="&#x22ed;" horiz-adv-x="512" 
 />
    <glyph glyph-name="uni22EE" unicode="&#x22ee;" horiz-adv-x="512" 
 />
    <glyph glyph-name="uni22EF" unicode="&#x22ef;" horiz-adv-x="512" 
 />
    <glyph glyph-name="uni22F0" unicode="&#x22f0;" horiz-adv-x="512" 
 />
    <glyph glyph-name="uni22F1" unicode="&#x22f1;" horiz-adv-x="512" 
 />
    <glyph glyph-name="house" unicode="&#x2302;" horiz-adv-x="512" 
 />
    <glyph glyph-name="revlogicalnot" unicode="&#x2310;" horiz-adv-x="512" 
 />
    <glyph glyph-name="uni2312" unicode="&#x2312;" 
 />
    <glyph glyph-name="integraltp" unicode="&#x2320;" horiz-adv-x="512" 
 />
    <glyph glyph-name="integralbt" unicode="&#x2321;" horiz-adv-x="512" 
 />
    <glyph glyph-name="uni2460" unicode="&#x2460;" 
d="M418 575l-15 -25l-16 10l130 222v-821h-19v588q-14 -10 -31 -10q-7 0 -14 2q-27 8 -35 34zM498 570v142l-67 -115q-4 -31 26 -43q26 -6 41 16zM508 -115q-201 3 -340.5 142t-141.5 340q2 201 141 340.5t341 141.5q201 -2 340 -141.5t142 -340.5q-3 -201 -142.5 -340
t-339.5 -142zM508 830q-194 -2 -327.5 -136t-135.5 -327q2 -193 136 -326.5t327 -136.5q193 3 326.5 136.5t136.5 326.5q-3 194 -136.5 327.5t-326.5 135.5z" />
    <glyph glyph-name="uni2461" unicode="&#x2461;" 
d="M510 761q-83 -3 -134 -65.5t-51 -144.5h-19q-1 90 56 158t148 71q91 -3 147.5 -71t56.5 -158q-4 -140 -127 -211q-79 -45 -130 -118.5t-73 -160.5q9 3 19 1q22 -3 37 -20q13 -18 11 -41q-2 -10 -7 -21h222v-19h-320l1 11q12 118 69.5 221.5t161.5 163.5q113 65 117 194
q0 82 -51 144.5t-134 65.5zM402 48q-12 2 -22 -3q-8 -32 -12 -65h58q9 10 11 23q2 17 -8 30q-11 13 -27 15zM531 420q43 14 64.5 52t22.5 80q1 50 -26.5 92t-79.5 44q-54 -2 -85 -43t-30 -93h-16q-1 59 34.5 104.5t96.5 47.5q58 -3 90.5 -49t31.5 -103q0 -48 -25.5 -90.5
t-74.5 -57.5zM510 -115q-201 3 -340 142t-142 340q3 201 142 340.5t340 141.5q201 -2 340.5 -141t141.5 -341q-2 -201 -141.5 -340t-340.5 -142zM510 830q-193 -2 -326.5 -136t-136.5 -327q3 -193 136.5 -326.5t326.5 -136.5q193 3 327 136.5t136 326.5q-2 194 -136 327.5
t-327 135.5z" />
    <glyph glyph-name="uni2462" unicode="&#x2462;" 
d="M581 32v327h-209v19h209v322h-51v57h-153v19h223v-817h-223v19h153v54h51zM540 23v-45h41v45h-41zM540 710h41v47h-41v-47zM511 -115q-201 3 -340.5 142t-141.5 340q2 202 141.5 341t340.5 141q201 -2 340 -141.5t142 -340.5q-3 -201 -142 -340t-340 -142zM511 830
q-193 -2 -327 -135.5t-136 -327.5q2 -193 136 -326.5t327 -136.5q193 3 326.5 136.5t136.5 326.5q-3 193 -136.5 327t-326.5 136z" />
    <glyph glyph-name="uni2463" unicode="&#x2463;" 
d="M519 -115q-202 3 -341 142t-141 340q2 201 141 340.5t341 141.5q200 -2 339.5 -141t142.5 -341q-3 -201 -142.5 -340t-339.5 -142zM519 830q-194 -2 -327.5 -136t-135.5 -327q2 -193 135.5 -326.5t327.5 -136.5q192 3 326 136.5t137 326.5q-3 194 -137 327.5t-326 135.5z
M585 -40v0v289h-299l318 559v-540h83v-19h-83v-289h-19zM354 330l-35 -62h85q7 10 9 21q1 17 -9 30q-11 13 -27 15q-12 2 -23 -4zM421 268h164v468l-221 -388q8 2 15 0q22 -2 37 -20q13 -18 11 -41q-2 -9 -6 -19z" />
    <glyph glyph-name="uni2464" unicode="&#x2464;" 
d="M696 384l-197 -457l-143 241l16 10l74 -124q14 25 44 26h1q26 -1 42 -24l134 309h-264v418h19v-88h219v-19h-219v-292h274zM455 39l41 -70l30 70q-9 25 -35 26h-1q-27 -1 -35 -26zM513 -115q-201 3 -340.5 142t-141.5 340q2 201 141.5 340.5t340.5 141.5
q201 -2 340.5 -141.5t141.5 -340.5q-3 -201 -142 -340t-340 -142zM513 830q-194 -2 -327.5 -135.5t-135.5 -327.5q2 -193 136 -326.5t327 -136.5q193 3 327 136.5t136 326.5q-2 194 -136 327.5t-327 135.5z" />
    <glyph glyph-name="uni2465" unicode="&#x2465;" 
d="M510 -115q-201 3 -340.5 142t-141.5 340q2 201 141.5 340.5t340.5 141.5q201 -2 340 -141.5t142 -340.5q-3 -201 -142 -340t-340 -142zM510 830q-194 -2 -327.5 -135.5t-135.5 -327.5q2 -193 136 -326.5t327 -136.5q193 3 326.5 136.5t136.5 326.5q-3 193 -136.5 327
t-326.5 136zM370 139q0 52 36 88t88 36t87.5 -36t36.5 -88q-1 -52 -36.5 -87.5t-87.5 -37.5q-52 2 -88 37.5t-36 87.5zM604 139q0 46 -32 78t-78 32t-78 -32t-32 -78t32 -77.5t78 -32.5q46 1 78 32.5t32 77.5zM304 139q1 79 55.5 134t134.5 56q79 -1 134 -56t56 -134
q-1 -79 -56 -134t-134 -56q-80 1 -134.5 56t-55.5 134zM665 139q-1 71 -50.5 120.5t-120.5 50.5q-72 -1 -121 -50.5t-50 -120.5q1 -71 50 -120.5t121 -50.5q71 1 120.5 50.5t50.5 120.5zM613 768q-118 -75 -196.5 -192t-98.5 -257l-19 1q20 144 100.5 265t203.5 199z" />
    <glyph glyph-name="uni2466" unicode="&#x2466;" 
d="M549 736q2 12 10 22h-219v19h362l-12 -15q-58 -86 -96 -182.5t-61.5 -197t-34.5 -203.5t-11 -207h-19q-1 181 33.5 359t113.5 341q-6 -1 -12 -1q-5 0 -10 1q-23 4 -35 23q-13 19 -9 41zM625 691q17 35 39 67h-85q-13 -9 -16 -25t7 -30q9 -13 26 -17q15 -3 29 5zM510 -115
q-201 3 -340.5 142t-141.5 340q2 201 141.5 340.5t340.5 141.5q201 -2 340 -141.5t142 -340.5q-3 -201 -142 -340t-340 -142zM510 830q-194 -2 -327.5 -135.5t-135.5 -327.5q2 -193 136 -326.5t327 -136.5q193 3 326.5 136.5t136.5 326.5q-3 193 -136.5 327t-326.5 136z" />
    <glyph glyph-name="uni2467" unicode="&#x2467;" 
d="M623 775v-821h-224v821h224zM604 -27v44h-42v-44h42zM562 756v-45h42v45h-42zM553 756h-135v-380h186v326h-51v54zM418 357v-384h135v53h51v331h-186zM510 -115q-201 3 -340 142t-142 340q3 201 142 340.5t340 141.5q201 -2 340.5 -141t141.5 -341q-2 -201 -141.5 -340
t-340.5 -142zM510 830q-193 -2 -326.5 -136t-136.5 -327q3 -193 136.5 -326.5t326.5 -136.5q193 3 327 136.5t136 326.5q-2 194 -136 327.5t-327 135.5z" />
    <glyph glyph-name="uni2468" unicode="&#x2468;" 
d="M507 -115q-201 3 -340.5 142t-141.5 340q2 202 141 341t341 141q201 -2 340 -141.5t142 -340.5q-3 -201 -142 -340t-340 -142zM507 830q-194 -2 -327.5 -135.5t-135.5 -327.5q2 -193 136 -326.5t327 -136.5q193 3 326.5 136.5t136.5 326.5q-3 193 -136.5 327t-326.5 136z
M470 411q-68 13 -112.5 65.5t-44.5 121.5q1 80 56 135t135 56q78 -1 133 -56t57 -135q-2 -79 -57 -134t-133 -56q-8 1 -14 1q-21 -78 -21 -158t10.5 -159.5t30.5 -157.5l-19 -5q-20 79 -31 159.5t-11 162t21 160.5zM504 427q64 1 112 43.5t57 106.5q-91 -8 -143 -81
q-23 -31 -34 -68q3 0 8 -1zM504 770q-72 -1 -121.5 -50.5t-50.5 -121.5q0 -63 40.5 -110t103.5 -58q14 41 38 77q59 81 161 89q-1 2 0 2q-2 72 -51.5 121.5t-119.5 50.5z" />
    <glyph glyph-name="uni2469" unicode="&#x2469;" 
 />
    <glyph glyph-name="uni246A" unicode="&#x246a;" 
 />
    <glyph glyph-name="uni246B" unicode="&#x246b;" 
 />
    <glyph glyph-name="uni246C" unicode="&#x246c;" 
 />
    <glyph glyph-name="uni246D" unicode="&#x246d;" 
 />
    <glyph glyph-name="uni246E" unicode="&#x246e;" 
 />
    <glyph glyph-name="uni246F" unicode="&#x246f;" 
 />
    <glyph glyph-name="uni2470" unicode="&#x2470;" 
 />
    <glyph glyph-name="uni2471" unicode="&#x2471;" 
 />
    <glyph glyph-name="uni2472" unicode="&#x2472;" 
 />
    <glyph glyph-name="uni2473" unicode="&#x2473;" 
 />
    <glyph glyph-name="uni2474" unicode="&#x2474;" 
 />
    <glyph glyph-name="uni2475" unicode="&#x2475;" 
 />
    <glyph glyph-name="uni2476" unicode="&#x2476;" 
 />
    <glyph glyph-name="uni2477" unicode="&#x2477;" 
 />
    <glyph glyph-name="uni2478" unicode="&#x2478;" 
 />
    <glyph glyph-name="uni2479" unicode="&#x2479;" 
 />
    <glyph glyph-name="uni247A" unicode="&#x247a;" 
 />
    <glyph glyph-name="uni247B" unicode="&#x247b;" 
 />
    <glyph glyph-name="uni247C" unicode="&#x247c;" 
 />
    <glyph glyph-name="uni247D" unicode="&#x247d;" 
 />
    <glyph glyph-name="uni247E" unicode="&#x247e;" 
 />
    <glyph glyph-name="uni247F" unicode="&#x247f;" 
 />
    <glyph glyph-name="uni2480" unicode="&#x2480;" 
 />
    <glyph glyph-name="uni2481" unicode="&#x2481;" 
 />
    <glyph glyph-name="uni2482" unicode="&#x2482;" 
 />
    <glyph glyph-name="uni2483" unicode="&#x2483;" 
 />
    <glyph glyph-name="uni2484" unicode="&#x2484;" 
 />
    <glyph glyph-name="uni2485" unicode="&#x2485;" 
 />
    <glyph glyph-name="uni2486" unicode="&#x2486;" 
 />
    <glyph glyph-name="uni2487" unicode="&#x2487;" 
 />
    <glyph glyph-name="uni2488" unicode="&#x2488;" 
 />
    <glyph glyph-name="uni2489" unicode="&#x2489;" 
 />
    <glyph glyph-name="uni248A" unicode="&#x248a;" 
 />
    <glyph glyph-name="uni248B" unicode="&#x248b;" 
 />
    <glyph glyph-name="uni248C" unicode="&#x248c;" 
 />
    <glyph glyph-name="uni248D" unicode="&#x248d;" 
 />
    <glyph glyph-name="uni248E" unicode="&#x248e;" 
 />
    <glyph glyph-name="uni248F" unicode="&#x248f;" 
 />
    <glyph glyph-name="uni2490" unicode="&#x2490;" 
 />
    <glyph glyph-name="uni2491" unicode="&#x2491;" 
 />
    <glyph glyph-name="uni2492" unicode="&#x2492;" 
 />
    <glyph glyph-name="uni2493" unicode="&#x2493;" 
 />
    <glyph glyph-name="uni2494" unicode="&#x2494;" 
 />
    <glyph glyph-name="uni2495" unicode="&#x2495;" 
 />
    <glyph glyph-name="uni2496" unicode="&#x2496;" 
 />
    <glyph glyph-name="uni2497" unicode="&#x2497;" 
 />
    <glyph glyph-name="uni2498" unicode="&#x2498;" 
 />
    <glyph glyph-name="uni2499" unicode="&#x2499;" 
 />
    <glyph glyph-name="uni249A" unicode="&#x249a;" 
 />
    <glyph glyph-name="uni249B" unicode="&#x249b;" 
 />
    <glyph glyph-name="uni249C" unicode="&#x249c;" 
 />
    <glyph glyph-name="uni249D" unicode="&#x249d;" 
 />
    <glyph glyph-name="uni249E" unicode="&#x249e;" 
 />
    <glyph glyph-name="uni249F" unicode="&#x249f;" 
 />
    <glyph glyph-name="uni24A0" unicode="&#x24a0;" 
 />
    <glyph glyph-name="uni24A1" unicode="&#x24a1;" 
 />
    <glyph glyph-name="uni24A2" unicode="&#x24a2;" 
 />
    <glyph glyph-name="uni24A3" unicode="&#x24a3;" 
 />
    <glyph glyph-name="uni24A4" unicode="&#x24a4;" 
 />
    <glyph glyph-name="uni24A5" unicode="&#x24a5;" 
 />
    <glyph glyph-name="uni24A6" unicode="&#x24a6;" 
 />
    <glyph glyph-name="uni24A7" unicode="&#x24a7;" 
 />
    <glyph glyph-name="uni24A8" unicode="&#x24a8;" 
 />
    <glyph glyph-name="uni24A9" unicode="&#x24a9;" 
 />
    <glyph glyph-name="uni24AA" unicode="&#x24aa;" 
 />
    <glyph glyph-name="uni24AB" unicode="&#x24ab;" 
 />
    <glyph glyph-name="uni24AC" unicode="&#x24ac;" 
 />
    <glyph glyph-name="uni24AD" unicode="&#x24ad;" 
 />
    <glyph glyph-name="uni24AE" unicode="&#x24ae;" 
 />
    <glyph glyph-name="uni24AF" unicode="&#x24af;" 
 />
    <glyph glyph-name="uni24B0" unicode="&#x24b0;" 
 />
    <glyph glyph-name="uni24B1" unicode="&#x24b1;" 
 />
    <glyph glyph-name="uni24B2" unicode="&#x24b2;" 
 />
    <glyph glyph-name="uni24B3" unicode="&#x24b3;" 
 />
    <glyph glyph-name="uni24B4" unicode="&#x24b4;" 
 />
    <glyph glyph-name="uni24B5" unicode="&#x24b5;" 
 />
    <glyph glyph-name="uni24B6" unicode="&#x24b6;" 
 />
    <glyph glyph-name="uni24B7" unicode="&#x24b7;" 
 />
    <glyph glyph-name="uni24B8" unicode="&#x24b8;" 
 />
    <glyph glyph-name="uni24B9" unicode="&#x24b9;" 
 />
    <glyph glyph-name="uni24BA" unicode="&#x24ba;" 
 />
    <glyph glyph-name="uni24BB" unicode="&#x24bb;" 
 />
    <glyph glyph-name="uni24BC" unicode="&#x24bc;" 
 />
    <glyph glyph-name="uni24BD" unicode="&#x24bd;" 
 />
    <glyph glyph-name="uni24BE" unicode="&#x24be;" 
 />
    <glyph glyph-name="uni24BF" unicode="&#x24bf;" 
 />
    <glyph glyph-name="uni24C0" unicode="&#x24c0;" 
 />
    <glyph glyph-name="uni24C1" unicode="&#x24c1;" 
 />
    <glyph glyph-name="uni24C2" unicode="&#x24c2;" 
 />
    <glyph glyph-name="uni24C3" unicode="&#x24c3;" 
 />
    <glyph glyph-name="uni24C4" unicode="&#x24c4;" 
 />
    <glyph glyph-name="uni24C5" unicode="&#x24c5;" 
 />
    <glyph glyph-name="uni24C6" unicode="&#x24c6;" 
 />
    <glyph glyph-name="uni24C7" unicode="&#x24c7;" 
 />
    <glyph glyph-name="uni24C8" unicode="&#x24c8;" 
 />
    <glyph glyph-name="uni24C9" unicode="&#x24c9;" 
 />
    <glyph glyph-name="uni24CA" unicode="&#x24ca;" 
 />
    <glyph glyph-name="uni24CB" unicode="&#x24cb;" 
 />
    <glyph glyph-name="uni24CC" unicode="&#x24cc;" 
 />
    <glyph glyph-name="uni24CD" unicode="&#x24cd;" 
 />
    <glyph glyph-name="uni24CE" unicode="&#x24ce;" 
 />
    <glyph glyph-name="uni24CF" unicode="&#x24cf;" 
 />
    <glyph glyph-name="uni24D0" unicode="&#x24d0;" 
 />
    <glyph glyph-name="uni24D1" unicode="&#x24d1;" 
 />
    <glyph glyph-name="uni24D2" unicode="&#x24d2;" 
 />
    <glyph glyph-name="uni24D3" unicode="&#x24d3;" 
 />
    <glyph glyph-name="uni24D4" unicode="&#x24d4;" 
 />
    <glyph glyph-name="uni24D5" unicode="&#x24d5;" 
 />
    <glyph glyph-name="uni24D6" unicode="&#x24d6;" 
 />
    <glyph glyph-name="uni24D7" unicode="&#x24d7;" 
 />
    <glyph glyph-name="uni24D8" unicode="&#x24d8;" 
 />
    <glyph glyph-name="uni24D9" unicode="&#x24d9;" 
 />
    <glyph glyph-name="uni24DA" unicode="&#x24da;" 
 />
    <glyph glyph-name="uni24DB" unicode="&#x24db;" 
 />
    <glyph glyph-name="uni24DC" unicode="&#x24dc;" 
 />
    <glyph glyph-name="uni24DD" unicode="&#x24dd;" 
 />
    <glyph glyph-name="uni24DE" unicode="&#x24de;" 
 />
    <glyph glyph-name="uni24DF" unicode="&#x24df;" 
 />
    <glyph glyph-name="uni24E0" unicode="&#x24e0;" 
 />
    <glyph glyph-name="uni24E1" unicode="&#x24e1;" 
 />
    <glyph glyph-name="uni24E2" unicode="&#x24e2;" 
 />
    <glyph glyph-name="uni24E3" unicode="&#x24e3;" 
 />
    <glyph glyph-name="uni24E4" unicode="&#x24e4;" 
 />
    <glyph glyph-name="uni24E5" unicode="&#x24e5;" 
 />
    <glyph glyph-name="uni24E6" unicode="&#x24e6;" 
 />
    <glyph glyph-name="uni24E7" unicode="&#x24e7;" 
 />
    <glyph glyph-name="uni24E8" unicode="&#x24e8;" 
 />
    <glyph glyph-name="uni24E9" unicode="&#x24e9;" 
 />
    <glyph glyph-name="uni24EA" unicode="&#x24ea;" 
 />
    <glyph glyph-name="SF100000" unicode="&#x2500;" 
 />
    <glyph glyph-name="uni2501" unicode="&#x2501;" 
 />
    <glyph glyph-name="SF110000" unicode="&#x2502;" 
 />
    <glyph glyph-name="uni2503" unicode="&#x2503;" 
 />
    <glyph glyph-name="uni2504" unicode="&#x2504;" horiz-adv-x="512" 
 />
    <glyph glyph-name="uni2505" unicode="&#x2505;" horiz-adv-x="512" 
 />
    <glyph glyph-name="uni2506" unicode="&#x2506;" horiz-adv-x="512" 
 />
    <glyph glyph-name="uni2507" unicode="&#x2507;" horiz-adv-x="512" 
 />
    <glyph glyph-name="uni2508" unicode="&#x2508;" horiz-adv-x="512" 
 />
    <glyph glyph-name="uni2509" unicode="&#x2509;" horiz-adv-x="512" 
 />
    <glyph glyph-name="uni250A" unicode="&#x250a;" horiz-adv-x="512" 
 />
    <glyph glyph-name="uni250B" unicode="&#x250b;" horiz-adv-x="512" 
 />
    <glyph glyph-name="SF010000" unicode="&#x250c;" 
 />
    <glyph glyph-name="uni250D" unicode="&#x250d;" horiz-adv-x="512" 
 />
    <glyph glyph-name="uni250E" unicode="&#x250e;" horiz-adv-x="512" 
 />
    <glyph glyph-name="uni250F" unicode="&#x250f;" 
 />
    <glyph glyph-name="SF030000" unicode="&#x2510;" 
 />
    <glyph glyph-name="uni2511" unicode="&#x2511;" horiz-adv-x="512" 
 />
    <glyph glyph-name="uni2512" unicode="&#x2512;" horiz-adv-x="512" 
 />
    <glyph glyph-name="uni2513" unicode="&#x2513;" 
 />
    <glyph glyph-name="SF020000" unicode="&#x2514;" 
 />
    <glyph glyph-name="uni2515" unicode="&#x2515;" horiz-adv-x="512" 
 />
    <glyph glyph-name="uni2516" unicode="&#x2516;" horiz-adv-x="512" 
 />
    <glyph glyph-name="uni2517" unicode="&#x2517;" 
 />
    <glyph glyph-name="SF040000" unicode="&#x2518;" 
 />
    <glyph glyph-name="uni2519" unicode="&#x2519;" horiz-adv-x="512" 
 />
    <glyph glyph-name="uni251A" unicode="&#x251a;" horiz-adv-x="512" 
 />
    <glyph glyph-name="uni251B" unicode="&#x251b;" 
 />
    <glyph glyph-name="SF080000" unicode="&#x251c;" 
 />
    <glyph glyph-name="uni251D" unicode="&#x251d;" 
 />
    <glyph glyph-name="uni251E" unicode="&#x251e;" horiz-adv-x="512" 
 />
    <glyph glyph-name="uni251F" unicode="&#x251f;" horiz-adv-x="512" 
 />
    <glyph glyph-name="uni2520" unicode="&#x2520;" 
 />
    <glyph glyph-name="uni2521" unicode="&#x2521;" horiz-adv-x="512" 
 />
    <glyph glyph-name="uni2522" unicode="&#x2522;" horiz-adv-x="512" 
 />
    <glyph glyph-name="uni2523" unicode="&#x2523;" 
 />
    <glyph glyph-name="SF090000" unicode="&#x2524;" 
 />
    <glyph glyph-name="uni2525" unicode="&#x2525;" 
 />
    <glyph glyph-name="uni2526" unicode="&#x2526;" horiz-adv-x="512" 
 />
    <glyph glyph-name="uni2527" unicode="&#x2527;" horiz-adv-x="512" 
 />
    <glyph glyph-name="uni2528" unicode="&#x2528;" 
 />
    <glyph glyph-name="uni2529" unicode="&#x2529;" horiz-adv-x="512" 
 />
    <glyph glyph-name="uni252A" unicode="&#x252a;" horiz-adv-x="512" 
 />
    <glyph glyph-name="uni252B" unicode="&#x252b;" 
 />
    <glyph glyph-name="SF060000" unicode="&#x252c;" 
 />
    <glyph glyph-name="uni252D" unicode="&#x252d;" horiz-adv-x="512" 
 />
    <glyph glyph-name="uni252E" unicode="&#x252e;" horiz-adv-x="512" 
 />
    <glyph glyph-name="uni252F" unicode="&#x252f;" 
 />
    <glyph glyph-name="uni2530" unicode="&#x2530;" 
 />
    <glyph glyph-name="uni2531" unicode="&#x2531;" horiz-adv-x="512" 
 />
    <glyph glyph-name="uni2532" unicode="&#x2532;" horiz-adv-x="512" 
 />
    <glyph glyph-name="uni2533" unicode="&#x2533;" 
 />
    <glyph glyph-name="SF070000" unicode="&#x2534;" 
 />
    <glyph glyph-name="uni2535" unicode="&#x2535;" horiz-adv-x="512" 
 />
    <glyph glyph-name="uni2536" unicode="&#x2536;" horiz-adv-x="512" 
 />
    <glyph glyph-name="uni2537" unicode="&#x2537;" 
 />
    <glyph glyph-name="uni2538" unicode="&#x2538;" 
 />
    <glyph glyph-name="uni2539" unicode="&#x2539;" horiz-adv-x="512" 
 />
    <glyph glyph-name="uni253A" unicode="&#x253a;" horiz-adv-x="512" 
 />
    <glyph glyph-name="uni253B" unicode="&#x253b;" 
 />
    <glyph glyph-name="SF050000" unicode="&#x253c;" 
 />
    <glyph glyph-name="uni253D" unicode="&#x253d;" horiz-adv-x="512" 
 />
    <glyph glyph-name="uni253E" unicode="&#x253e;" horiz-adv-x="512" 
 />
    <glyph glyph-name="uni253F" unicode="&#x253f;" 
 />
    <glyph glyph-name="uni2540" unicode="&#x2540;" horiz-adv-x="512" 
 />
    <glyph glyph-name="uni2541" unicode="&#x2541;" horiz-adv-x="512" 
 />
    <glyph glyph-name="uni2542" unicode="&#x2542;" 
 />
    <glyph glyph-name="uni2543" unicode="&#x2543;" horiz-adv-x="512" 
 />
    <glyph glyph-name="uni2544" unicode="&#x2544;" horiz-adv-x="512" 
 />
    <glyph glyph-name="uni2545" unicode="&#x2545;" horiz-adv-x="512" 
 />
    <glyph glyph-name="uni2546" unicode="&#x2546;" horiz-adv-x="512" 
 />
    <glyph glyph-name="uni2547" unicode="&#x2547;" horiz-adv-x="512" 
 />
    <glyph glyph-name="uni2548" unicode="&#x2548;" horiz-adv-x="512" 
 />
    <glyph glyph-name="uni2549" unicode="&#x2549;" horiz-adv-x="512" 
 />
    <glyph glyph-name="uni254A" unicode="&#x254a;" horiz-adv-x="512" 
 />
    <glyph glyph-name="uni254B" unicode="&#x254b;" 
 />
    <glyph glyph-name="uni254C" unicode="&#x254c;" horiz-adv-x="512" 
 />
    <glyph glyph-name="uni254D" unicode="&#x254d;" horiz-adv-x="512" 
 />
    <glyph glyph-name="uni254E" unicode="&#x254e;" horiz-adv-x="512" 
 />
    <glyph glyph-name="uni254F" unicode="&#x254f;" horiz-adv-x="512" 
 />
    <glyph glyph-name="SF430000" unicode="&#x2550;" horiz-adv-x="512" 
 />
    <glyph glyph-name="SF240000" unicode="&#x2551;" horiz-adv-x="512" 
 />
    <glyph glyph-name="SF510000" unicode="&#x2552;" horiz-adv-x="512" 
 />
    <glyph glyph-name="SF520000" unicode="&#x2553;" horiz-adv-x="512" 
 />
    <glyph glyph-name="SF390000" unicode="&#x2554;" horiz-adv-x="512" 
 />
    <glyph glyph-name="SF220000" unicode="&#x2555;" horiz-adv-x="512" 
 />
    <glyph glyph-name="SF210000" unicode="&#x2556;" horiz-adv-x="512" 
 />
    <glyph glyph-name="SF250000" unicode="&#x2557;" horiz-adv-x="512" 
 />
    <glyph glyph-name="SF500000" unicode="&#x2558;" horiz-adv-x="512" 
 />
    <glyph glyph-name="SF490000" unicode="&#x2559;" horiz-adv-x="512" 
 />
    <glyph glyph-name="SF380000" unicode="&#x255a;" horiz-adv-x="512" 
 />
    <glyph glyph-name="SF280000" unicode="&#x255b;" horiz-adv-x="512" 
 />
    <glyph glyph-name="SF270000" unicode="&#x255c;" horiz-adv-x="512" 
 />
    <glyph glyph-name="SF260000" unicode="&#x255d;" horiz-adv-x="512" 
 />
    <glyph glyph-name="SF360000" unicode="&#x255e;" horiz-adv-x="512" 
 />
    <glyph glyph-name="SF370000" unicode="&#x255f;" horiz-adv-x="512" 
 />
    <glyph glyph-name="SF420000" unicode="&#x2560;" horiz-adv-x="512" 
 />
    <glyph glyph-name="SF190000" unicode="&#x2561;" horiz-adv-x="512" 
 />
    <glyph glyph-name="SF200000" unicode="&#x2562;" horiz-adv-x="512" 
 />
    <glyph glyph-name="SF230000" unicode="&#x2563;" horiz-adv-x="512" 
 />
    <glyph glyph-name="SF470000" unicode="&#x2564;" horiz-adv-x="512" 
 />
    <glyph glyph-name="SF480000" unicode="&#x2565;" horiz-adv-x="512" 
 />
    <glyph glyph-name="SF410000" unicode="&#x2566;" horiz-adv-x="512" 
 />
    <glyph glyph-name="SF450000" unicode="&#x2567;" horiz-adv-x="512" 
 />
    <glyph glyph-name="SF460000" unicode="&#x2568;" horiz-adv-x="512" 
 />
    <glyph glyph-name="SF400000" unicode="&#x2569;" horiz-adv-x="512" 
 />
    <glyph glyph-name="SF540000" unicode="&#x256a;" horiz-adv-x="512" 
 />
    <glyph glyph-name="SF530000" unicode="&#x256b;" horiz-adv-x="512" 
 />
    <glyph glyph-name="SF440000" unicode="&#x256c;" horiz-adv-x="512" 
 />
    <glyph glyph-name="uni256D" unicode="&#x256d;" horiz-adv-x="512" 
 />
    <glyph glyph-name="uni256E" unicode="&#x256e;" horiz-adv-x="512" 
 />
    <glyph glyph-name="uni256F" unicode="&#x256f;" horiz-adv-x="512" 
 />
    <glyph glyph-name="uni2570" unicode="&#x2570;" horiz-adv-x="512" 
 />
    <glyph glyph-name="uni2571" unicode="&#x2571;" horiz-adv-x="512" 
 />
    <glyph glyph-name="uni2572" unicode="&#x2572;" horiz-adv-x="512" 
 />
    <glyph glyph-name="uni2573" unicode="&#x2573;" horiz-adv-x="512" 
 />
    <glyph glyph-name="uni2574" unicode="&#x2574;" horiz-adv-x="512" 
 />
    <glyph glyph-name="uni2575" unicode="&#x2575;" horiz-adv-x="512" 
 />
    <glyph glyph-name="uni2576" unicode="&#x2576;" horiz-adv-x="512" 
 />
    <glyph glyph-name="uni2577" unicode="&#x2577;" horiz-adv-x="512" 
 />
    <glyph glyph-name="uni2578" unicode="&#x2578;" horiz-adv-x="512" 
 />
    <glyph glyph-name="uni2579" unicode="&#x2579;" horiz-adv-x="512" 
 />
    <glyph glyph-name="uni257A" unicode="&#x257a;" horiz-adv-x="512" 
 />
    <glyph glyph-name="uni257B" unicode="&#x257b;" horiz-adv-x="512" 
 />
    <glyph glyph-name="uni257C" unicode="&#x257c;" horiz-adv-x="512" 
 />
    <glyph glyph-name="uni257D" unicode="&#x257d;" horiz-adv-x="512" 
 />
    <glyph glyph-name="uni257E" unicode="&#x257e;" horiz-adv-x="512" 
 />
    <glyph glyph-name="uni257F" unicode="&#x257f;" horiz-adv-x="512" 
 />
    <glyph glyph-name="upblock" unicode="&#x2580;" horiz-adv-x="512" 
 />
    <glyph glyph-name="uni2581" unicode="&#x2581;" horiz-adv-x="512" 
 />
    <glyph glyph-name="uni2582" unicode="&#x2582;" horiz-adv-x="512" 
 />
    <glyph glyph-name="uni2583" unicode="&#x2583;" horiz-adv-x="512" 
 />
    <glyph glyph-name="dnblock" unicode="&#x2584;" horiz-adv-x="512" 
 />
    <glyph glyph-name="uni2585" unicode="&#x2585;" horiz-adv-x="512" 
 />
    <glyph glyph-name="uni2586" unicode="&#x2586;" horiz-adv-x="512" 
 />
    <glyph glyph-name="uni2587" unicode="&#x2587;" horiz-adv-x="512" 
 />
    <glyph glyph-name="block" unicode="&#x2588;" horiz-adv-x="512" 
 />
    <glyph glyph-name="uni2589" unicode="&#x2589;" horiz-adv-x="512" 
 />
    <glyph glyph-name="uni258A" unicode="&#x258a;" horiz-adv-x="512" 
 />
    <glyph glyph-name="uni258B" unicode="&#x258b;" horiz-adv-x="512" 
 />
    <glyph glyph-name="lfblock" unicode="&#x258c;" horiz-adv-x="512" 
 />
    <glyph glyph-name="uni258D" unicode="&#x258d;" horiz-adv-x="512" 
 />
    <glyph glyph-name="uni258E" unicode="&#x258e;" horiz-adv-x="512" 
 />
    <glyph glyph-name="uni258F" unicode="&#x258f;" horiz-adv-x="512" 
 />
    <glyph glyph-name="rtblock" unicode="&#x2590;" horiz-adv-x="512" 
 />
    <glyph glyph-name="ltshade" unicode="&#x2591;" horiz-adv-x="512" 
 />
    <glyph glyph-name="shade" unicode="&#x2592;" horiz-adv-x="512" 
 />
    <glyph glyph-name="dkshade" unicode="&#x2593;" horiz-adv-x="512" 
 />
    <glyph glyph-name="uni2594" unicode="&#x2594;" horiz-adv-x="512" 
 />
    <glyph glyph-name="uni2595" unicode="&#x2595;" horiz-adv-x="512" 
 />
    <glyph glyph-name="filledbox" unicode="&#x25a0;" 
 />
    <glyph glyph-name="H22073" unicode="&#x25a1;" 
 />
    <glyph glyph-name="uni25A2" unicode="&#x25a2;" 
 />
    <glyph glyph-name="uni25A3" unicode="&#x25a3;" 
 />
    <glyph glyph-name="uni25A4" unicode="&#x25a4;" 
 />
    <glyph glyph-name="uni25A5" unicode="&#x25a5;" 
 />
    <glyph glyph-name="uni25A6" unicode="&#x25a6;" 
 />
    <glyph glyph-name="uni25A7" unicode="&#x25a7;" 
 />
    <glyph glyph-name="uni25A8" unicode="&#x25a8;" 
 />
    <glyph glyph-name="uni25A9" unicode="&#x25a9;" 
 />
    <glyph glyph-name="H18543" unicode="&#x25aa;" 
 />
    <glyph glyph-name="H18551" unicode="&#x25ab;" 
 />
    <glyph glyph-name="filledrect" unicode="&#x25ac;" 
 />
    <glyph glyph-name="uni25AD" unicode="&#x25ad;" 
 />
    <glyph glyph-name="uni25AE" unicode="&#x25ae;" 
 />
    <glyph glyph-name="uni25AF" unicode="&#x25af;" 
 />
    <glyph glyph-name="uni25B0" unicode="&#x25b0;" 
 />
    <glyph glyph-name="uni25B1" unicode="&#x25b1;" 
 />
    <glyph glyph-name="triagup" unicode="&#x25b2;" 
 />
    <glyph glyph-name="uni25B3" unicode="&#x25b3;" 
 />
    <glyph glyph-name="uni25B4" unicode="&#x25b4;" 
 />
    <glyph glyph-name="uni25B5" unicode="&#x25b5;" 
 />
    <glyph glyph-name="uni25B6" unicode="&#x25b6;" 
 />
    <glyph glyph-name="uni25B7" unicode="&#x25b7;" 
 />
    <glyph glyph-name="uni25B8" unicode="&#x25b8;" 
 />
    <glyph glyph-name="uni25B9" unicode="&#x25b9;" 
 />
    <glyph glyph-name="triagrt" unicode="&#x25ba;" 
 />
    <glyph glyph-name="uni25BB" unicode="&#x25bb;" 
 />
    <glyph glyph-name="triagdn" unicode="&#x25bc;" 
 />
    <glyph glyph-name="uni25BD" unicode="&#x25bd;" 
 />
    <glyph glyph-name="uni25BE" unicode="&#x25be;" 
 />
    <glyph glyph-name="uni25BF" unicode="&#x25bf;" 
 />
    <glyph glyph-name="uni25C0" unicode="&#x25c0;" 
 />
    <glyph glyph-name="uni25C1" unicode="&#x25c1;" 
 />
    <glyph glyph-name="uni25C2" unicode="&#x25c2;" 
 />
    <glyph glyph-name="uni25C3" unicode="&#x25c3;" 
 />
    <glyph glyph-name="triaglf" unicode="&#x25c4;" 
 />
    <glyph glyph-name="uni25C5" unicode="&#x25c5;" 
 />
    <glyph glyph-name="uni25C6" unicode="&#x25c6;" 
 />
    <glyph glyph-name="uni25C7" unicode="&#x25c7;" 
 />
    <glyph glyph-name="uni25C8" unicode="&#x25c8;" 
 />
    <glyph glyph-name="uni25C9" unicode="&#x25c9;" 
 />
    <glyph glyph-name="lozenge" unicode="&#x25ca;" 
 />
    <glyph glyph-name="circle" unicode="&#x25cb;" 
 />
    <glyph glyph-name="uni25CC" unicode="&#x25cc;" 
 />
    <glyph glyph-name="uni25CD" unicode="&#x25cd;" 
 />
    <glyph glyph-name="uni25CE" unicode="&#x25ce;" 
 />
    <glyph glyph-name="H18533" unicode="&#x25cf;" 
 />
    <glyph glyph-name="uni25D0" unicode="&#x25d0;" 
 />
    <glyph glyph-name="uni25D1" unicode="&#x25d1;" 
 />
    <glyph glyph-name="uni25D2" unicode="&#x25d2;" 
 />
    <glyph glyph-name="uni25D3" unicode="&#x25d3;" 
 />
    <glyph glyph-name="uni25D4" unicode="&#x25d4;" 
 />
    <glyph glyph-name="uni25D5" unicode="&#x25d5;" 
 />
    <glyph glyph-name="uni25D6" unicode="&#x25d6;" 
 />
    <glyph glyph-name="uni25D7" unicode="&#x25d7;" 
 />
    <glyph glyph-name="invbullet" unicode="&#x25d8;" 
 />
    <glyph glyph-name="invcircle" unicode="&#x25d9;" 
 />
    <glyph glyph-name="uni25DA" unicode="&#x25da;" 
 />
    <glyph glyph-name="uni25DB" unicode="&#x25db;" 
 />
    <glyph glyph-name="uni25DC" unicode="&#x25dc;" 
 />
    <glyph glyph-name="uni25DD" unicode="&#x25dd;" 
 />
    <glyph glyph-name="uni25DE" unicode="&#x25de;" 
 />
    <glyph glyph-name="uni25DF" unicode="&#x25df;" 
 />
    <glyph glyph-name="uni25E0" unicode="&#x25e0;" 
 />
    <glyph glyph-name="uni25E1" unicode="&#x25e1;" 
 />
    <glyph glyph-name="uni25E2" unicode="&#x25e2;" 
 />
    <glyph glyph-name="uni25E3" unicode="&#x25e3;" 
 />
    <glyph glyph-name="uni25E4" unicode="&#x25e4;" 
 />
    <glyph glyph-name="uni25E5" unicode="&#x25e5;" 
 />
    <glyph glyph-name="openbullet" unicode="&#x25e6;" 
 />
    <glyph glyph-name="uni25E7" unicode="&#x25e7;" 
 />
    <glyph glyph-name="uni25E8" unicode="&#x25e8;" 
 />
    <glyph glyph-name="uni25E9" unicode="&#x25e9;" 
 />
    <glyph glyph-name="uni25EA" unicode="&#x25ea;" 
 />
    <glyph glyph-name="uni25EB" unicode="&#x25eb;" 
 />
    <glyph glyph-name="uni25EC" unicode="&#x25ec;" 
 />
    <glyph glyph-name="uni25ED" unicode="&#x25ed;" 
 />
    <glyph glyph-name="uni25EE" unicode="&#x25ee;" 
 />
    <glyph glyph-name="uni25EF" unicode="&#x25ef;" 
 />
    <glyph glyph-name="uni2600" unicode="&#x2600;" 
 />
    <glyph glyph-name="uni2601" unicode="&#x2601;" 
 />
    <glyph glyph-name="uni2602" unicode="&#x2602;" 
 />
    <glyph glyph-name="uni2603" unicode="&#x2603;" 
 />
    <glyph glyph-name="uni2604" unicode="&#x2604;" 
 />
    <glyph glyph-name="uni2605" unicode="&#x2605;" 
d="M516 770l76 -310h244l-198 -192l76 -311l-198 192l-198 -192l76 311l-198 192h244z" />
    <glyph glyph-name="uni2606" unicode="&#x2606;" 
 />
    <glyph glyph-name="uni2607" unicode="&#x2607;" 
 />
    <glyph glyph-name="uni2608" unicode="&#x2608;" 
 />
    <glyph glyph-name="uni2609" unicode="&#x2609;" 
 />
    <glyph glyph-name="uni260A" unicode="&#x260a;" 
 />
    <glyph glyph-name="uni260B" unicode="&#x260b;" 
 />
    <glyph glyph-name="uni260C" unicode="&#x260c;" 
 />
    <glyph glyph-name="uni260D" unicode="&#x260d;" 
 />
    <glyph glyph-name="uni260E" unicode="&#x260e;" 
 />
    <glyph glyph-name="uni260F" unicode="&#x260f;" 
 />
    <glyph glyph-name="uni2610" unicode="&#x2610;" 
 />
    <glyph glyph-name="uni2611" unicode="&#x2611;" 
 />
    <glyph glyph-name="uni2612" unicode="&#x2612;" 
 />
    <glyph glyph-name="uni2613" unicode="&#x2613;" 
 />
    <glyph glyph-name="uni261A" unicode="&#x261a;" 
 />
    <glyph glyph-name="uni261B" unicode="&#x261b;" 
 />
    <glyph glyph-name="uni261C" unicode="&#x261c;" 
 />
    <glyph glyph-name="uni261D" unicode="&#x261d;" 
 />
    <glyph glyph-name="uni261E" unicode="&#x261e;" 
 />
    <glyph glyph-name="uni261F" unicode="&#x261f;" 
 />
    <glyph glyph-name="uni2620" unicode="&#x2620;" 
 />
    <glyph glyph-name="uni2621" unicode="&#x2621;" 
 />
    <glyph glyph-name="uni2622" unicode="&#x2622;" 
 />
    <glyph glyph-name="uni2623" unicode="&#x2623;" 
 />
    <glyph glyph-name="uni2624" unicode="&#x2624;" 
 />
    <glyph glyph-name="uni2625" unicode="&#x2625;" 
 />
    <glyph glyph-name="uni2626" unicode="&#x2626;" 
 />
    <glyph glyph-name="uni2627" unicode="&#x2627;" 
 />
    <glyph glyph-name="uni2628" unicode="&#x2628;" 
 />
    <glyph glyph-name="uni2629" unicode="&#x2629;" 
 />
    <glyph glyph-name="uni262A" unicode="&#x262a;" 
 />
    <glyph glyph-name="uni262B" unicode="&#x262b;" 
 />
    <glyph glyph-name="uni262C" unicode="&#x262c;" 
 />
    <glyph glyph-name="uni262D" unicode="&#x262d;" 
 />
    <glyph glyph-name="uni262E" unicode="&#x262e;" 
 />
    <glyph glyph-name="uni262F" unicode="&#x262f;" 
 />
    <glyph glyph-name="uni2630" unicode="&#x2630;" 
 />
    <glyph glyph-name="uni2631" unicode="&#x2631;" 
 />
    <glyph glyph-name="uni2632" unicode="&#x2632;" 
 />
    <glyph glyph-name="uni2633" unicode="&#x2633;" 
 />
    <glyph glyph-name="uni2634" unicode="&#x2634;" 
 />
    <glyph glyph-name="uni2635" unicode="&#x2635;" 
 />
    <glyph glyph-name="uni2636" unicode="&#x2636;" 
 />
    <glyph glyph-name="uni2637" unicode="&#x2637;" 
 />
    <glyph glyph-name="uni2638" unicode="&#x2638;" 
 />
    <glyph glyph-name="uni2639" unicode="&#x2639;" 
 />
    <glyph glyph-name="smileface" unicode="&#x263a;" 
 />
    <glyph glyph-name="invsmileface" unicode="&#x263b;" 
 />
    <glyph glyph-name="sun" unicode="&#x263c;" 
 />
    <glyph glyph-name="uni263D" unicode="&#x263d;" 
 />
    <glyph glyph-name="uni263E" unicode="&#x263e;" 
 />
    <glyph glyph-name="uni263F" unicode="&#x263f;" 
 />
    <glyph glyph-name="female" unicode="&#x2640;" 
 />
    <glyph glyph-name="uni2641" unicode="&#x2641;" 
 />
    <glyph glyph-name="male" unicode="&#x2642;" 
 />
    <glyph glyph-name="uni2643" unicode="&#x2643;" 
 />
    <glyph glyph-name="uni2644" unicode="&#x2644;" 
 />
    <glyph glyph-name="uni2645" unicode="&#x2645;" 
 />
    <glyph glyph-name="uni2646" unicode="&#x2646;" 
 />
    <glyph glyph-name="uni2647" unicode="&#x2647;" 
 />
    <glyph glyph-name="uni2648" unicode="&#x2648;" 
 />
    <glyph glyph-name="uni2649" unicode="&#x2649;" 
 />
    <glyph glyph-name="uni264A" unicode="&#x264a;" 
 />
    <glyph glyph-name="uni264B" unicode="&#x264b;" 
 />
    <glyph glyph-name="uni264C" unicode="&#x264c;" 
 />
    <glyph glyph-name="uni264D" unicode="&#x264d;" 
 />
    <glyph glyph-name="uni264E" unicode="&#x264e;" 
 />
    <glyph glyph-name="uni264F" unicode="&#x264f;" 
 />
    <glyph glyph-name="uni2650" unicode="&#x2650;" 
 />
    <glyph glyph-name="uni2651" unicode="&#x2651;" 
 />
    <glyph glyph-name="uni2652" unicode="&#x2652;" 
 />
    <glyph glyph-name="uni2653" unicode="&#x2653;" 
 />
    <glyph glyph-name="uni2654" unicode="&#x2654;" 
 />
    <glyph glyph-name="uni2655" unicode="&#x2655;" 
 />
    <glyph glyph-name="uni2656" unicode="&#x2656;" 
 />
    <glyph glyph-name="uni2657" unicode="&#x2657;" 
 />
    <glyph glyph-name="uni2658" unicode="&#x2658;" 
 />
    <glyph glyph-name="uni2659" unicode="&#x2659;" 
 />
    <glyph glyph-name="uni265A" unicode="&#x265a;" 
 />
    <glyph glyph-name="uni265B" unicode="&#x265b;" 
 />
    <glyph glyph-name="uni265C" unicode="&#x265c;" 
 />
    <glyph glyph-name="uni265D" unicode="&#x265d;" 
 />
    <glyph glyph-name="uni265E" unicode="&#x265e;" 
 />
    <glyph glyph-name="uni265F" unicode="&#x265f;" 
 />
    <glyph glyph-name="spade" unicode="&#x2660;" 
 />
    <glyph glyph-name="uni2661" unicode="&#x2661;" 
 />
    <glyph glyph-name="uni2662" unicode="&#x2662;" 
 />
    <glyph glyph-name="club" unicode="&#x2663;" 
 />
    <glyph glyph-name="uni2664" unicode="&#x2664;" 
 />
    <glyph glyph-name="heart" unicode="&#x2665;" 
 />
    <glyph glyph-name="diamond" unicode="&#x2666;" 
 />
    <glyph glyph-name="uni2667" unicode="&#x2667;" 
 />
    <glyph glyph-name="uni2668" unicode="&#x2668;" 
 />
    <glyph glyph-name="uni2669" unicode="&#x2669;" 
 />
    <glyph glyph-name="musicalnote" unicode="&#x266a;" 
 />
    <glyph glyph-name="musicalnotedbl" unicode="&#x266b;" 
 />
    <glyph glyph-name="uni266C" unicode="&#x266c;" 
 />
    <glyph glyph-name="uni266D" unicode="&#x266d;" 
 />
    <glyph glyph-name="uni266E" unicode="&#x266e;" 
 />
    <glyph glyph-name="uni266F" unicode="&#x266f;" 
 />
    <glyph glyph-name="uni2701" unicode="&#x2701;" 
 />
    <glyph glyph-name="uni2702" unicode="&#x2702;" 
 />
    <glyph glyph-name="uni2703" unicode="&#x2703;" 
 />
    <glyph glyph-name="uni2704" unicode="&#x2704;" 
 />
    <glyph glyph-name="uni2706" unicode="&#x2706;" 
 />
    <glyph glyph-name="uni2707" unicode="&#x2707;" 
 />
    <glyph glyph-name="uni2708" unicode="&#x2708;" 
 />
    <glyph glyph-name="uni2709" unicode="&#x2709;" 
 />
    <glyph glyph-name="uni270C" unicode="&#x270c;" 
 />
    <glyph glyph-name="uni270D" unicode="&#x270d;" 
 />
    <glyph glyph-name="uni270E" unicode="&#x270e;" 
 />
    <glyph glyph-name="uni270F" unicode="&#x270f;" 
 />
    <glyph glyph-name="uni2710" unicode="&#x2710;" 
 />
    <glyph glyph-name="uni2711" unicode="&#x2711;" 
 />
    <glyph glyph-name="uni2712" unicode="&#x2712;" 
 />
    <glyph glyph-name="uni2713" unicode="&#x2713;" 
 />
    <glyph glyph-name="uni2714" unicode="&#x2714;" 
 />
    <glyph glyph-name="uni2715" unicode="&#x2715;" 
 />
    <glyph glyph-name="uni2716" unicode="&#x2716;" 
 />
    <glyph glyph-name="uni2717" unicode="&#x2717;" 
 />
    <glyph glyph-name="uni2718" unicode="&#x2718;" 
 />
    <glyph glyph-name="uni2719" unicode="&#x2719;" 
 />
    <glyph glyph-name="uni271A" unicode="&#x271a;" 
 />
    <glyph glyph-name="uni271B" unicode="&#x271b;" 
 />
    <glyph glyph-name="uni271C" unicode="&#x271c;" 
 />
    <glyph glyph-name="uni271D" unicode="&#x271d;" 
 />
    <glyph glyph-name="uni271E" unicode="&#x271e;" 
 />
    <glyph glyph-name="uni271F" unicode="&#x271f;" 
 />
    <glyph glyph-name="uni2720" unicode="&#x2720;" 
 />
    <glyph glyph-name="uni2721" unicode="&#x2721;" 
 />
    <glyph glyph-name="uni2722" unicode="&#x2722;" 
 />
    <glyph glyph-name="uni2723" unicode="&#x2723;" 
 />
    <glyph glyph-name="uni2724" unicode="&#x2724;" 
 />
    <glyph glyph-name="uni2725" unicode="&#x2725;" 
 />
    <glyph glyph-name="uni2726" unicode="&#x2726;" 
 />
    <glyph glyph-name="uni2727" unicode="&#x2727;" 
 />
    <glyph glyph-name="uni2729" unicode="&#x2729;" 
 />
    <glyph glyph-name="uni272A" unicode="&#x272a;" 
 />
    <glyph glyph-name="uni272B" unicode="&#x272b;" 
 />
    <glyph glyph-name="uni272C" unicode="&#x272c;" 
 />
    <glyph glyph-name="uni272D" unicode="&#x272d;" 
 />
    <glyph glyph-name="uni272E" unicode="&#x272e;" 
 />
    <glyph glyph-name="uni272F" unicode="&#x272f;" 
 />
    <glyph glyph-name="uni2730" unicode="&#x2730;" 
 />
    <glyph glyph-name="uni2731" unicode="&#x2731;" 
 />
    <glyph glyph-name="uni2732" unicode="&#x2732;" 
 />
    <glyph glyph-name="uni2733" unicode="&#x2733;" 
 />
    <glyph glyph-name="uni2734" unicode="&#x2734;" 
 />
    <glyph glyph-name="uni2735" unicode="&#x2735;" 
 />
    <glyph glyph-name="uni2736" unicode="&#x2736;" 
 />
    <glyph glyph-name="uni2737" unicode="&#x2737;" 
 />
    <glyph glyph-name="uni2738" unicode="&#x2738;" 
 />
    <glyph glyph-name="uni2739" unicode="&#x2739;" 
 />
    <glyph glyph-name="uni273A" unicode="&#x273a;" 
 />
    <glyph glyph-name="uni273B" unicode="&#x273b;" 
 />
    <glyph glyph-name="uni273C" unicode="&#x273c;" 
 />
    <glyph glyph-name="uni273D" unicode="&#x273d;" 
 />
    <glyph glyph-name="uni273E" unicode="&#x273e;" 
 />
    <glyph glyph-name="uni273F" unicode="&#x273f;" 
 />
    <glyph glyph-name="uni2740" unicode="&#x2740;" 
 />
    <glyph glyph-name="uni2741" unicode="&#x2741;" 
 />
    <glyph glyph-name="uni2742" unicode="&#x2742;" 
 />
    <glyph glyph-name="uni2743" unicode="&#x2743;" 
 />
    <glyph glyph-name="uni2744" unicode="&#x2744;" 
 />
    <glyph glyph-name="uni2745" unicode="&#x2745;" 
 />
    <glyph glyph-name="uni2746" unicode="&#x2746;" 
 />
    <glyph glyph-name="uni2747" unicode="&#x2747;" 
 />
    <glyph glyph-name="uni2748" unicode="&#x2748;" 
 />
    <glyph glyph-name="uni2749" unicode="&#x2749;" 
 />
    <glyph glyph-name="uni274A" unicode="&#x274a;" 
 />
    <glyph glyph-name="uni274B" unicode="&#x274b;" 
 />
    <glyph glyph-name="uni274D" unicode="&#x274d;" 
 />
    <glyph glyph-name="uni274F" unicode="&#x274f;" 
 />
    <glyph glyph-name="uni2750" unicode="&#x2750;" 
 />
    <glyph glyph-name="uni2751" unicode="&#x2751;" 
 />
    <glyph glyph-name="uni2752" unicode="&#x2752;" 
 />
    <glyph glyph-name="uni2756" unicode="&#x2756;" 
 />
    <glyph glyph-name="uni2758" unicode="&#x2758;" 
 />
    <glyph glyph-name="uni2759" unicode="&#x2759;" 
 />
    <glyph glyph-name="uni275A" unicode="&#x275a;" 
 />
    <glyph glyph-name="uni275B" unicode="&#x275b;" 
 />
    <glyph glyph-name="uni275C" unicode="&#x275c;" 
 />
    <glyph glyph-name="uni275D" unicode="&#x275d;" 
 />
    <glyph glyph-name="uni275E" unicode="&#x275e;" 
 />
    <glyph glyph-name="uni2761" unicode="&#x2761;" 
 />
    <glyph glyph-name="uni2762" unicode="&#x2762;" 
 />
    <glyph glyph-name="uni2763" unicode="&#x2763;" 
 />
    <glyph glyph-name="uni2764" unicode="&#x2764;" 
 />
    <glyph glyph-name="uni2765" unicode="&#x2765;" 
 />
    <glyph glyph-name="uni2766" unicode="&#x2766;" 
 />
    <glyph glyph-name="uni2767" unicode="&#x2767;" 
 />
    <glyph glyph-name="uni2776" unicode="&#x2776;" 
 />
    <glyph glyph-name="uni2777" unicode="&#x2777;" 
 />
    <glyph glyph-name="uni2778" unicode="&#x2778;" 
 />
    <glyph glyph-name="uni2779" unicode="&#x2779;" 
 />
    <glyph glyph-name="uni277A" unicode="&#x277a;" 
 />
    <glyph glyph-name="uni277B" unicode="&#x277b;" 
 />
    <glyph glyph-name="uni277C" unicode="&#x277c;" 
 />
    <glyph glyph-name="uni277D" unicode="&#x277d;" 
 />
    <glyph glyph-name="uni277E" unicode="&#x277e;" 
 />
    <glyph glyph-name="uni277F" unicode="&#x277f;" 
 />
    <glyph glyph-name="uni2780" unicode="&#x2780;" 
 />
    <glyph glyph-name="uni2781" unicode="&#x2781;" 
 />
    <glyph glyph-name="uni2782" unicode="&#x2782;" 
 />
    <glyph glyph-name="uni2783" unicode="&#x2783;" 
 />
    <glyph glyph-name="uni2784" unicode="&#x2784;" 
 />
    <glyph glyph-name="uni2785" unicode="&#x2785;" 
 />
    <glyph glyph-name="uni2786" unicode="&#x2786;" 
 />
    <glyph glyph-name="uni2787" unicode="&#x2787;" 
 />
    <glyph glyph-name="uni2788" unicode="&#x2788;" 
 />
    <glyph glyph-name="uni2789" unicode="&#x2789;" 
 />
    <glyph glyph-name="uni278A" unicode="&#x278a;" 
 />
    <glyph glyph-name="uni278B" unicode="&#x278b;" 
 />
    <glyph glyph-name="uni278C" unicode="&#x278c;" 
 />
    <glyph glyph-name="uni278D" unicode="&#x278d;" 
 />
    <glyph glyph-name="uni278E" unicode="&#x278e;" 
 />
    <glyph glyph-name="uni278F" unicode="&#x278f;" 
 />
    <glyph glyph-name="uni2790" unicode="&#x2790;" 
 />
    <glyph glyph-name="uni2791" unicode="&#x2791;" 
 />
    <glyph glyph-name="uni2792" unicode="&#x2792;" 
 />
    <glyph glyph-name="uni2793" unicode="&#x2793;" 
 />
    <glyph glyph-name="uni2794" unicode="&#x2794;" 
 />
    <glyph glyph-name="uni2798" unicode="&#x2798;" 
 />
    <glyph glyph-name="uni2799" unicode="&#x2799;" 
 />
    <glyph glyph-name="uni279A" unicode="&#x279a;" 
 />
    <glyph glyph-name="uni279B" unicode="&#x279b;" 
 />
    <glyph glyph-name="uni279C" unicode="&#x279c;" 
 />
    <glyph glyph-name="uni279D" unicode="&#x279d;" 
 />
    <glyph glyph-name="uni279E" unicode="&#x279e;" 
 />
    <glyph glyph-name="uni279F" unicode="&#x279f;" 
 />
    <glyph glyph-name="uni27A0" unicode="&#x27a0;" 
 />
    <glyph glyph-name="uni27A1" unicode="&#x27a1;" 
 />
    <glyph glyph-name="uni27A2" unicode="&#x27a2;" 
 />
    <glyph glyph-name="uni27A3" unicode="&#x27a3;" 
 />
    <glyph glyph-name="uni27A4" unicode="&#x27a4;" 
 />
    <glyph glyph-name="uni27A5" unicode="&#x27a5;" 
 />
    <glyph glyph-name="uni27A6" unicode="&#x27a6;" 
 />
    <glyph glyph-name="uni27A7" unicode="&#x27a7;" 
 />
    <glyph glyph-name="uni27A8" unicode="&#x27a8;" 
 />
    <glyph glyph-name="uni27A9" unicode="&#x27a9;" 
 />
    <glyph glyph-name="uni27AA" unicode="&#x27aa;" 
 />
    <glyph glyph-name="uni27AB" unicode="&#x27ab;" 
 />
    <glyph glyph-name="uni27AC" unicode="&#x27ac;" 
 />
    <glyph glyph-name="uni27AD" unicode="&#x27ad;" 
 />
    <glyph glyph-name="uni27AE" unicode="&#x27ae;" 
 />
    <glyph glyph-name="uni27AF" unicode="&#x27af;" 
 />
    <glyph glyph-name="uni27B1" unicode="&#x27b1;" 
 />
    <glyph glyph-name="uni27B2" unicode="&#x27b2;" 
 />
    <glyph glyph-name="uni27B3" unicode="&#x27b3;" 
 />
    <glyph glyph-name="uni27B4" unicode="&#x27b4;" 
 />
    <glyph glyph-name="uni27B5" unicode="&#x27b5;" 
 />
    <glyph glyph-name="uni27B6" unicode="&#x27b6;" 
 />
    <glyph glyph-name="uni27B7" unicode="&#x27b7;" 
 />
    <glyph glyph-name="uni27B8" unicode="&#x27b8;" 
 />
    <glyph glyph-name="uni27B9" unicode="&#x27b9;" 
 />
    <glyph glyph-name="uni27BA" unicode="&#x27ba;" 
 />
    <glyph glyph-name="uni27BB" unicode="&#x27bb;" 
 />
    <glyph glyph-name="uni27BC" unicode="&#x27bc;" 
 />
    <glyph glyph-name="uni27BD" unicode="&#x27bd;" 
 />
    <glyph glyph-name="uni27BE" unicode="&#x27be;" 
 />
    <glyph glyph-name="uni3000" unicode="&#x3000;" 
 />
    <glyph glyph-name="uni3001" unicode="&#x3001;" 
d="M269 -31l-16 -11l-107 154l16 11z" />
    <glyph glyph-name="uni3002" unicode="&#x3002;" 
d="M239 119v0v-171h-170v171h170zM220 -33v133h-132v-133h132z" />
    <glyph glyph-name="uni3003" unicode="&#x3003;" 
 />
    <glyph glyph-name="uni3004" unicode="&#x3004;" 
 />
    <glyph glyph-name="uni3005" unicode="&#x3005;" 
 />
    <glyph glyph-name="uni3006" unicode="&#x3006;" 
 />
    <glyph glyph-name="uni3007" unicode="&#x3007;" 
 />
    <glyph glyph-name="uni3008" unicode="&#x3008;" 
 />
    <glyph glyph-name="uni3009" unicode="&#x3009;" 
 />
    <glyph glyph-name="uni300A" unicode="&#x300a;" 
 />
    <glyph glyph-name="uni300B" unicode="&#x300b;" 
 />
    <glyph glyph-name="uni300C" unicode="&#x300c;" 
d="M984 831v-19h-191v-65h-65v-622h-19v706h275zM774 766v43h-43v-43h43z" />
    <glyph glyph-name="uni300D" unicode="&#x300d;" 
d="M36 -91v19h191v65h65v622h19v-706h-275zM246 -26v-43h43v43h-43z" />
    <glyph glyph-name="uni300E" unicode="&#x300e;" 
 />
    <glyph glyph-name="uni300F" unicode="&#x300f;" 
 />
    <glyph glyph-name="uni3010" unicode="&#x3010;" 
 />
    <glyph glyph-name="uni3011" unicode="&#x3011;" 
 />
    <glyph glyph-name="uni3012" unicode="&#x3012;" 
 />
    <glyph glyph-name="uni3013" unicode="&#x3013;" 
 />
    <glyph glyph-name="uni3014" unicode="&#x3014;" 
 />
    <glyph glyph-name="uni3015" unicode="&#x3015;" 
 />
    <glyph glyph-name="uni3016" unicode="&#x3016;" 
 />
    <glyph glyph-name="uni3017" unicode="&#x3017;" 
 />
    <glyph glyph-name="uni3018" unicode="&#x3018;" 
 />
    <glyph glyph-name="uni3019" unicode="&#x3019;" 
 />
    <glyph glyph-name="uni301A" unicode="&#x301a;" 
 />
    <glyph glyph-name="uni301B" unicode="&#x301b;" 
 />
    <glyph glyph-name="uni301C" unicode="&#x301c;" 
 />
    <glyph glyph-name="uni301D" unicode="&#x301d;" 
 />
    <glyph glyph-name="uni301E" unicode="&#x301e;" 
 />
    <glyph glyph-name="uni301F" unicode="&#x301f;" 
 />
    <glyph glyph-name="uni3020" unicode="&#x3020;" 
 />
    <glyph glyph-name="uni3030" unicode="&#x3030;" 
 />
    <glyph glyph-name="uni3031" unicode="&#x3031;" 
 />
    <glyph glyph-name="uni3032" unicode="&#x3032;" 
 />
    <glyph glyph-name="uni3033" unicode="&#x3033;" 
 />
    <glyph glyph-name="uni3034" unicode="&#x3034;" 
 />
    <glyph glyph-name="uni3035" unicode="&#x3035;" 
 />
    <glyph glyph-name="uni3036" unicode="&#x3036;" 
 />
    <glyph glyph-name="uni3037" unicode="&#x3037;" 
 />
    <glyph glyph-name="uni3041" unicode="&#x3041;" 
d="M363 -6l-6 7q-34 46 -34 102q0 69 47 117.5t116 51.5v172h-67v19h67v65h19v-65h67v-19h-67v-172q79 -8 126 -73l81 57l11 -16l-82 -57q20 -37 20 -80q-1 -60 -38.5 -106.5t-96.5 -59.5l-4 19q52 12 85.5 52.5t34.5 94.5q0 37 -17 69l-120 -83v-146h-19v133zM505 253v-53
q25 12 48 -6q13 -11 16 -30q-1 -3 0 -8l47 32q-42 58 -111 65zM505 189v-77l52 36q2 8 2 15q-2 15 -12 24q-21 15 -42 2zM486 253q-61 -3 -102.5 -46t-41.5 -104q0 -45 25 -84l119 80v154z" />
    <glyph glyph-name="uni3042" unicode="&#x3042;" 
d="M334 32l-6 7q-45 62 -46 137q1 93 64.5 157.5t156.5 67.5v238h-94v19h94v92h19v-92h93v-19h-93v-238q109 -9 173 -100l112 78l10 -16l-112 -78q27 -51 28 -109q-1 -80 -51.5 -141.5t-128.5 -79.5l-4 19q72 16 118 72t47 130q0 53 -25 98l-167 -116v-199h-19v186zM522 289
v0v-108l70 49q6 13 5 27q-2 19 -16 32q-15 12 -35 10q-14 -1 -24 -10zM679 290q-58 82 -157 91v-75q10 6 23 7q25 3 45 -13q18 -17 22 -42q0 -7 -1 -15zM503 382q-85 -3 -143 -62t-59 -144q0 -64 37 -118l165 110v214z" />
    <glyph glyph-name="uni3043" unicode="&#x3043;" 
d="M438 -45q-67 41 -100.5 110.5t-32.5 146.5q-1 77 32 147t101 109l10 -17q-64 -37 -94.5 -102t-29.5 -137q-1 -72 30 -137t94 -103zM448 -12h-10v16h10v-16zM448 19h-10v16h10v-16zM448 50h-10v15h10v-15zM448 81h-10v15h10v-15zM448 112h-10v15h10v-15zM448 143h-10v15
h10v-15zM448 173h-10v16h10v-16zM448 204h-10v16h10v-16zM448 235h-10v16h10v-16zM448 266h-10v15h10v-15zM448 297h-10v15h10v-15zM448 328h-10v15h10v-15zM448 358h-10v16h10v-16zM448 389h-10v16h10v-16zM448 420h-10v16h10v-16zM560 -12h-10v16h10v-16zM560 19h-10v16
h10v-16zM560 50h-10v15h10v-15zM560 81h-10v15h10v-15zM560 112h-10v15h10v-15zM560 143h-10v15h10v-15zM560 173h-10v16h10v-16zM560 204h-10v16h10v-16zM560 235h-10v16h10v-16zM560 266h-10v15h10v-15zM560 297h-10v15h10v-15zM560 328h-10v15h10v-15zM560 358h-10v16h10
v-16zM560 389h-10v16h10v-16zM560 420h-10v16h10v-16zM565 -42l-10 16q60 39 89.5 103.5t29.5 134.5q0 72 -30.5 137t-93.5 102l9 17q67 -39 100.5 -109t33.5 -147q0 -75 -32 -143.5t-96 -110.5z" />
    <glyph glyph-name="uni3044" unicode="&#x3044;" 
d="M438 -46q-83 50 -124 135t-40 179q-1 95 39.5 180.5t124.5 133.5l9 -16q-79 -46 -117 -127.5t-37 -170.5q-1 -89 37.5 -169.5t116.5 -127.5zM437 67v19h10v-19h-10zM447 162v-19h-10v19h10zM437 -9v19h10v-19h-10zM437 181v19h10v-19h-10zM447 504v-19h-10v19h10zM447 48
v-19h-10v19h10zM437 523v19h10v-19h-10zM437 105v19h10v-19h-10zM437 447v19h10v-19h-10zM437 409v19h10v-19h-10zM437 219v19h10v-19h-10zM447 390v-19h-10v19h10zM437 333v19h10v-19h-10zM447 276v-19h-10v19h10zM437 295v19h10v-19h-10zM576 409v19h9v-19h-9zM576 371v19
h9v-19h-9zM576 295v19h9v-19h-9zM576 523v19h9v-19h-9zM576 257v19h9v-19h-9zM576 447v19h9v-19h-9zM576 485v19h9v-19h-9zM576 333v19h9v-19h-9zM576 29v19h9v-19h-9zM576 67v19h9v-19h-9zM576 219v19h9v-19h-9zM576 -9v19h9v-19h-9zM576 181v19h9v-19h-9zM576 105v19h9
v-19h-9zM576 143v19h9v-19h-9zM729 268q0 89 -38 170t-116 128l9 16q83 -48 123.5 -133.5t40.5 -180.5q0 -92 -39 -176t-118 -135l-10 17q75 48 111.5 127.5t36.5 166.5z" />
    <glyph glyph-name="uni3045" unicode="&#x3045;" 
d="M546 14l-2 13q41 9 67 41t27 74q-1 50 -35 84t-83 34t-83.5 -34t-34.5 -84q0 -39 24 -71l-10 -8q-26 36 -26 79q0 55 37.5 92.5t92.5 37.5q54 0 91.5 -37.5t38.5 -92.5q-1 -46 -29.5 -81.5t-74.5 -46.5zM557 -37l-4 19q56 12 92.5 57t37.5 103q-1 68 -48 115t-115 48
q-68 -1 -115 -48t-48 -115q0 -55 33 -99l-15 -12q-37 50 -37 111q1 76 53.5 128.5t128.5 53.5q76 -1 128.5 -53.5t53.5 -128.5q-1 -65 -41.5 -115t-103.5 -64zM436 530v19h168v-19h-168z" />
    <glyph glyph-name="uni3046" unicode="&#x3046;" 
d="M684 176q-1 -57 -37 -101.5t-92 -56.5l-3 13q51 12 84 52.5t34 92.5q-1 63 -44 105.5t-104 42.5q-62 0 -105 -42.5t-43 -105.5q0 -49 30 -89l-11 -9q-34 44 -33 98q0 69 47 115.5t115 47.5q67 -1 114 -47.5t48 -115.5zM358 51l-15 -12q-46 61 -46 137q1 94 65.5 159
t159.5 66q93 -1 158 -66t67 -159q-1 -80 -51 -141.5t-129 -79.5l-4 19q72 16 118 72.5t47 129.5q-2 86 -61.5 145.5t-144.5 60.5q-87 -1 -146 -60.5t-60 -145.5q0 -69 42 -125zM417 664v19h209v-19h-209z" />
    <glyph glyph-name="uni3047" unicode="&#x3047;" 
d="M410 495v19h165v-19h-165zM334 -12l299 419h-305v19h342l-167 -235l178 -215h-191v197l-140 -197zM544 -5v38h-35v-38h35zM640 -5l-131 158v-109h46v-49h85z" />
    <glyph glyph-name="uni3048" unicode="&#x3048;" 
d="M409 637v19h207v-19h-207zM317 9l376 528h-385v19h422l-209 -294l219 -264h-231v248l-176 -248zM571 17v48h-43v-48h43zM699 17l-171 207v-145h57v-62h114z" />
    <glyph glyph-name="uni3049" unicode="&#x3049;" 
d="M380 37l-15 -11q-38 49 -37 110q0 74 50 126t124 56v187h-74v19h74v72h19v-72h72v-19h-72v-187q72 -5 121 -57t50 -125q-1 -65 -41.5 -114.5t-104.5 -63.5l-3 18q57 13 93 57.5t37 102.5q-1 65 -44.5 111.5t-107.5 51.5v-33q50 -5 83.5 -42t34.5 -88q-1 -46 -30 -81.5
t-74 -45.5l-2 11q41 10 67 42t28 74q-1 47 -31.5 80.5t-75.5 37.5v-293h-19v294q-48 -3 -79.5 -37t-31.5 -82q0 -39 24 -71l-9 -7q-27 35 -26 78q0 53 34.5 90t87.5 40v33q-66 -4 -110.5 -50.5t-44.5 -112.5q-1 -54 33 -99zM728 544v-127l-115 127h115zM713 456v72h-66z" />
    <glyph glyph-name="uni304A" unicode="&#x304a;" 
d="M346 51l-15 -12q-46 62 -46 137q1 92 63.5 156.5t154.5 68.5v238h-95v19h95v92h19v-92h92v-19h-92v-238q89 -6 150.5 -70t62.5 -155q-1 -80 -51.5 -141.5t-128.5 -79.5l-4 19q72 16 118 72t47 130q-1 83 -56.5 141.5t-137.5 64.5v-44q63 -5 105.5 -51t44.5 -111
q-1 -57 -37 -101.5t-93 -56.5l-3 13q51 12 84.5 52.5t33.5 92.5q0 59 -39 100.5t-96 47.5v-366h-19v366q-60 -3 -100.5 -45t-40.5 -103q-1 -49 30 -89l-12 -9q-33 45 -33 98q1 67 45.5 113t110.5 49v44q-85 -4 -141.5 -63t-57.5 -143q0 -69 42 -125zM783 685v-158l-144 158
h144zM764 576v90h-82z" />
    <glyph glyph-name="uni304B" unicode="&#x304b;" 
d="M395 38v501h-90v19h90v192h19v-192h223v-603l-165 120l11 16l32 -23q-2 15 3 29q8 26 32 38q24 11 50 3q10 -3 18 -10v411h-204v-501h-19zM533 54l85 -62v116q-9 12 -23 16q-20 7 -38 -2q-20 -9 -26 -29q-7 -20 3 -39h-1zM771 646v-158l-145 158h145zM752 537v90h-83z
" />
    <glyph glyph-name="uni304C" unicode="&#x304c;" 
d="M369 38v0v501h-90v19h90v192h19v-192h223v-603l-165 120l11 16l32 -24q-4 46 35 68q24 11 50 3q10 -3 18 -10v411h-204v-501h-19zM507 54l85 -62v116q-9 12 -23 16q-20 7 -38 -2q-40 -24 -23 -68h-1zM745 646v-158l-145 158h145zM726 537v90h-83zM776 544v204h19v-204
h-19zM821 544v204h19v-204h-19z" />
    <glyph glyph-name="uni304D" unicode="&#x304d;" 
d="M397 -19q-81 46 -108 135q-26 89 19 171q35 65 101 96v-22q-55 -28 -85 -83q-40 -75 -17 -157q25 -81 99 -123q75 -39 157 -17q81 26 123 99q33 62 23 130l19 3q11 -75 -25 -142q-67 -113 -198 -117q-58 0 -108 27zM363 137q17 -58 71 -88q54 -29 112 -12t89 71
q23 44 16 93l14 2q8 -54 -18 -102q-48 -81 -142 -85q-42 1 -78 20q-58 33 -78 97q-18 64 13 123q18 33 47 54v-18q-21 -18 -34 -43q-29 -53 -12 -112zM528 165v245h-91v19h91v210h-91v19h91v89h19v-89h97v-19h-97v-210h97v-19h-97v-245h-19z" />
    <glyph glyph-name="uni304E" unicode="&#x304e;" 
d="M395 -18q-82 46 -108 134q-26 89 18 171q35 64 102 96v-21q-55 -30 -85 -84q-40 -75 -17 -157q24 -81 99 -123q74 -39 157 -17q81 26 123 99q32 62 22 130l19 3q10 -74 -25 -142q-45 -80 -134 -108q-31 -9 -64 -9q-57 1 -107 28zM372 249q-29 -54 -12 -112t71 -88
q55 -29 113 -12t88 71q23 44 17 93l14 2q7 -53 -18 -102q-49 -81 -143 -85q-41 1 -77 20q-60 33 -78.5 97t13.5 123q17 33 47 54v-18q-22 -18 -35 -43zM526 165v245h-92v19h92v210h-92v19h92v89h19v-89h91v90h19v-204h-19v95h-91v-210h96v-19h-96v-245h-19zM681 544v204h19
v-204h-19z" />
    <glyph glyph-name="uni304F" unicode="&#x304f;" 
d="M607 -9l-17 -8l-184 382l182 362l17 -8l-138 -276q59 -16 64 -78q-5 -63 -66 -78zM460 429l-32 -64l31 -64q53 10 58 64q-5 54 -57 64z" />
    <glyph glyph-name="uni3050" unicode="&#x3050;" 
d="M566 -9l-17 -8l-184 382l181 362l17 -8l-138 -276q60 -16 65 -78q-5 -62 -66 -78zM419 429l-33 -64l31 -64q54 10 58 64q-4 54 -56 64zM660 519v204h20v-204h-20zM706 519v204h19v-204h-19z" />
    <glyph glyph-name="uni3051" unicode="&#x3051;" 
d="M459 199l15 -12l-178 -227v764h19v-538q5 5 11 8q22 13 49 7q25 -7 39 -30q5 -9 8 -19zM315 163v-148l94 120q1 16 -7 29q-11 18 -31 23t-38 -6q-11 -6 -18 -18zM656 81v486h-194v19h194v137h19v-137h93v-19h-93v-571h-183v19h104v66h60zM611 67v-51h45v51h-45z" />
    <glyph glyph-name="uni3052" unicode="&#x3052;" 
d="M632 81v486h-194v19h194v137h19v-137h90v137h19v-204h-19v48h-90v-571h-183v19h104v66h60zM586 67v-51h46v51h-46zM435 199l15 -12l-178 -227v764h19v-538q26 22 60 15q25 -7 39 -30q5 -9 8 -19zM291 163v-148l94 120q0 16 -7 29q-11 18 -31 23q-36 7 -56 -24zM786 519
v204h19v-204h-19z" />
    <glyph glyph-name="uni3053" unicode="&#x3053;" 
d="M726 291v-291h-433v287h19v-268h302v100h93v172h19zM628 105v-86h79v86h-79zM312 615v-163h-19v182h433v-178h-19v159h-395z" />
    <glyph glyph-name="uni3054" unicode="&#x3054;" 
d="M729 291v0v-291h-432v287h19v-268h301v100h93v172h19zM631 105v-86h79v86h-79zM316 615v-163h-19v182h432v-178h-19v159h-394zM765 519v204h19v-204h-19zM810 519v204h19v-204h-19z" />
    <glyph glyph-name="uni3055" unicode="&#x3055;" 
d="M528 325q-51 15 -99.5 -4.5t-73.5 -66.5q-29 -53 -12 -112q17 -58 71 -88q54 -29 112 -12t89 71q23 44 16 93l14 2q8 -54 -18 -102q-48 -81 -143 -85q-41 1 -77 20q-59 33 -78 97q-19 65 13 123q28 51 81 73t109 5zM377 -14q-81 46 -108 135q-26 89 18 171q39 71 113 101
t151 6l-6 -18q-71 21 -138 -6t-103 -92q-40 -75 -17 -157q25 -81 99 -123q75 -39 157 -17q81 26 123 99q33 62 23 130l19 3q10 -75 -25 -142q-68 -112 -198 -117q-58 1 -108 27zM578 264v381h-88v19h88v85h19v-85h96v-19h-96v-381h-19z" />
    <glyph glyph-name="uni3056" unicode="&#x3056;" 
d="M508 325q-51 15 -99 -4.5t-74 -65.5q-29 -54 -12 -113q17 -58 71 -88q54 -29 112 -12t89 71q23 44 16 93l14 2q8 -53 -18 -102q-49 -81 -143 -84q-41 0 -77 19q-58 34 -78 97q-18 65 13 124q28 51 81 72.5t109 4.5zM357 -13q-81 46 -108 134q-25 90 18 171
q39 71 112.5 101t151.5 7l-6 -18q-71 21 -138 -6.5t-103 -92.5q-40 -74 -17 -157q24 -81 99 -123q76 -39 157 -15.5t123 98.5q32 61 23 129l19 3q10 -74 -25 -141q-68 -113 -198 -118q-58 1 -108 28zM558 264v381h-88v19h88v85h19v-85h93v65h19v-204h-19v120h-93v-381h-19z
M716 525v204h19v-204h-19z" />
    <glyph glyph-name="uni3057" unicode="&#x3057;" 
d="M698 309v-303h-319v676h19v-561h95v-96h186v284h19zM479 106h-79v-81h79v81z" />
    <glyph glyph-name="uni3058" unicode="&#x3058;" 
d="M681 309v-303h-319v676h19v-561h95v-96h186v284h19zM462 106h-79v-81h79v81zM643 519v204h19v-204h-19zM688 519v204h19v-204h-19z" />
    <glyph glyph-name="uni3059" unicode="&#x3059;" 
d="M503 522v115h-217v19h217v94h19v-94h215v-19h-215v-115q81 -5 136.5 -63t56.5 -140q-1 -82 -56.5 -140t-137.5 -63v-173h-19v173q-82 5 -137.5 63t-56.5 140q1 82 56.5 140.5t138.5 62.5zM647 316v0v0v9v0q-3 53 -38.5 89.5t-86.5 40.5v-139h-19v139q-54 -4 -90 -42.5
t-37 -92.5q1 -56 40 -95.5t96 -40.5q55 1 93.5 39t41.5 93zM327 319q1 -74 51 -126.5t124 -57.5v35q-59 5 -99.5 47.5t-40.5 102.5t40 103t101 46v34q-75 -4 -125 -57t-51 -127zM696 325q-3 72 -53 123t-121 55v-34q57 -4 96.5 -45t43.5 -99h4v-9h-4q-3 -58 -42.5 -99.5
t-98.5 -46.5v-35q73 5 123 56.5t52 124.5h-11v9h11zM533 316v9h19v-9h-19zM609 316v9h19v-9h-19zM571 316v9h19v-9h-19z" />
    <glyph glyph-name="uni305A" unicode="&#x305a;" 
d="M504 522v115h-216v19h216v94h19v-94h169v91h19v-204h-19v94h-169v-115q82 -5 137.5 -63t56.5 -140q-1 -82 -56.5 -140t-137.5 -63v-173h-19v173q-82 5 -137.5 63t-56.5 140q1 82 56.5 140.5t137.5 62.5zM649 316v0v0v9v0q-3 53 -38.5 89.5t-87.5 40.5v-139h-19v139
q-54 -4 -90 -42.5t-36 -92.5q0 -56 39 -95.5t96 -40.5q55 1 94 39t42 93zM329 319q0 -74 50.5 -126.5t124.5 -57.5v35q-60 5 -100 47.5t-40 102.5t40 103t100 46v34q-74 -4 -124.5 -57t-50.5 -127zM698 325q-4 72 -53.5 123t-121.5 55v-34q58 -4 97.5 -44.5t42.5 -99.5h5v-9
h-5q-3 -58 -42.5 -99.5t-97.5 -46.5v-35q73 5 123 56.5t52 124.5h-11v9h11zM535 316v9h19v-9h-19zM611 316v9h19v-9h-19zM573 316v9h19v-9h-19zM737 543v204h19v-204h-19z" />
    <glyph glyph-name="uni305B" unicode="&#x305b;" 
d="M392 4v0v533h-118v19h118v168h19v-168h185v168h19v-168h132v-19h-132v-277h-19v277h-185v-417h90v-97h214v-19h-323zM487 106h-76v-83h76v83z" />
    <glyph glyph-name="uni305C" unicode="&#x305c;" 
d="M377 4v533h-117v19h117v168h19v-168h185v168h20v-168h112v191h19v-204v0v-6h-131v-277h-20v277h-185v-417h90v-97h214v-19h-323zM472 106h-76v-83h76v83zM758 543v204h19v-204h-19z" />
    <glyph glyph-name="uni305D" unicode="&#x305d;" 
d="M630 300h-313l171 230h-142v217l152 -203l149 200l15 -11l-307 -414h305l-90 -182l88 -170l-17 -9l-92 179zM390 549v32h-25v-32h25zM400 549h71l-106 141v-99h35v-42z" />
    <glyph glyph-name="uni305E" unicode="&#x305e;" 
d="M581 300h-313l170 230h-142v217l153 -203l149 200l15 -11l-307 -414h305l-90 -182l87 -170l-16 -9l-92 179zM341 549v32h-26v-32h26zM350 549h72l-107 141v-99h35v-42zM660 543v204h19v-204h-19zM705 543v204h19v-204h-19z" />
    <glyph glyph-name="uni305F" unicode="&#x305f;" 
d="M312 -33v649h-82v19h82v96h19v-96h102v-19h-102v-649h-19zM662 413v48h-160v19h160v47h14v-47h21v47h15v-47h42v-19h-42v-48h-15v48h-21v-48h-14zM536 16v34h-34v19h34v61h14v-61h21v61h15v-61h168v-19h-168v-34h-15v34h-21v-34h-14z" />
    <glyph glyph-name="uni3060" unicode="&#x3060;" 
d="M316 -33v649h-82v19h82v96h19v-96h102v-19h-102v-649h-19zM650 413v48h-160v19h160v47h14v-47h21v47h15v-47h42v-19h-42v-48h-15v48h-21v-48h-14zM524 16v34h-34v19h34v61h14v-61h21v61h15v-61h168v-19h-168v-34h-15v34h-21v-34h-14zM722 544v204h19v-204h-19zM767 544
v204h20v-204h-20z" />
    <glyph glyph-name="uni3061" unicode="&#x3061;" 
d="M336 168v444h-90v19h90v92h19v-92h98v-19h-98v-334q27 63 83 99.5t124 36.5q93 -1 158 -66t67 -159q-1 -80 -51 -141.5t-129 -79.5l-4 19q72 16 118 72.5t47 129.5q-2 86 -61.5 145.5t-144.5 60.5q-86 -1 -145.5 -60.5t-60.5 -145.5h-1v-21h-19zM709 131q-17 -49 -59 -79
t-94 -31q-11 0 -20 1l2 14q52 -6 96 22t62 78q18 58 -7 113q-29 54 -86 74q-58 20 -112.5 -7t-74.5 -85q-17 -47 0 -95l-14 -5q-17 53 0 104q22 64 82 93.5t124 8.5q63 -22 93 -82q28 -60 8 -124z" />
    <glyph glyph-name="uni3062" unicode="&#x3062;" 
d="M327 168v444h-91v19h91v92h19v-92h98v-19h-98v-334q27 63 82.5 99.5t123.5 36.5q94 -1 159 -66t66 -159q-1 -80 -51 -142t-128 -79l-4 19q72 16 117.5 72.5t46.5 129.5q-1 86 -60.5 145.5t-145.5 60.5q-86 -1 -145.5 -60.5t-60.5 -145.5v0v-21h-19zM700 131
q-17 -49 -59 -79.5t-95 -30.5q-10 0 -20 1l2 14q53 -6 97 22t61 78q19 59 -7.5 113t-84.5 74q-59 20 -113.5 -7t-74.5 -85q-15 -47 0 -95l-13 -5q-18 53 0 104q22 64 81.5 93.5t123.5 8.5q64 -23 93 -82t9 -124zM590 544v204h19v-204h-19zM635 544v204h19v-204h-19z" />
    <glyph glyph-name="uni3063" unicode="&#x3063;" 
d="M554 307v79h-243v19h333v-386h-249v19h230v269h-71zM569 321h56v65h-56v-65z" />
    <glyph glyph-name="uni3064" unicode="&#x3064;" 
d="M602 541v88h-274v19h374v-642h-296v19h277v516h-81zM617 555h66v74h-66v-74z" />
    <glyph glyph-name="uni3065" unicode="&#x3065;" 
d="M581 541v88h-275v19h374v-642h-295v19h276v516h-80zM595 555h66v74h-66v-74zM724 544v204h19v-204h-19zM769 544v204h19v-204h-19z" />
    <glyph glyph-name="uni3066" unicode="&#x3066;" 
d="M346 312q-1 115 66.5 203t175.5 121h-281v19h412v-19h-5v0q-91 1 -172 -38.5t-129.5 -116.5t-47.5 -169q-2 -90 46.5 -167t130 -116t172.5 -38v-19q-96 -1 -181.5 41t-136.5 123t-50 176zM713 189v19h9v-19h-9zM713 227v19h9v-19h-9zM713 151v19h9v-19h-9zM713 265v19h9
v-19h-9zM713 -1v19h9v-19h-9zM713 37v19h9v-19h-9zM713 75v19h9v-19h-9zM713 113v19h9v-19h-9zM713 303v19h9v-19h-9zM713 569v19h9v-19h-9zM713 493v19h9v-19h-9zM713 531v19h9v-19h-9zM713 607v19h9v-19h-9zM713 379v19h9v-19h-9zM713 341v19h9v-19h-9zM713 455v19h9v-19
h-9zM713 417v19h9v-19h-9z" />
    <glyph glyph-name="uni3067" unicode="&#x3067;" 
d="M342 312q-1 114 66.5 202.5t175.5 121.5h-281v19h412v-19h-6v0q-90 1 -171 -38.5t-129.5 -116.5t-47.5 -169q-2 -90 46.5 -167t130 -116t171.5 -38v-19q-95 -1 -180.5 41t-136.5 123t-50 176zM709 189v19h9v-19h-9zM709 227v19h9v-19h-9zM709 341v19h9v-19h-9zM709 303
v19h9v-19h-9zM709 265v19h9v-19h-9zM709 151v19h9v-19h-9zM709 75v19h9v-19h-9zM709 113v19h9v-19h-9zM709 607v19h9v-19h-9zM709 569v19h9v-19h-9zM709 531v19h9v-19h-9zM709 -1v19h9v-19h-9zM709 37v19h9v-19h-9zM709 493v19h9v-19h-9zM709 417v19h9v-19h-9zM709 455v19h9
v-19h-9zM709 379v19h9v-19h-9zM757 544v204h19v-204h-19zM802 544v204h19v-204h-19z" />
    <glyph glyph-name="uni3068" unicode="&#x3068;" 
d="M447 8v404h-200v236h19v-217h181v217h290v-19h-271v-504h95v-98h178v-19h-292zM547 111h-79v-84h79v84z" />
    <glyph glyph-name="uni3069" unicode="&#x3069;" 
d="M446 8v404h-200v236h19v-217h181v217h252v126h19v-204h-19v59h-233v-504h95v-98h178v-19h-292zM545 111h-78v-84h78v84zM743 570v204h19v-204h-19z" />
    <glyph glyph-name="uni306A" unicode="&#x306a;" 
d="M600 708l159 -144h-159v144zM619 665v-82h91zM330 265v347h-86v19h86v92h19v-92h98v-19h-98v-347h-19zM569 -42q-72 2 -121.5 51t-49.5 121q0 71 49.5 120.5t121.5 50.5q71 -1 120.5 -50.5t50.5 -120.5q-1 -72 -50.5 -121t-120.5 -51zM569 282q-64 -1 -108 -45t-44 -107
q0 -64 44 -107.5t108 -45.5q63 2 107 45.5t45 107.5q-1 63 -45 107t-107 45zM566 2q-53 1 -89.5 37.5t-36.5 88.5q0 53 37 89t89 37q52 -1 88.5 -37t37.5 -89q-1 -52 -37 -88.5t-89 -37.5zM566 240q-47 0 -79 -32.5t-33 -79.5q1 -46 33 -78.5t79 -33.5q47 1 79 33.5t33 78.5
q-1 47 -33 79.5t-79 32.5z" />
    <glyph glyph-name="uni306B" unicode="&#x306b;" 
d="M667 521v43h-195v19h195v52h14v-52h21v52h15v-52h38v-19h-38v-43h-15v43h-21v-43h-14zM499 14v46h-27v19h27v49h14v-49h21v49h15v-49h206v-19h-206v-46h-15v46h-21v-46h-14zM422 195l15 -12l-178 -227v737h19v-511q5 4 11 8q22 14 49 7q25 -7 39 -30q5 -9 8 -19zM278 159
v-148l94 120q0 16 -7 29q-11 18 -31 23t-38 -6q-11 -6 -18 -18z" />
    <glyph glyph-name="uni306C" unicode="&#x306c;" 
d="M536 373q-2 -23 -25 -25q-23 2 -25 25q2 23 25 25q23 -2 25 -25zM486 138q0 11 7.5 18t17.5 7q11 0 18 -7t7 -18q0 -10 -7 -17.5t-18 -7.5q-10 0 -17.5 7.5t-7.5 17.5zM414 28q-91 32 -146.5 109.5t-55.5 173.5q0 85 43.5 156t117.5 110l-59 151l18 7l59 -150
q57 27 121 26q63 0 122 -26l59 150l18 -7l-60 -152q73 -39 116.5 -110t43.5 -155q-1 -90 -51 -167q6 -16 6 -33q-1 -41 -30 -70t-70 -29q-31 0 -55 16q-1 1 -1 0l26 -65l-18 -7l-106 268l-106 -268l-17 7zM666 31q33 0 56.5 23.5t24.5 56.5q0 7 -1 13q-1 5 -2 9q-1 0 0 0
q-1 2 -1 3v0q0 2 -1 2v1q-1 1 -1 2v0q-1 2 -1 3v0q-1 1 -1 2q-24 45 -73 46q-34 1 -57.5 -23t-23.5 -58q1 -36 29 -61v0q4 -4 9 -7v0q3 -1 5 -3v0l6 -3q15 -6 32 -6zM792 311q-6 165 -148 247l-121 -308l46 -117q20 74 97 78q54 -1 85 -47q41 68 41 147zM512 592
q-60 0 -115 -25l115 -291l115 291q-55 25 -115 25zM380 559q-69 -36 -109 -102.5t-40 -145.5q0 -90 52 -162.5t138 -103.5v0l81 205z" />
    <glyph glyph-name="uni306D" unicode="&#x306d;" 
d="M243 254l113 220v163h-100v19h100v93h19v-93h97l-97 -187v-90l333 311v-518h63v-19h-63v-205l-264 224h245v283q-13 -15 -32 -23q-15 -6 -32 -7q-17 1 -31 6q-32 14 -46 45q-6 17 -6 33l-167 -156v-394h-19v376l-98 -92zM644 153v-48h45v48h-45zM496 153l193 -164v101
h-59v63h-134zM689 482v165l-131 -123q-5 -22 4 -42q11 -26 37 -37t53 0q26 11 37 38v-1zM356 361v71l-71 -137zM375 637v-127l65 127h-65z" />
    <glyph glyph-name="uni306E" unicode="&#x306e;" 
d="M512 12q-125 2 -211.5 88.5t-87.5 211.5q1 125 87.5 212t211.5 87t211.5 -87t88.5 -212q-1 -99 -59 -177.5t-152 -108.5l-6 18q89 28 143 102t55 166q-2 115 -80 195.5t-191 84.5v-579h-10v-1zM503 592q-115 -5 -192.5 -85t-78.5 -195q1 -114 78.5 -194.5t192.5 -85.5
v560zM531 101q89 2 150.5 63.5t62.5 149.5q-1 89 -62.5 150.5t-150.5 62.5v14q95 -1 160.5 -66.5t67.5 -160.5q-2 -94 -67.5 -160t-160.5 -67v14z" />
    <glyph glyph-name="uni306F" unicode="&#x306f;" 
d="M637 -28q-72 1 -121 50.5t-50 120.5q0 69 47 118t116 53v250h-112v19h112v141h19v-141h121v-19h-121v-250q67 -5 113 -53.5t47 -117.5q-1 -71 -50.5 -120.5t-120.5 -50.5zM629 143v0v112q-45 -3 -74.5 -35t-28.5 -76q0 -46 32 -78.5t79 -33.5q45 1 77 31.5t35 74.5h-6v10
h6q-2 42 -30.5 72.5t-70.5 34.5v-107v0v-10h-19v5zM629 295q-61 -4 -102.5 -47.5t-41.5 -104.5q1 -63 44.5 -107t107.5 -45q62 1 105.5 43.5t46.5 103.5h-8v10h8q-2 59 -42.5 100.5t-98.5 46.5v-26q49 -4 82 -39.5t33 -85.5q-1 -52 -37.5 -88.5t-88.5 -37.5
q-53 1 -89.5 37.5t-36.5 88.5q0 50 34 86t84 40v25zM667 138v10h19v-10h-19zM705 138v10h19v-10h-19zM420 195l15 -12l-177 -227v764h19v-538q4 5 10 8q23 14 49 7t40 -30q4 -9 7 -19zM371 131q0 16 -7 29q-12 18 -31 23q-21 5 -38 -6q-12 -7 -18 -18v-148z" />
    <glyph glyph-name="uni3070" unicode="&#x3070;" 
d="M616 -28q-72 1 -121.5 50.5t-50.5 120.5q1 69 47.5 118t115.5 53v250h-112v19h112v141h19v-141h117v146h19v-204h-19v39h-117v-250q68 -4 114 -53t47 -118q-1 -71 -50.5 -120.5t-120.5 -50.5zM727 138h-6v10h6q-2 43 -30.5 73t-70.5 34v-107v-5v-5h-19v5v5v107
q-44 -3 -73.5 -35t-29.5 -76q0 -46 32.5 -78.5t79.5 -33.5q44 1 76 31.5t35 74.5zM607 295q-61 -4 -102 -47.5t-42 -104.5q1 -63 45 -107t108 -45q62 1 105.5 43.5t46.5 103.5h-9v10h9q-3 59 -43.5 101t-98.5 46v-25q49 -5 82 -40.5t34 -85.5q-2 -52 -38 -88.5t-88 -37.5
q-53 1 -89.5 37.5t-36.5 88.5q0 50 33.5 86t83.5 40v25zM645 138v10h19v-10h-19zM683 138v10h19v-10h-19zM399 195l15 -12l-178 -227v764h19v-538q5 5 11 8q22 14 49 7q25 -7 39 -30q5 -9 8 -19zM255 159v-148l94 120q0 16 -7 29q-11 18 -31 23q-21 5 -38 -6q-12 -6 -18 -18
zM788 525v204h19v-204h-19z" />
    <glyph glyph-name="uni3071" unicode="&#x3071;" 
d="M428 143q0 69 47 118t116 53v250h-129v19h129v141h19v-141h72q-39 30 -39 78q0 41 28 69t69 28q40 0 68 -28.5t29 -68.5q-1 -40 -29 -68t-68 -29h-9v0h-121v-250q68 -4 113.5 -53t47.5 -118q-2 -71 -51.5 -120.5t-120.5 -50.5q-72 1 -121 50.5t-50 120.5zM662 661
q0 -33 22.5 -55t55.5 -23q32 1 54.5 23.5t23.5 54.5q-1 32 -23.5 55t-54.5 23q-33 0 -55.5 -22.5t-22.5 -55.5zM751 148q-2 59 -42.5 101t-98.5 46v-25q49 -5 82 -40.5t33 -85.5q-1 -52 -37.5 -88.5t-88.5 -37.5q-53 1 -89 37.5t-37 88.5q1 50 34.5 86t83.5 40v25
q-61 -4 -102.5 -47.5t-41.5 -104.5q1 -63 44.5 -107t107.5 -45q62 1 105.5 43.5t46.5 103.5h-8v10h8zM711 138h-6v10h6q-2 42 -30.5 72.5t-70.5 34.5v-107v0v-10h-19v5v0v112q-45 -3 -74.5 -35t-28.5 -76q0 -46 32 -78.5t79 -33.5q45 1 77 31.5t35 74.5zM667 138v10h19v-10
h-19zM629 138v10h19v-10h-19zM382 195l15 -12l-177 -227v764h19v-538q4 5 10 8q23 14 49 7t40 -30q5 -9 8 -19zM239 159v0v-148l94 120q0 16 -7 29q-11 18 -31 23q-21 5 -38 -6q-12 -6 -18 -18z" />
    <glyph glyph-name="uni3072" unicode="&#x3072;" 
d="M352 5v605h-72v19h91v-605h198v98h89v507h79v-19h-60v-605h-325zM583 107v-83h75v83h-75z" />
    <glyph glyph-name="uni3073" unicode="&#x3073;" 
d="M353 5v605h-71v19h90v-605h199v98h88v507h71v95h19v-204h-19v90h-52v-605h-325zM585 107v-83h74v83h-74zM775 520v204h19v-204h-19z" />
    <glyph glyph-name="uni3074" unicode="&#x3074;" 
d="M344 5v605h-71v19h90v-605h197v98h90v487q-2 7 -1 14q0 41 28 69t69 28q40 0 68 -28t29 -69q-1 -40 -29 -68t-68 -29q-48 1 -77 38v-559h-325zM746 701q-33 0 -55.5 -22.5t-22.5 -55.5q0 -32 22.5 -54.5t55.5 -23.5q32 1 54.5 23.5t23.5 54.5q-1 33 -23.5 55.5
t-54.5 22.5zM574 107v-83h76v83h-76z" />
    <glyph glyph-name="uni3075" unicode="&#x3075;" 
d="M607 474v-472h-228v301h19v-282h99v96h91v338h-72v19h91zM511 103v-82h77v82h-77zM247 -41v205h19v-205h-19zM758 -41v205h19v-205h-19zM454 698h145l-145 -159v159zM473 679v-90l83 90h-83z" />
    <glyph glyph-name="uni3076" unicode="&#x3076;" 
d="M607 474v-472h-229v301h19v-282h99v96h92v338h-72v19h91zM511 103v-82h77v82h-77zM247 -41v205h19v-205h-19zM757 -41v205h19v-205h-19zM454 698h145l-145 -158v158zM473 679v-90l83 90h-83zM696 520v204h19v-204h-19zM741 520v204h19v-204h-19z" />
    <glyph glyph-name="uni3077" unicode="&#x3077;" 
d="M605 474v-472h-228v301h19v-282h99v96h91v338h-72v19h91zM509 103v-82h77v82h-77zM245 -41v205h19v-205h-19zM755 -41v205h20v-205h-20zM452 698h145l-145 -159v159zM471 679v-90l83 90h-83zM760 540q-40 1 -68 29t-28 68q0 41 28 68.5t68 28.5q40 -1 68 -28.5t29 -68.5
q-1 -40 -28.5 -68t-68.5 -29zM760 715q-32 -1 -54.5 -23t-22.5 -55q0 -32 22.5 -55t54.5 -23q33 0 55 23t23 55q-1 33 -23.5 55t-54.5 23z" />
    <glyph glyph-name="uni3078" unicode="&#x3078;" 
d="M439 248l-224 -292l-15 11l316 413l312 -410l-15 -12l-220 290q-18 -57 -77 -61q-60 4 -77 61zM581 263l-65 86l-65 -85q7 -57 65 -63q57 6 65 62z" />
    <glyph glyph-name="uni3079" unicode="&#x3079;" 
d="M439 248l-224 -292l-15 11l316 413l312 -410l-15 -12l-220 290q-18 -57 -77 -61q-60 4 -77 61zM581 263l-65 86l-65 -85q7 -57 65 -63q57 6 65 62zM711 362v204h19v-204h-19zM756 362v204h19v-204h-19z" />
    <glyph glyph-name="uni307A" unicode="&#x307a;" 
d="M434 248l-224 -292l-15 11l317 413l311 -410l-15 -12l-220 290q-18 -57 -77 -61q-60 4 -77 61zM576 263l-65 86l-64 -85q6 -57 64 -63q57 6 65 62zM730 350q-41 0 -68.5 28.5t-28.5 68.5q1 40 28.5 68t68.5 28q40 0 68 -27.5t29 -68.5q-1 -41 -29 -69t-68 -28zM730 524
q-33 0 -55 -22.5t-23 -54.5q0 -32 22.5 -55t55.5 -23q32 0 55 22.5t23 55.5t-23 55t-55 22z" />
    <glyph glyph-name="uni307B" unicode="&#x307b;" 
d="M445 129q0 70 46.5 118.5t115.5 52.5v186h-117v19h117v164h-114v19h252v-19h-119v-164h116v-19h-116v-186q68 -4 114 -53t47 -118q-1 -71 -50.5 -120t-120.5 -51q-72 2 -121.5 51t-49.5 120zM768 134q-3 60 -43.5 101.5t-98.5 45.5v-25q48 -4 81 -38.5t35 -83.5h3v-9h-3
q-3 -51 -39.5 -85t-86.5 -36q-53 2 -89.5 38t-36.5 88q0 50 33.5 86t83.5 40v25q-61 -4 -102 -47t-41 -105q0 -63 44 -106.5t108 -45.5q62 1 105.5 43.5t46.5 104.5h-4v9h4zM728 125h-2v9h2q-3 43 -31.5 73.5t-70.5 34.5v-108h5v-9h-19v0h-5v117q-44 -4 -73.5 -35.5
t-29.5 -76.5q0 -46 32.5 -78.5t79.5 -32.5q45 0 77 30.5t35 75.5zM650 125v9h19v-9h-19zM688 125v9h19v-9h-19zM412 195l15 -12l-178 -227v756h19v-531q5 5 11 8q23 14 49 7q26 -6 40 -29q4 -9 7 -19zM268 159v-148l94 120q0 16 -7 29q-11 18 -31 23t-38 -6q-11 -6 -18 -18z
" />
    <glyph glyph-name="uni307C" unicode="&#x307c;" 
d="M441 129q0 70 46.5 118.5t115.5 52.5v186h-117v19h117v164h-114v19h251v45h19v-204h-19v140h-118v-164h116v-19h-116v-186q68 -4 114 -53t47 -118q-1 -71 -50.5 -120t-120.5 -51q-72 2 -121.5 51t-49.5 120zM764 134q-3 60 -43 101.5t-99 45.5v-25q48 -4 81 -38.5
t35 -83.5h3v-9h-3q-3 -51 -39 -85t-87 -36q-53 2 -89.5 38t-36.5 88q0 50 33.5 86t83.5 40v25q-61 -4 -102 -47t-41 -105q0 -63 44 -106.5t108 -45.5q62 1 105.5 43.5t46.5 104.5h-4v9h4zM724 125h-2v9h2q-2 43 -31 73.5t-71 34.5v-108h5v-9h-19v0h-5v117
q-44 -4 -73.5 -35.5t-29.5 -76.5q0 -46 32.5 -78.5t79.5 -32.5q45 0 77 30.5t35 75.5zM646 125v9h19v-9h-19zM684 125v9h19v-9h-19zM408 195l15 -12l-177 -227v756h19v-531q4 5 10 8q23 14 49 7q26 -6 40 -29q5 -9 7 -19zM265 159v-148l94 120q0 16 -7 29q-12 18 -31 23
q-21 5 -38 -6q-12 -6 -18 -18zM785 529v204h19v-204h-19z" />
    <glyph glyph-name="uni307D" unicode="&#x307d;" 
d="M435 129q0 70 46.5 118.5t115.5 52.5v186h-117v19h117v164h-114v19h178q5 37 32 60.5t65 23.5q39 0 67 -28t29 -69q-1 -39 -28.5 -67.5t-67.5 -29.5q-40 1 -67 27t-30 64h-45v-164h116v-19h-116v-186q68 -4 114 -53t47 -118q-1 -71 -50.5 -120t-120.5 -51
q-72 2 -121.5 51t-49.5 120zM758 753q-33 0 -55.5 -22.5t-22.5 -55.5q0 -31 22 -54t56 -24q32 1 54 24t23 54q-1 34 -23.5 56t-53.5 22zM758 134q-3 59 -43.5 101t-98.5 46v-25q48 -4 80.5 -38.5t35.5 -83.5h3v-9h-3q-4 -50 -40 -84.5t-86 -36.5q-53 2 -89.5 38t-36.5 88
q0 50 33.5 86t83.5 40v25q-61 -4 -102 -47t-41 -105q0 -63 44 -107t108 -45q62 1 105.5 43.5t46.5 104.5h-4v9h4zM717 125h-1v9h1q-2 43 -30.5 73.5t-70.5 34.5v-108h4v-9h-19v0h-4v117q-44 -4 -73.5 -35.5t-29.5 -76.5q0 -46 32.5 -78.5t79.5 -32.5q45 0 76.5 30.5
t34.5 75.5zM639 125v9h20v-9h-20zM678 125v9h19v-9h-19zM402 195l15 -12l-178 -227v756h19v-531q5 5 11 8q23 14 49 7q25 -6 39 -29q5 -9 8 -19zM258 159v-148l94 120q1 16 -7 29q-11 18 -31 23t-38 -6q-12 -6 -18 -18z" />
    <glyph glyph-name="uni307E" unicode="&#x307e;" 
d="M308 162q1 82 56.5 140.5t137.5 62.5v95h-168v19h168v157h-168v19h168v94h19v-94h168v-19h-168v-157h168v-19h-168v-95q82 -4 137.5 -62.5t56.5 -140.5q-1 -85 -60 -143.5t-143 -60.5q-85 2 -144 60.5t-60 143.5zM696 162q-1 74 -51 127t-124 57v-37q60 -4 100 -47
t41 -103q-1 -4 -1 -8h8v-10h-9q-7 -56 -49.5 -93t-98.5 -38q-63 1 -106.5 44t-43.5 105q0 60 40.5 103t99.5 47v37q-74 -4 -124 -57t-51 -127q1 -77 54 -130t131 -55q70 1 122 47.5t61 116.5h-7v10h8v11zM521 140h-19v155q-54 -4 -90 -43t-36 -93q1 -56 40 -95t96 -40
q56 1 95 40t40 95q-1 54 -36.5 93t-89.5 43v-155zM612 141v10h19v-10h-19zM574 141v10h19v-10h-19zM535 141v10h20v-10h-20z" />
    <glyph glyph-name="uni307F" unicode="&#x307f;" 
d="M201 267h205v370h-91v19h110v-389h285v91h19v-91h97v-19h-97v-262h-19v181h-70v81h-215v-272zM317 248h-78l37 -47v1q9 -8 23 -8q12 2 21 11q8 11 7 23t-10 20zM406 32v216h-71q6 -8 7 -19q1 -19 -11 -33q-13 -14 -31 -16h-4q-3 1 -4 0zM655 182h55v65h-55v-65z" />
    <glyph glyph-name="uni3080" unicode="&#x3080;" 
d="M602 739l220 -280h-220v280zM782 478l-161 206v-156h42v-50h119zM621 519v-41h32v41h-32zM383 126q-72 1 -121.5 50.5t-49.5 120.5q0 69 46.5 118t115.5 53v137h-84v19h84v93h19v-93h106v-19h-106v-137q68 -4 114 -53t47 -118q-1 -66 -44.5 -114t-107.5 -56v-112h285v369
h19v-388h-323v130zM383 449q-64 0 -108 -44t-44 -108q0 -63 44 -107t108 -45q63 1 107 45t45 107q-1 64 -45 108t-107 44zM383 172q-53 1 -89.5 37t-36.5 89t36.5 89.5t89.5 36.5q52 0 88.5 -36.5t37.5 -89.5q-1 -52 -37.5 -88.5t-88.5 -37.5zM383 410q-47 -1 -79.5 -33
t-32.5 -79q1 -47 33 -79t79 -33q46 1 78 33.5t34 78.5q-2 46 -34 78.5t-78 33.5z" />
    <glyph glyph-name="uni3081" unicode="&#x3081;" 
d="M411 27q-90 33 -144.5 110t-54.5 172q0 85 43 156t118 110l-59 151l18 7l59 -150q57 26 121 26q62 0 119 -25l59 149l17 -7l-59 -150q75 -39 119 -110.5t44 -156.5q0 -96 -55.5 -173.5t-145.5 -109.5l26 -65l-18 -7l-107 273l-108 -273l-18 7zM792 309q0 79 -41 146
t-110 103l-120 -305l82 -209q85 30 137 102.5t52 162.5zM512 590q-60 0 -115 -25l114 -286l113 287q-54 24 -112 24zM380 557q-69 -37 -109 -103t-40 -145q0 -89 51 -161.5t136 -103.5l82 209zM511 347q-23 3 -25 25q2 23 25 25q23 -2 25 -25q-2 -22 -25 -25zM486 136
q0 11 7.5 18t17.5 7q11 0 18 -7t7 -18q0 -10 -7 -17.5t-18 -7.5q-10 0 -17.5 7.5t-7.5 17.5z" />
    <glyph glyph-name="uni3082" unicode="&#x3082;" 
d="M406 2v402h-105v19h105v187h-105v19h105v85h19v-85h95v-19h-95v-187h95v-19h-95v-383h196v96h89v157h19v-272h-323zM636 103v-82h74v82h-74z" />
    <glyph glyph-name="uni3083" unicode="&#x3083;" 
d="M374 -62v458h-72v19h72v72h19v-72h229v72h19v-72h76v-257h-192v19h173v138h-76v81h-229v-458h-19zM698 396h-57v-62h57v62z" />
    <glyph glyph-name="uni3084" unicode="&#x3084;" 
d="M364 -42v624h-92v19h92v92h19v-92h230v92h19v-92h95v-317h-213v19h194v178h-95v101h-230v-624h-19zM708 582h-76v-82h76v82z" />
    <glyph glyph-name="uni3085" unicode="&#x3085;" 
d="M354 123q-44 59 -44 132q-1 8 0 14v0v200h19v-125q57 116 186 128v80h19v-80q88 -4 149 -66t62 -151q-1 -78 -49.5 -137.5t-124.5 -76.5l-3 19q68 16 112.5 70t45.5 125q-1 81 -56 137.5t-136 60.5v-41q63 -4 106 -48.5t44 -108.5q-1 -56 -36 -98.5t-89 -54.5l-3 14
q50 11 81.5 50t32.5 89q-1 58 -40 98.5t-96 43.5v-446h-19v446q-56 -5 -92.5 -45.5t-37.5 -96.5q0 -47 29 -86l-11 -9q-32 43 -32 95q0 62 41 107t103 49v42q-79 -5 -132 -61.5t-54 -136.5q0 -67 41 -121z" />
    <glyph glyph-name="uni3086" unicode="&#x3086;" 
d="M301 189q-55 73 -56 163q0 8 1 15v254h19v-168q30 74 94 119.5t144 49.5v101h19v-101q110 -4 185.5 -81.5t77.5 -188.5q-1 -96 -61 -169.5t-155 -94.5l-4 19q88 19 143.5 87.5t57.5 157.5q-2 103 -72 175t-172 76v-56q78 -3 132 -58.5t55 -135.5q-1 -69 -44 -122
t-111 -68l-3 14q63 14 103 63t41 113q-1 74 -51 125.5t-122 54.5v-573h-19v573q-72 -6 -120 -57t-48 -123q0 -60 37 -109l-11 -8q-40 52 -40 117q0 78 52 133t130 61v56q-98 -6 -165 -73t-73 -164v-1v0q-1 -6 -1 -13q0 -84 52 -151z" />
    <glyph glyph-name="uni3087" unicode="&#x3087;" 
d="M508 -38q-59 1 -99 41.5t-40 97.5q0 56 37 95.5t92 43.5v378h19v-77h156v-19h-156v-282q55 -4 91.5 -43.5t38.5 -95.5q-2 -57 -42 -97.5t-97 -41.5zM503 90h-5v99q-34 -3 -56 -28t-22 -59q0 -36 25.5 -61.5t62.5 -26.5q36 1 61.5 26.5t26.5 61.5q-1 34 -23.5 59t-55.5 28
v-99h-1v-1h-13v1zM498 221q-47 -4 -78.5 -38t-31.5 -82q0 -49 34.5 -84t85.5 -36q46 1 79.5 31.5t39.5 76.5h-16v9h17q-1 2 0 3q-2 48 -33 82t-78 38v-17q39 -4 65.5 -33t27.5 -69q-1 -42 -30.5 -72t-71.5 -30q-43 0 -73 30t-29 72q-1 40 25.5 69t66.5 33v17zM573 89v9h19
v-9h-19zM535 89v9h19v-9h-19z" />
    <glyph glyph-name="uni3088" unicode="&#x3088;" 
d="M511 -40q-85 1 -144 60t-59 143q0 83 56 141t138 63v356h19v-99h197v-19h-197v-238q81 -5 136.5 -63t57.5 -141q-2 -84 -60.5 -143t-143.5 -60zM521 300v-153h-19v153q-54 -4 -90 -42.5t-36 -93.5q0 -56 39 -95t96 -40q56 1 95.5 40t40.5 95q-1 55 -37 93.5t-89 42.5z
M502 348q-74 -5 -124.5 -57.5t-50.5 -127.5q0 -76 53.5 -129.5t130.5 -54.5q72 1 124 48.5t60 119.5h-10v9h11q-1 4 0 7q-2 75 -52 127.5t-123 57.5v-34q59 -4 99 -47t41 -103q-1 -3 0 -8h5v-9h-6q-8 -57 -50 -94.5t-99 -37.5q-63 1 -106 44t-44 105q1 60 41 103t100 47v34z
M609 147v9h19v-9h-19zM533 147v9h19v-9h-19zM571 147v9h19v-9h-19z" />
    <glyph glyph-name="uni3089" unicode="&#x3089;" 
d="M325 177v0v-20h-19v508h19v-398q27 62 83 99t124 36q93 0 158 -65t67 -160q-1 -80 -51 -141.5t-129 -78.5l-4 18q72 16 118 72.5t47 129.5q-2 87 -61.5 146.5t-144.5 59.5q-87 0 -146.5 -59.5t-60.5 -146.5v0zM679 119q-17 -49 -59.5 -79t-94.5 -31l-20 2l2 14
q52 -6 96.5 21.5t62.5 77.5q18 59 -8.5 113t-84.5 75q-59 19 -113 -7.5t-75 -85.5q-16 -47 0 -94l-13 -5q-18 52 0 104q22 64 81.5 93t124.5 8q63 -22 92.5 -81.5t8.5 -124.5zM518 724l220 -280h-220v280zM699 463l-162 206v-156h42v-50h120zM537 504v-41h33v41h-33z" />
    <glyph glyph-name="uni308A" unicode="&#x308a;" 
d="M381 257v391h19v-391h-19zM654 648v-647h-387v19h277v99h91v529h19zM559 105v-85h76v85h-76z" />
    <glyph glyph-name="uni308B" unicode="&#x308b;" 
d="M503 389q-87 -1 -146.5 -60.5t-59.5 -145.5h-19q1 105 82 173l-1 1l314 291h-297v19h346l-293 -272q35 13 74 13q93 -1 158 -66t67 -159q-1 -80 -51 -142t-129 -79l-4 19q72 16 118 72t47 130q-2 86 -61.5 145.5t-144.5 60.5zM650 125q-27 -74 -100 -101q-23 -13 -48 -14
q-38 1 -64 27t-26 63q0 38 26 64t64 27q37 -1 63 -26.5t27 -64.5q0 -24 -12 -45q40 28 57 74q18 59 -8 113q-27 55 -85 75q-59 19 -113 -7.5t-74 -85.5q-16 -46 0 -94l-14 -5q-18 53 0 104q23 64 82 93.5t124 7.5q63 -21 93 -81q29 -60 8 -124zM431 100q0 -28 20 -49t49 -22
q7 1 14 1q55 14 59 70q-1 31 -21.5 51t-49.5 21q-30 -1 -50.5 -21.5t-20.5 -50.5z" />
    <glyph glyph-name="uni308C" unicode="&#x308c;" 
d="M265 232l113 234v176h-100v19h100v90h19v-90h96l-96 -199v-92l135 139q-1 1 0 1v0l155 160v-649h112v-19h-131v418q-25 -24 -59 -25q-17 0 -31 6q-32 14 -46 45q-6 15 -6 30l-129 -134v-338h-19v319l-98 -102zM668 443v180l-127 -131q-4 -20 5 -40q10 -26 37 -37
q53 -17 85 28zM378 350v73l-70 -146zM397 642v-136l66 136h-66z" />
    <glyph glyph-name="uni308D" unicode="&#x308d;" 
d="M515 388q-86 0 -145.5 -60t-60.5 -146h-19q2 106 82 174v0l314 291h-297v19h345l-292 -271q35 12 73 12q94 -1 159 -66t66 -159q-1 -80 -51 -141.5t-128 -78.5l-4 18q71 16 117.5 72t46.5 130q-1 86 -60.5 145.5t-145.5 60.5zM663 124q-18 -49 -60 -79t-94 -31
q-10 0 -20 1l2 15q52 -6 96 21.5t62 77.5q19 58 -7 113q-29 54 -85 74q-59 20 -113.5 -7t-74.5 -85q-16 -47 0 -95l-14 -4q-17 52 1 103q22 64 81 93.5t124 8.5q63 -22 94 -82q28 -60 8 -124z" />
    <glyph glyph-name="uni308E" unicode="&#x308e;" 
d="M490 357q76 -1 129 -53.5t54 -129.5q-1 -76 -54 -128.5t-129 -54.5q-66 2 -116 43q-19 16 -32 35v-69h-19v242l-5 -10l-17 9l22 43v249h-62v19h62v81h19v-81h140l-138 -268q56 71 146 73zM342 533v-212l109 212h-109zM490 10q68 2 115.5 49t48.5 115q-1 19 -4 37
q-3 0 -5 -2l-3 9q2 1 5 3v0q-2 2 -4 3l2 4q-43 105 -155 110q-101 -4 -148 -94v-137q15 -34 44 -58q45 -38 104 -39zM421 196l1 9q6 0 12 -1l-1 -9q-6 1 -12 1zM422 246q6 1 13 1v-10q-6 1 -12 0zM398 244q5 1 12 1l1 -9q-7 0 -12 -1zM447 248h13v-10q-7 1 -12 0zM471 194v9
h12v-10zM346 207l3 9q5 -2 12 -3l-2 -9q-7 1 -13 3zM472 248h13v-9h-12zM348 235q6 3 12 3l2 -9q-6 -1 -11 -3zM396 198l1 9q6 0 12 -1v-9q-7 1 -13 1zM373 241q6 1 12 1l1 -9q-6 0 -12 -2zM371 201l2 10q5 -1 12 -2l-1 -10q-7 2 -13 2zM446 194v10q6 0 13 -1l-1 -9h-12z
M596 234l1 9q6 0 13 -2l-2 -9zM594 208q6 1 13 2l1 -10q-7 0 -12 -1zM570 206q6 1 12 1l1 -10q-6 0 -12 -1zM571 236l1 10q6 -1 13 -2l-1 -9q-7 1 -13 1zM619 212q5 1 12 2l2 -9q-7 -1 -13 -3zM620 230l2 9q6 -1 12 -3l-2 -9q-6 2 -12 3zM496 203h12v-10q-6 1 -12 0v10z
M497 239v9h13v-9h-13zM521 203q6 1 12 1v-10q-7 1 -12 0v9zM522 239v9q6 1 13 0l-1 -10q-6 0 -12 1zM547 238v9q6 0 13 -1l-1 -9q-7 1 -12 1zM545 204q6 1 13 1v-10h-12z" />
    <glyph glyph-name="uni308F" unicode="&#x308f;" 
d="M344 340v0v315h-80v19h80v104h19v-104h173l-173 -338v-7q68 98 188 101q94 -1 159 -66.5t67 -159.5q-2 -95 -67.5 -160t-158.5 -66q-82 1 -145 52q-25 22 -43 49v-93h-19v129v0v0v184l-11 -22l-17 9zM551 411q-130 -5 -188 -120v-172q19 -43 56 -74q57 -47 132 -48
q85 1 145 60.5t62 146.5q-1 24 -6 48l-8 -4l-4 9q5 2 9 5q-4 4 -7 4l3 8q-23 62 -76 99.5t-118 37.5zM505 655h-142v-278zM637 293l-1 -10q-8 1 -15 1v10q8 -1 16 -1zM635 231q-8 0 -15 -1l-1 10q8 1 16 1v-10zM575 295v-9h-16v9q7 1 16 0zM606 294v-9h-16v10q8 0 16 -1z
M604 230q-8 -1 -15 -1l-1 10h16v-9zM730 280l-2 -9q-8 2 -15 3l2 10q7 -2 15 -4zM668 290l-1 -9q-8 0 -15 1l1 10q7 0 15 -2zM573 229h-16v9q8 1 16 0v-9zM728 243q-7 -1 -15 -3l-2 9q7 2 15 4zM697 237q-8 0 -15 -2l-1 10q7 1 15 2zM699 286l-1 -9q-8 2 -15 2l1 9
q7 0 15 -2zM666 234q-8 -1 -15 -2l-1 10q7 1 15 1zM420 278q-8 0 -15 -2l-1 10q7 1 15 2zM419 246l-2 -10q-8 2 -15 3l1 9zM544 286h-16v9q7 1 16 0v-9zM451 282q-8 -1 -15 -2l-1 10q7 1 15 1zM388 251l-2 -9q-8 2 -15 4l3 9zM390 273q-8 0 -15 -3l-2 9q6 3 15 4zM449 242
l-1 -9q-8 1 -15 2l1 9q7 -1 15 -2zM542 238v-9h-16v9q8 1 16 0zM513 285h-16v9q7 1 15 1zM511 239v-10q-8 1 -16 1v9h16zM482 284q-8 0 -16 -1v9q7 2 15 1zM480 240v-9q-9 1 -16 1l1 9q7 0 15 -1z" />
    <glyph glyph-name="uni3090" unicode="&#x3090;" 
d="M420 23q-82 31 -131.5 101.5t-49.5 157.5q1 115 80 194t194 80q56 1 109 -22l48 122h-289v19h317l-59 -149q68 -36 108 -101t41 -143q-1 -84 -47 -154q4 -14 4 -29q-1 -38 -27 -64.5t-64 -26.5q-39 1 -65 27t-26 64t26 64.5t65 26.5q49 0 77 -42q37 62 38 134
q-6 151 -137 226l-218 -551l-17 7zM654 25q30 1 52 22t22 52t-21.5 52.5t-52.5 21.5t-52.5 -21.5t-21.5 -52.5q0 -30 21.5 -51.5t52.5 -22.5zM463 131l116 296q-30 12 -62 12q-66 0 -112 -46t-47 -113q5 -107 105 -149zM513 537q-107 -1 -180.5 -74.5t-74.5 -180.5
q0 -81 46 -147t123 -94l29 72q-53 20 -85 65.5t-32 101.5q1 75 52.5 126.5t125.5 51.5q36 0 69 -14l29 72q-49 22 -102 21z" />
    <glyph glyph-name="uni3091" unicode="&#x3091;" 
d="M540 259q-12 -7 -23 -10l92 -249h-188l88 247h-9q-30 0 -50.5 21t-20.5 50q0 30 20.5 50.5t50.5 20.5q29 0 49.5 -20.5t21.5 -50.5q0 -14 -6 -28q25 20 36 51q14 43 -6 84q-21 42 -64 56q-43 15 -84 -6q-41 -20 -56 -63q-12 -35 0 -71l-14 -5q-13 41 0 80q17 50 64 72
q46 23 95 7q48 -17 72 -64q22 -46 6 -95q-20 -55 -74 -77zM513 203l-30 -86q7 -24 32 -26q22 2 32 22zM448 19v0h133l-30 82q-13 -18 -36 -19q-24 1 -37 22zM448 318q4 -47 52 -52q47 5 52 52q-5 48 -52 52q-48 -4 -52 -52zM405 502q-58 -47 -59 -121h-19q1 82 64 134v1l3 2
q11 9 24 15l199 130h-213v19h277l-198 -129q8 2 17 1q72 0 122.5 -50.5t51.5 -122.5q-1 -62 -39.5 -109.5t-99.5 -60.5l-3 18q53 12 87.5 54.5t35.5 97.5q-1 64 -46 109t-109 45q-39 0 -72 -18zM677 0v248l222 -248h-222zM729 19v41h-33v-41h33zM856 19l-160 179v-129h42
v-50h118zM357 248v-248h-222zM338 198l-160 -179h118v50h42v129zM338 19v41h-33v-41h33z" />
    <glyph glyph-name="uni3092" unicode="&#x3092;" 
d="M717 18v0v-19h-338v307h228v103h-133v228h-91v19h91v94h19v-94h96v-19h-96v-209h133v-122h91v-19h-91v-172h-19v172h-209v-173h90v-96h229zM474 99h-76v-81h76v81z" />
    <glyph glyph-name="uni3093" unicode="&#x3093;" 
d="M397 334v-336h-19v699h19v-344h204v-335h190v-19h-209v233h-93v102h-92zM582 247v86h-79v-86h79z" />
    <glyph glyph-name="uni3094" unicode="&#x3094;" 
 />
    <glyph glyph-name="uni309B" unicode="&#x309b;" 
 />
    <glyph glyph-name="uni309C" unicode="&#x309c;" 
d="M160 613q-40 1 -68 29t-28 68t28 68t68 28q41 0 69 -28t28 -68t-28 -68t-69 -29zM160 787q-32 0 -54.5 -22.5t-22.5 -54.5t22.5 -54.5t54.5 -23.5q33 1 55.5 23.5t22.5 54.5t-22.5 54.5t-55.5 22.5z" />
    <glyph glyph-name="uni309D" unicode="&#x309d;" 
 />
    <glyph glyph-name="uni309E" unicode="&#x309e;" 
 />
    <glyph glyph-name="uni30A1" unicode="&#x30a1;" 
d="M647 211v271h-298v20h317v-388h-205v-156h-19v335h19v-160h116v78h70zM590 198v-65h57v65h-57z" />
    <glyph glyph-name="uni30A2" unicode="&#x30a2;" 
d="M678 271v339h-371v19h390v-474h-253v-195h-19v414h19v-200h146v97h88zM604 257v-83h74v83h-74z" />
    <glyph glyph-name="uni30A3" unicode="&#x30a3;" 
d="M498 -40v144h-169v19h206v69h68v286h19v-374h-105v-144h-19zM550 178v-55h53v55h-53z" />
    <glyph glyph-name="uni30A4" unicode="&#x30a4;" 
d="M505 -39v204h-239v19h290v97h95v388h19v-504h-146v-204h-19zM570 267v-83h79v83h-79z" />
    <glyph glyph-name="uni30A5" unicode="&#x30a5;" 
d="M366 448v0v-188h-19v207h143v71h19v-71h143v-505h-227v19h143v71h65v396h-267zM582 38v-57h51v57h-51z" />
    <glyph glyph-name="uni30A6" unicode="&#x30a6;" 
d="M344 599v-235h-19v254h177v89h19v-89h176v-619h-278v19h178v88h81v493h-334zM611 92v-74h67v74h-67z" />
    <glyph glyph-name="uni30A7" unicode="&#x30a7;" 
d="M395 -63v30h-35v19h35v34h14v-34h12v34h14v-34h68v456h-143v19h223v32h14v-32h12v32h14v-32h36v-19h-36v-32h-14v32h-12v-32h-14v32h-61v-456h137v-19h-224v-30h-14v30h-12v-30h-14z" />
    <glyph glyph-name="uni30A8" unicode="&#x30a8;" 
d="M372 -18v39h-44v19h44v45h14v-45h18v45h14v-45h88v568h-178v19h276v42h14v-42h18v42h14v-42h46v-19h-46v-42h-14v42h-18v-42h-14v42h-79v-568h171v-19h-278v-39h-14v39h-18v-39h-14z" />
    <glyph glyph-name="uni30A9" unicode="&#x30a9;" 
d="M358 100l-15 11l237 305h-156v19h169v67h19v-67h65v-19h-65v-454h-158v19h139v247q-20 -18 -46 -20q-10 1 -18 3q-25 8 -38 31q-6 9 -7 20zM533 225q41 -8 60 29v148l-95 -122q-2 -17 6 -32q9 -17 29 -23z" />
    <glyph glyph-name="uni30AA" unicode="&#x30aa;" 
d="M290 183l-15 12l323 416h-218v19h232v92h19v-92h90v-19h-90v-612h-209v19h190v344q-11 -13 -26 -22q-19 -9 -39 -10q-13 1 -24 3q-53 18 -59 73zM580 353q22 13 32 38v206l-133 -171q-7 -58 48 -79q27 -7 53 6z" />
    <glyph glyph-name="uni30AB" unicode="&#x30ab;" 
d="M462 264v346h-116v19h116v93h19v-93h208v-631h-333v19h221v100h93v493h-189v-346h-19zM591 103v-86h79v86h-79z" />
    <glyph glyph-name="uni30AC" unicode="&#x30ac;" 
d="M445 264v0v346h-116v19h116v93h19v-93h207v-631h-332v19h221v100h92v493h-188v-346h-19zM574 103v-86h78v86h-78zM721 569v204h19v-204h-19zM766 569v204h19v-204h-19z" />
    <glyph glyph-name="uni30AD" unicode="&#x30ad;" 
d="M500 -46v456h-193v19h193v181h-193v19h193v92h19v-92h197v-19h-197v-181h197v-19h-197v-456h-19z" />
    <glyph glyph-name="uni30AE" unicode="&#x30ae;" 
d="M492 -46v456h-193v19h193v180h-193v19h193v93h19v-93h188v145h19v-204h-19v40h-188v-180h197v-19h-197v-456h-19zM744 569v204h20v-204h-20z" />
    <glyph glyph-name="uni30AF" unicode="&#x30af;" 
d="M369 619v-104h-19v204h19v-81h304v-639h-304v19h189v103h96v498h-285zM573 107v-87h79v87h-79z" />
    <glyph glyph-name="uni30B0" unicode="&#x30b0;" 
d="M370 619v-105h-19v205h19v-81h304v-639h-304v19h285v601h-285zM731 563v214h19v-214h-19zM784 563v214h19v-214h-19z" />
    <glyph glyph-name="uni30B1" unicode="&#x30b1;" 
d="M333 512v0v-98h-19v310h19v-95h400v-19h-193v-656h-20v656h-98v-98h-89zM408 527v83h-75v-83h75z" />
    <glyph glyph-name="uni30B2" unicode="&#x30b2;" 
d="M322 512v-98h-19v310h19v-95h385v149h19v-214h-19v46h-179v-656h-19v656h-98v-98h-89zM397 527v83h-75v-83h75zM759 564v214h19v-214h-19z" />
    <glyph glyph-name="uni30B3" unicode="&#x30b3;" 
d="M683 112v501h-364v19h383v-637h-379v19h270v98h90zM607 98v-84h76v84h-76z" />
    <glyph glyph-name="uni30B4" unicode="&#x30b4;" 
d="M692 112v501h-364v19h383v-637h-379v19h270v98h90zM616 98v-84h76v84h-76zM757 565v214h19v-214h-19zM810 565v214h19v-214h-19z" />
    <glyph glyph-name="uni30B5" unicode="&#x30b5;" 
d="M376 421v180h-96v19h96v102h19v-102h210v103h19v-103h94v-19h-94v-596h-242v19h129v104h94v473h-210v-180h-19zM525 114v-87h79v87h-79z" />
    <glyph glyph-name="uni30B6" unicode="&#x30b6;" 
d="M381 421v180h-95v19h95v102h19v-102h210v103h19v-103h86v159h19v-214h-19v36h-86v-596h-242v19h129v104h94v473h-210v-180h-19zM609 27v87h-78v-87h78zM767 565v214h19v-214h-19z" />
    <glyph glyph-name="uni30B7" unicode="&#x30b7;" 
d="M590 25v103h90v569h19v-691h-306v19h197zM604 114v-86h76v86h-76zM338 631v19h206v-19h-206zM338 435v19h201v-19h-201z" />
    <glyph glyph-name="uni30B8" unicode="&#x30b8;" 
d="M562 25v103h90v569h19v-691h-306v19h197zM576 114v-86h76v86h-76zM309 631v19h206v-19h-206zM309 435v19h202v-19h-202zM706 565v214h20v-214h-20zM759 565v214h19v-214h-19z" />
    <glyph glyph-name="uni30B9" unicode="&#x30b9;" 
d="M307 -36l-17 10l399 656h-371v19h405l-185 -305l197 -375l-16 -9l-119 224q-21 -52 -78 -55q-59 3 -79 58zM590 204l-64 121l-73 -120q11 -57 69 -62q57 5 68 61z" />
    <glyph glyph-name="uni30BA" unicode="&#x30ba;" 
d="M285 -36l-16 10l399 656h-371v19h389v110h19v-214h-19v78l-170 -279l198 -375l-17 -9l-118 224q-22 -52 -78 -55q-59 3 -80 58zM569 204l-64 121l-73 -120q10 -57 69 -62q56 5 68 61zM738 545v214h19v-214h-19z" />
    <glyph glyph-name="uni30BB" unicode="&#x30bb;" 
d="M396 4v598h-100v19h100v102h19v-102h294v-217h-110v19h91v179h-275v-477h93v-102h199v-19h-311zM493 110h-78v-86h78v86z" />
    <glyph glyph-name="uni30BC" unicode="&#x30bc;" 
d="M377 4v598h-99v19h99v102h19v-102h294v-217h-109v19h90v179h-275v-477h93v-102h200v-19h-312zM475 110h-79v-86h79v86zM714 545v214h19v-214h-19zM766 545v214h19v-214h-19z" />
    <glyph glyph-name="uni30BD" unicode="&#x30bd;" 
d="M609 23v101h89v569h19v-689h-327v19h219zM698 109h-75v-86h75v86zM308 698l220 -280h-220v280zM488 437l-161 206v-155h42v-51h119zM327 478v-40h32v40h-32z" />
    <glyph glyph-name="uni30BE" unicode="&#x30be;" 
d="M757 479v214h19v-214h-19zM810 479v214h19v-214h-19zM567 23v101h90v569h19v-689h-328v19h219zM657 109h-76v-86h76v86zM266 698l220 -280h-220v280zM446 437l-161 206v-155h42v-51h119zM285 478v-40h32v40h-32z" />
    <glyph glyph-name="uni30BF" unicode="&#x30bf;" 
d="M368 630v-193h-19v311h19v-99h290v-641h-309v19h196v98h94v235h-191v19h191v251h-271zM559 111v-84h79v84h-79z" />
    <glyph glyph-name="uni30C0" unicode="&#x30c0;" 
d="M377 630v-193h-19v311h19v-99h290v-641h-309v19h196v98h94v235h-191v19h191v251h-271zM568 111v-84h79v84h-79zM711 548v204h19v-204h-19zM756 548v204h19v-204h-19z" />
    <glyph glyph-name="uni30C1" unicode="&#x30c1;" 
d="M545 8v-2h-261v19h155v98h87v240h-198v19h198v211l-179 -124l-10 15l320 222l11 -16l-123 -84v-224h167v-19h-167v-240h1v-115h-1zM453 109v-84h73v84h-73z" />
    <glyph glyph-name="uni30C2" unicode="&#x30c2;" 
d="M545 8v-2h-261v19h155v98h87v240h-198v19h198v211l-179 -124l-10 15l320 222l11 -16l-123 -84v-224h167v-19h-167v-240h1v-115h-1zM453 109v-84h73v84h-73z" />
    <glyph glyph-name="uni30C3" unicode="&#x30c3;" 
d="M593 47h64v504h19v-591h-165v19h82v68zM606 35v-56h51v56h-51zM448 466v-196l-166 212h154h12h154v-212zM583 463h-108l108 -138v138zM429 325v138h-108z" />
    <glyph glyph-name="uni30C4" unicode="&#x30c4;" 
d="M644 123h90v600h19v-717h-225v19h116v98zM659 108v-83h75v83h-75zM437 615v-272l-220 280h214h6h214v-280zM632 604h-161l161 -206v206zM418 398v206h-162z" />
    <glyph glyph-name="uni30C5" unicode="&#x30c5;" 
d="M642 123h90v336h19v-453h-225v19h116v98zM656 108v-83h76v83h-76zM435 615v-272l-220 280h214h6h214v-280zM630 604h-162l162 -206v206zM416 398v206h-162zM711 524v204h19v-204h-19zM756 524v204h19v-204h-19z" />
    <glyph glyph-name="uni30C6" unicode="&#x30c6;" 
d="M306 614v19h414v-19h-414zM507 123v314h-201v19h413v-19h-193v-435h-215v19h106v102h90zM431 109v-86h76v86h-76z" />
    <glyph glyph-name="uni30C7" unicode="&#x30c7;" 
d="M306 614v19h414v-19h-414zM507 123v314h-201v19h413v-19h-193v-435h-215v19h106v102h90zM431 109v-86h76v86h-76zM745 571v207h19v-207h-19zM787 571v207h19v-207h-19z" />
    <glyph glyph-name="uni30C8" unicode="&#x30c8;" 
d="M407 -38h-19v709h19v-293h299v-19h-205v-97h-94v-300zM487 276v83h-79v-83h79z" />
    <glyph glyph-name="uni30C9" unicode="&#x30c9;" 
d="M407 -38h-19v709h19v-293h299v-19h-205v-97h-94v-300zM487 276v83h-79v-83h79zM697 571v207h19v-207h-19zM739 571v207h19v-207h-19z" />
    <glyph glyph-name="uni30CA" unicode="&#x30ca;" 
d="M279 -3l265 369v241h-251v19h251v95h19v-95h210v-19h-210v-145q37 -9 56 -43q19 -38 6 -79q-13 -37 -48 -55q-20 -9 -42 -10q-15 1 -29 5l-212 -294zM606 412q-14 27 -43 35v-87l-1 -3l-47 -65q28 -7 56 6q29 16 41 47q11 35 -6 67z" />
    <glyph glyph-name="uni30CB" unicode="&#x30cb;" 
d="M621 454v45h-312v19h312v51h14v-51h21v51h14v-51h54v-19h-54v-45h-14v45h-21v-45h-14zM367 12v46h-112v19h112v49h14v-49h22v49h14v-49h361v-19h-361v-46h-14v46h-22v-46h-14z" />
    </font>
</defs>
</svg>
