<svg width="1282" height="751" xmlns="http://www.w3.org/2000/svg" xmlns:xlink="http://www.w3.org/1999/xlink" overflow="hidden"><defs><clipPath id="clip0"><path d="M-1-30 1281-30 1281 721-1 721Z" fill-rule="evenodd" clip-rule="evenodd"/></clipPath></defs><g clip-path="url(#clip0)" transform="translate(1 30)"><path d="M0 720C142.222 400 508.889 190 1100 90.0003L1089.86 0 1280 144 1130.42 360 1120.28 270C586.76 310 213.333 460 0 720Z" fill="#FFDFB3" fill-rule="evenodd"/><path d="M122.5 547.5C122.5 540.32 128.544 534.5 136 534.5 143.456 534.5 149.5 540.32 149.5 547.5 149.5 554.68 143.456 560.5 136 560.5 128.544 560.5 122.5 554.68 122.5 547.5Z" stroke="#FFFFFF" stroke-width="1.33333" stroke-miterlimit="8" fill="#BC8C00" fill-rule="evenodd"/><text font-family="BIZ UDPGothic,BIZ UDPGothic_MSFontService,sans-serif" font-weight="400" font-size="47" transform="translate(143.239 591)">2<tspan x="35.4533" y="0">年生</tspan><tspan font-size="24" x="0" y="55">•</tspan><tspan font-size="24" x="18" y="55">工学実験</tspan><tspan font-size="24" x="0" y="88">•</tspan><tspan font-size="24" x="18" y="88">ラズパイコンテスト</tspan></text><path d="M365.5 391.5C365.5 378.798 375.798 368.5 388.5 368.5 401.203 368.5 411.5 378.798 411.5 391.5 411.5 404.203 401.203 414.5 388.5 414.5 375.798 414.5 365.5 404.203 365.5 391.5Z" stroke="#FFFFFF" stroke-width="1.33333" stroke-miterlimit="8" fill="#BF9000" fill-rule="evenodd"/><text font-family="BIZ UDPGothic,BIZ UDPGothic_MSFontService,sans-serif" font-weight="400" font-size="59" transform="translate(423.51 444)">3・<tspan x="73.9066" y="0">4</tspan>年生<tspan font-size="27" x="0" y="66">•</tspan><tspan font-size="27" x="24" y="66">エンジニアリングデザイン</tspan><tspan font-size="27" x="0" y="103">•</tspan><tspan font-size="27" x="24" y="103">インターンシップ</tspan></text><path d="M604.5 276C604.5 259.155 618.155 245.5 635 245.5 651.845 245.5 665.5 259.155 665.5 276 665.5 292.845 651.845 306.5 635 306.5 618.155 306.5 604.5 292.845 604.5 276Z" stroke="#FFFFFF" stroke-width="1.33333" stroke-miterlimit="8" fill="#FFD966" fill-rule="evenodd"/><text font-family="BIZ UDPGothic,BIZ UDPGothic_MSFontService,sans-serif" font-weight="400" font-size="64" transform="translate(396.181 58)">5<tspan x="48.6267" y="0">年生</tspan><tspan font-size="37" x="0" y="80">•</tspan><tspan font-size="37" x="30" y="80">研究室</tspan><tspan font-size="37" x="0" y="131">•</tspan><tspan font-size="37" x="30" y="131">卒業研究</tspan></text><path d="M864.5 204.5C864.5 181.856 882.856 163.5 905.5 163.5 928.144 163.5 946.5 181.856 946.5 204.5 946.5 227.144 928.144 245.5 905.5 245.5 882.856 245.5 864.5 227.144 864.5 204.5Z" stroke="#FFFFFF" stroke-width="1.33333" stroke-miterlimit="8" fill="#FFE699" fill-rule="evenodd"/><text font-family="BIZ UDPGothic,BIZ UDPGothic_MSFontService,sans-serif" font-weight="400" font-size="72" transform="translate(894.179 326)">卒業後<tspan font-size="53" x="0" y="100">•</tspan><tspan font-size="53" x="30" y="100">学会発表</tspan><tspan font-size="53" x="0" y="173">•</tspan><tspan font-size="53" x="30" y="173">チーム開発</tspan></text></g></svg>