<svg xmlns="http://www.w3.org/2000/svg" xmlns:xlink="http://www.w3.org/1999/xlink" viewBox="0 0 375 375"><defs><clipPath id="a" transform="translate(0.59 -5.27)"><rect x="1" y="5.27" width="373.41" height="373.73" style="fill:none"/></clipPath><clipPath id="b" transform="translate(0.59 -5.27)"><rect x="1" y="4" width="375" height="375" style="fill:none"/></clipPath><clipPath id="c" transform="translate(0.59 -5.27)"><rect x="104.68" y="45.24" width="167.25" height="167.25" style="fill:none"/></clipPath></defs><g style="clip-path:url(#a)"><path d="M373.66,193.52H352.59a.76.76,0,0,1-.75-.75.75.75,0,0,1,.75-.74h21.07a.75.75,0,0,1,.75.74.76.76,0,0,1-.75.75" transform="translate(0.59 -5.27)" style="fill:#4c493d"/><path d="M349.43,161.2a.75.75,0,0,1-.73-.6.74.74,0,0,1,.58-.88l20.65-4.11a.74.74,0,1,1,.29,1.46l-20.65,4.11-.14,0" transform="translate(0.59 -5.27)" style="fill:#4c493d"/><path d="M370.08,230h-.15l-20.65-4.11a.75.75,0,0,1,.29-1.47l20.65,4.11a.75.75,0,0,1-.14,1.48" transform="translate(0.59 -5.27)" style="fill:#4c493d"/><path d="M340,130.1a.75.75,0,0,1-.29-1.44l19.43-8a.74.74,0,0,1,1,.4.73.73,0,0,1-.4,1l-19.43,8a.71.71,0,0,1-.28.06" transform="translate(0.59 -5.27)" style="fill:#4c493d"/><path d="M359.45,265a.94.94,0,0,1-.29-.06l-19.43-8.05a.73.73,0,0,1-.4-1,.74.74,0,0,1,1-.4l19.43,8a.73.73,0,0,1,.4,1,.74.74,0,0,1-.68.47" transform="translate(0.59 -5.27)" style="fill:#4c493d"/><path d="M352.59,193.52H339.85a.76.76,0,0,1-.75-.75.75.75,0,0,1,.75-.74h12.74a.74.74,0,0,1,.74.74.75.75,0,0,1-.74.75" transform="translate(0.59 -5.27)" style="fill:#4c493d"/><path d="M339.12,178.53A.75.75,0,0,1,339,177l12.68-1.24a.73.73,0,0,1,.82.67.74.74,0,0,1-.67.81l-12.68,1.26h-.07" transform="translate(0.59 -5.27)" style="fill:#4c493d"/><path d="M351.8,209.76h-.08L339,208.51a.75.75,0,0,1,.15-1.49l12.68,1.25a.75.75,0,0,1,.67.82.73.73,0,0,1-.74.67" transform="translate(0.59 -5.27)" style="fill:#4c493d"/><path d="M336.94,163.68a.75.75,0,0,1-.15-1.48l12.49-2.48a.74.74,0,1,1,.29,1.46l-12.48,2.48-.15,0" transform="translate(0.59 -5.27)" style="fill:#4c493d"/><path d="M349.43,225.84h-.15l-12.49-2.48a.75.75,0,0,1,.3-1.47l12.48,2.48a.75.75,0,0,1-.14,1.48" transform="translate(0.59 -5.27)" style="fill:#4c493d"/><path d="M333.3,149.12a.75.75,0,0,1-.22-1.47l12.19-3.7a.75.75,0,1,1,.44,1.43l-12.19,3.71-.22,0" transform="translate(0.59 -5.27)" style="fill:#4c493d"/><path d="M345.49,241.63l-.22,0-12.19-3.71a.75.75,0,1,1,.44-1.43l12.19,3.7a.75.75,0,0,1-.22,1.47" transform="translate(0.59 -5.27)" style="fill:#4c493d"/><path d="M324.68,101.47a.75.75,0,0,1-.41-1.37l17.5-11.7a.76.76,0,0,1,1,.2.75.75,0,0,1-.2,1l-17.52,11.7a.79.79,0,0,1-.41.13" transform="translate(0.59 -5.27)" style="fill:#4c493d"/><path d="M342.19,297.27a.81.81,0,0,1-.42-.12l-17.5-11.7a.74.74,0,0,1,.82-1.24l17.52,11.7a.74.74,0,0,1,.2,1,.75.75,0,0,1-.62.33" transform="translate(0.59 -5.27)" style="fill:#4c493d"/><path d="M340,256.94a.58.58,0,0,1-.29-.06L328,252a.74.74,0,0,1-.4-1,.73.73,0,0,1,1-.4l11.77,4.88a.74.74,0,0,1,.4,1,.72.72,0,0,1-.68.46" transform="translate(0.59 -5.27)" style="fill:#4c493d"/><path d="M328.24,135a.75.75,0,0,1-.28-1.44l11.77-4.88a.75.75,0,0,1,1,.41.74.74,0,0,1-.4,1l-11.77,4.88a.72.72,0,0,1-.29.06" transform="translate(0.59 -5.27)" style="fill:#4c493d"/><path d="M321.82,121.41a.74.74,0,0,1-.35-1.4l11.23-6a.75.75,0,0,1,.7,1.32l-11.23,6a.73.73,0,0,1-.35.09" transform="translate(0.59 -5.27)" style="fill:#4c493d"/><path d="M333.05,271.63a.85.85,0,0,1-.35-.08l-11.23-6a.75.75,0,1,1,.7-1.32l11.23,6a.74.74,0,0,1-.35,1.4" transform="translate(0.59 -5.27)" style="fill:#4c493d"/><path d="M314.09,108.55a.75.75,0,0,1-.41-1.37l10.59-7.08a.74.74,0,1,1,.82,1.24l-10.59,7.08a.69.69,0,0,1-.41.13" transform="translate(0.59 -5.27)" style="fill:#4c493d"/><path d="M324.68,285.57a.7.7,0,0,1-.41-.12l-10.59-7.08a.75.75,0,0,1-.21-1,.72.72,0,0,1,1-.2l10.59,7.08a.74.74,0,0,1,.21,1,.77.77,0,0,1-.62.32" transform="translate(0.59 -5.27)" style="fill:#4c493d"/><path d="M304.06,76.37a.79.79,0,0,1-.53-.22.75.75,0,0,1,0-1.06l14.9-14.9a.75.75,0,1,1,1.07,1.05L304.59,76.15a.77.77,0,0,1-.53.22" transform="translate(0.59 -5.27)" style="fill:#4c493d"/><path d="M319,325.58a.79.79,0,0,1-.53-.22l-14.9-14.9a.75.75,0,0,1,0-1.06.74.74,0,0,1,1.06,0l14.91,14.9a.75.75,0,0,1,0,1.06.79.79,0,0,1-.54.22" transform="translate(0.59 -5.27)" style="fill:#4c493d"/><path d="M315,298.63a.72.72,0,0,1-.47-.17l-9.86-8.08a.75.75,0,1,1,1-1.15l9.86,8.08a.75.75,0,0,1-.48,1.32" transform="translate(0.59 -5.27)" style="fill:#4c493d"/><path d="M305.13,96.49a.75.75,0,0,1-.58-.28.74.74,0,0,1,.1-1l9.86-8.08a.74.74,0,0,1,1.05.1.75.75,0,0,1-.1,1l-9.86,8.08a.7.7,0,0,1-.47.17" transform="translate(0.59 -5.27)" style="fill:#4c493d"/><path d="M295.05,85.37a.79.79,0,0,1-.53-.21.75.75,0,0,1,0-1.06l9-9a.75.75,0,0,1,1.06,1.06l-9,9a.77.77,0,0,1-.53.21" transform="translate(0.59 -5.27)" style="fill:#4c493d"/><path d="M304.06,310.67a.77.77,0,0,1-.53-.21l-9-9a.75.75,0,1,1,1.06-1.06l9,9a.74.74,0,0,1-.53,1.27" transform="translate(0.59 -5.27)" style="fill:#4c493d"/><path d="M283.94,75.3a.73.73,0,0,1-.47-.17.75.75,0,0,1-.11-1l8.09-9.86a.73.73,0,0,1,1-.1.75.75,0,0,1,.11,1L284.51,75a.75.75,0,0,1-.57.28" transform="translate(0.59 -5.27)" style="fill:#4c493d"/><path d="M292,321.59a.73.73,0,0,1-.57-.26l-8.09-9.86a.76.76,0,0,1,.11-1.06.74.74,0,0,1,1,.11l8.09,9.86a.74.74,0,0,1-.11,1,.7.7,0,0,1-.47.17" transform="translate(0.59 -5.27)" style="fill:#4c493d"/><path d="M279,55.75a.71.71,0,0,1-.41-.13.73.73,0,0,1-.21-1L290,37.08a.74.74,0,0,1,1-.21.75.75,0,0,1,.2,1l-11.7,17.51a.75.75,0,0,1-.62.33" transform="translate(0.59 -5.27)" style="fill:#4c493d"/><path d="M290.66,348.8a.75.75,0,0,1-.62-.33L278.34,331a.74.74,0,1,1,1.24-.82l11.7,17.51a.74.74,0,0,1-.2,1,.76.76,0,0,1-.42.13" transform="translate(0.59 -5.27)" style="fill:#4c493d"/><path d="M279,331.29a.74.74,0,0,1-.62-.34l-7.08-10.59a.74.74,0,1,1,1.24-.82l7.08,10.59a.75.75,0,0,1-.62,1.16" transform="translate(0.59 -5.27)" style="fill:#4c493d"/><path d="M271.88,66.34a.74.74,0,0,1-.62-1.16l7.08-10.59a.75.75,0,1,1,1.24.83L272.5,66a.75.75,0,0,1-.62.33" transform="translate(0.59 -5.27)" style="fill:#4c493d"/><path d="M259,58.61a.73.73,0,0,1-.35-.09.75.75,0,0,1-.31-1l6-11.24a.73.73,0,0,1,1-.3.75.75,0,0,1,.31,1l-6,11.23a.71.71,0,0,1-.65.4" transform="translate(0.59 -5.27)" style="fill:#4c493d"/><path d="M265,339.67a.73.73,0,0,1-.65-.4l-6-11.24a.74.74,0,0,1,1.31-.7l6,11.24a.75.75,0,0,1-.31,1,.73.73,0,0,1-.35.09" transform="translate(0.59 -5.27)" style="fill:#4c493d"/><path d="M250.33,40.41a.87.87,0,0,1-.28,0,.75.75,0,0,1-.41-1L257.69,20a.74.74,0,1,1,1.37.57L251,40a.75.75,0,0,1-.69.46" transform="translate(0.59 -5.27)" style="fill:#4c493d"/><path d="M258.37,366.06a.73.73,0,0,1-.68-.47l-8.05-19.43a.74.74,0,1,1,1.38-.56l8,19.43a.74.74,0,0,1-.4,1,.72.72,0,0,1-.29.06" transform="translate(0.59 -5.27)" style="fill:#4c493d"/><path d="M245.45,52.19a.88.88,0,0,1-.28-.06.75.75,0,0,1-.41-1l4.88-11.77A.75.75,0,0,1,251,40l-4.88,11.77a.75.75,0,0,1-.69.47" transform="translate(0.59 -5.27)" style="fill:#4c493d"/><path d="M250.33,346.63a.74.74,0,0,1-.69-.47l-4.88-11.77a.75.75,0,0,1,1.38-.57L251,345.6a.74.74,0,0,1-.41,1,.67.67,0,0,1-.28.06" transform="translate(0.59 -5.27)" style="fill:#4c493d"/><path d="M231.31,47.13l-.22,0a.76.76,0,0,1-.5-.94L234.3,34a.75.75,0,0,1,1.43.44L232,46.6a.76.76,0,0,1-.72.53" transform="translate(0.59 -5.27)" style="fill:#4c493d"/><path d="M235,352.1a.75.75,0,0,1-.72-.53l-3.71-12.19A.75.75,0,0,1,232,339l3.7,12.19a.74.74,0,0,1-.5.93.51.51,0,0,1-.21,0" transform="translate(0.59 -5.27)" style="fill:#4c493d"/><path d="M219.23,31h-.15a.76.76,0,0,1-.58-.88l4.11-20.65a.74.74,0,0,1,.87-.59.75.75,0,0,1,.59.88L220,30.4a.74.74,0,0,1-.73.6" transform="translate(0.59 -5.27)" style="fill:#4c493d"/><path d="M223.34,376.69a.75.75,0,0,1-.73-.61l-4.11-20.65a.74.74,0,0,1,1.46-.29l4.11,20.65a.74.74,0,0,1-.59.88.34.34,0,0,1-.14,0" transform="translate(0.59 -5.27)" style="fill:#4c493d"/><path d="M219.23,356a.75.75,0,0,1-.73-.61L216,343a.75.75,0,0,1,1.46-.3L220,355.14a.74.74,0,0,1-.59.88l-.14,0" transform="translate(0.59 -5.27)" style="fill:#4c493d"/><path d="M216.75,43.49h-.14a.75.75,0,0,1-.59-.88l2.48-12.49a.74.74,0,1,1,1.46.29l-2.48,12.49a.74.74,0,0,1-.73.6" transform="translate(0.59 -5.27)" style="fill:#4c493d"/><path d="M203.15,358.41a.75.75,0,0,1-.74-.67l-1.26-12.68a.77.77,0,0,1,.68-.82.76.76,0,0,1,.82.67l1.24,12.68a.76.76,0,0,1-.67.82h-.07" transform="translate(0.59 -5.27)" style="fill:#4c493d"/><path d="M201.9,41.31h-.07a.76.76,0,0,1-.68-.81l1.26-12.68a.74.74,0,0,1,.81-.67.75.75,0,0,1,.67.82l-1.24,12.68a.76.76,0,0,1-.75.67" transform="translate(0.59 -5.27)" style="fill:#4c493d"/><path d="M186.91,380.27a.75.75,0,0,1-.75-.74V358.45a.75.75,0,0,1,1.5,0v21.08a.75.75,0,0,1-.75.74" transform="translate(0.59 -5.27)" style="fill:#4c493d"/><path d="M186.91,359.2a.76.76,0,0,1-.75-.75V345.72a.75.75,0,0,1,1.5,0v12.73a.76.76,0,0,1-.75.75" transform="translate(0.59 -5.27)" style="fill:#4c493d"/><path d="M186.91,40.58a.76.76,0,0,1-.75-.75V27.09a.75.75,0,0,1,1.5,0V39.83a.76.76,0,0,1-.75.75" transform="translate(0.59 -5.27)" style="fill:#4c493d"/><path d="M186.91,27.84a.75.75,0,0,1-.75-.75V6a.75.75,0,0,1,1.5,0V27.09a.75.75,0,0,1-.75.75" transform="translate(0.59 -5.27)" style="fill:#4c493d"/><path d="M170.67,358.41h-.08a.74.74,0,0,1-.66-.82l1.24-12.68a.75.75,0,1,1,1.49.15l-1.25,12.68a.75.75,0,0,1-.74.67" transform="translate(0.59 -5.27)" style="fill:#4c493d"/><path d="M171.92,41.31a.75.75,0,0,1-.75-.67L169.93,28a.74.74,0,0,1,.66-.82.75.75,0,0,1,.82.67l1.25,12.68a.74.74,0,0,1-.67.81h-.07" transform="translate(0.59 -5.27)" style="fill:#4c493d"/><path d="M154.59,356l-.15,0a.74.74,0,0,1-.59-.88l2.48-12.49a.76.76,0,0,1,.88-.58.74.74,0,0,1,.59.88l-2.48,12.48a.75.75,0,0,1-.73.61" transform="translate(0.59 -5.27)" style="fill:#4c493d"/><path d="M157.07,43.49a.75.75,0,0,1-.74-.6L153.85,30.4a.75.75,0,1,1,1.47-.29L157.8,42.6a.75.75,0,0,1-.59.88h-.14" transform="translate(0.59 -5.27)" style="fill:#4c493d"/><path d="M150.48,376.69a.39.39,0,0,1-.15,0,.74.74,0,0,1-.59-.88l4.11-20.65a.75.75,0,0,1,1.47.29l-4.11,20.65a.75.75,0,0,1-.73.61" transform="translate(0.59 -5.27)" style="fill:#4c493d"/><path d="M154.59,31a.75.75,0,0,1-.74-.6L149.74,9.75a.75.75,0,1,1,1.47-.29l4.11,20.65a.75.75,0,0,1-.59.88h-.14" transform="translate(0.59 -5.27)" style="fill:#4c493d"/><path d="M142.51,47.13a.75.75,0,0,1-.72-.53l-3.71-12.19a.75.75,0,0,1,1.44-.44l3.7,12.19a.74.74,0,0,1-.71,1" transform="translate(0.59 -5.27)" style="fill:#4c493d"/><path d="M138.8,352.1a.58.58,0,0,1-.22,0,.75.75,0,0,1-.5-.93L141.79,339a.76.76,0,0,1,.93-.5.74.74,0,0,1,.5.93l-3.7,12.19a.76.76,0,0,1-.72.53" transform="translate(0.59 -5.27)" style="fill:#4c493d"/><path d="M128.36,52.19a.74.74,0,0,1-.68-.47L122.8,40a.74.74,0,0,1,1.37-.57l4.88,11.77a.74.74,0,0,1-.4,1,.94.94,0,0,1-.29.06" transform="translate(0.59 -5.27)" style="fill:#4c493d"/><path d="M123.49,346.63a.72.72,0,0,1-.29-.06.74.74,0,0,1-.4-1l4.88-11.78a.74.74,0,1,1,1.37.57l-4.88,11.77a.73.73,0,0,1-.68.47" transform="translate(0.59 -5.27)" style="fill:#4c493d"/><path d="M115.44,366.06a.67.67,0,0,1-.28-.06.75.75,0,0,1-.41-1l8-19.43a.74.74,0,1,1,1.37.56l-8,19.43a.74.74,0,0,1-.69.47" transform="translate(0.59 -5.27)" style="fill:#4c493d"/><path d="M123.49,40.41a.75.75,0,0,1-.69-.46l-8-19.43a.76.76,0,0,1,.41-1,.75.75,0,0,1,1,.41l8,19.43a.75.75,0,0,1-.4,1,.92.92,0,0,1-.28,0" transform="translate(0.59 -5.27)" style="fill:#4c493d"/><path d="M114.8,58.61a.74.74,0,0,1-.66-.4l-6-11.23a.75.75,0,0,1,1.31-.71l6,11.24a.75.75,0,0,1-.31,1,.73.73,0,0,1-.35.09" transform="translate(0.59 -5.27)" style="fill:#4c493d"/><path d="M108.79,339.67a.73.73,0,0,1-.35-.09.74.74,0,0,1-.3-1l6-11.24a.75.75,0,0,1,1.32.7l-6,11.24a.75.75,0,0,1-.66.4" transform="translate(0.59 -5.27)" style="fill:#4c493d"/><path d="M101.94,66.34a.75.75,0,0,1-.62-.33L94.23,55.42a.74.74,0,0,1,.21-1,.73.73,0,0,1,1,.21l7.09,10.59a.74.74,0,0,1-.62,1.16" transform="translate(0.59 -5.27)" style="fill:#4c493d"/><path d="M94.85,331.29a.71.71,0,0,1-.41-.13.73.73,0,0,1-.21-1l7.09-10.59a.74.74,0,1,1,1.24.82L95.47,331a.74.74,0,0,1-.62.34" transform="translate(0.59 -5.27)" style="fill:#4c493d"/><path d="M94.85,55.75a.76.76,0,0,1-.62-.33L82.54,37.91a.73.73,0,0,1,.2-1,.75.75,0,0,1,1,.21L95.47,54.59a.72.72,0,0,1-.21,1,.65.65,0,0,1-.41.13" transform="translate(0.59 -5.27)" style="fill:#4c493d"/><path d="M83.16,348.8a.75.75,0,0,1-.62-1.16l11.69-17.51a.74.74,0,0,1,1-.21.72.72,0,0,1,.21,1L83.78,348.47a.78.78,0,0,1-.62.33" transform="translate(0.59 -5.27)" style="fill:#4c493d"/><path d="M81.8,321.59a.68.68,0,0,1-.47-.17.73.73,0,0,1-.11-1l8.08-9.86a.76.76,0,0,1,1-.11.75.75,0,0,1,.1,1.06l-8.08,9.86a.75.75,0,0,1-.57.26" transform="translate(0.59 -5.27)" style="fill:#4c493d"/><path d="M89.88,75.3A.75.75,0,0,1,89.3,75l-8.08-9.85a.75.75,0,0,1,1.15-1l8.08,9.86a.74.74,0,0,1-.1,1,.78.78,0,0,1-.47.17" transform="translate(0.59 -5.27)" style="fill:#4c493d"/><path d="M69.75,310.67a.73.73,0,0,1-.52-.21.75.75,0,0,1,0-1.06l9-9a.75.75,0,0,1,1.06,0,.74.74,0,0,1,0,1.06l-9,9a.74.74,0,0,1-.53.21" transform="translate(0.59 -5.27)" style="fill:#4c493d"/><path d="M78.76,85.37a.77.77,0,0,1-.53-.21l-9-9a.75.75,0,0,1,0-1.06.74.74,0,0,1,1,0l9,9a.74.74,0,0,1,0,1.06.77.77,0,0,1-.53.21" transform="translate(0.59 -5.27)" style="fill:#4c493d"/><path d="M54.85,325.58a.79.79,0,0,1-.53-.22.75.75,0,0,1,0-1.06l14.91-14.9a.73.73,0,0,1,1,0,.74.74,0,0,1,0,1.06l-14.9,14.9a.79.79,0,0,1-.53.22" transform="translate(0.59 -5.27)" style="fill:#4c493d"/><path d="M69.75,76.37a.74.74,0,0,1-.52-.22L54.32,61.24a.75.75,0,0,1,1.06-1.05l14.9,14.9a.74.74,0,0,1,0,1.06.75.75,0,0,1-.53.22" transform="translate(0.59 -5.27)" style="fill:#4c493d"/><path d="M68.68,96.49a.72.72,0,0,1-.47-.17l-9.85-8.08a.75.75,0,1,1,1-1.15l9.85,8.08a.73.73,0,0,1,.1,1,.74.74,0,0,1-.58.28" transform="translate(0.59 -5.27)" style="fill:#4c493d"/><path d="M58.83,298.63a.72.72,0,0,1-.57-.27.74.74,0,0,1,.1-1.05l9.85-8.08a.75.75,0,0,1,1.05.1.74.74,0,0,1-.1,1.05l-9.85,8.08a.72.72,0,0,1-.48.17" transform="translate(0.59 -5.27)" style="fill:#4c493d"/><path d="M59.73,108.55a.74.74,0,0,1-.42-.13l-10.59-7.08a.75.75,0,0,1-.2-1,.74.74,0,0,1,1-.2l10.59,7.08a.75.75,0,0,1-.41,1.37" transform="translate(0.59 -5.27)" style="fill:#4c493d"/><path d="M49.14,285.57a.74.74,0,0,1-.42-1.36l10.59-7.08a.73.73,0,0,1,1,.2.75.75,0,0,1-.21,1l-10.59,7.08a.68.68,0,0,1-.41.12" transform="translate(0.59 -5.27)" style="fill:#4c493d"/><path d="M52,121.41a.73.73,0,0,1-.35-.09l-11.24-6a.75.75,0,1,1,.71-1.32l11.23,6a.74.74,0,0,1-.35,1.4" transform="translate(0.59 -5.27)" style="fill:#4c493d"/><path d="M40.76,271.63a.76.76,0,0,1-.66-.39.75.75,0,0,1,.31-1l11.24-6a.75.75,0,1,1,.7,1.32l-11.23,6a.94.94,0,0,1-.36.08" transform="translate(0.59 -5.27)" style="fill:#4c493d"/><path d="M49.14,101.47a.8.8,0,0,1-.42-.13L31.21,89.64a.76.76,0,0,1-.21-1,.75.75,0,0,1,1-.2l17.51,11.7a.73.73,0,0,1,.21,1,.75.75,0,0,1-.62.34" transform="translate(0.59 -5.27)" style="fill:#4c493d"/><path d="M31.63,297.27a.78.78,0,0,1-.63-.33.75.75,0,0,1,.21-1l17.51-11.7a.75.75,0,0,1,1,.21.74.74,0,0,1-.21,1L32,297.15a.75.75,0,0,1-.41.12" transform="translate(0.59 -5.27)" style="fill:#4c493d"/><path d="M45.57,135a.71.71,0,0,1-.28-.06L33.51,130a.74.74,0,0,1-.4-1,.75.75,0,0,1,1-.41l11.77,4.88a.75.75,0,0,1-.29,1.44" transform="translate(0.59 -5.27)" style="fill:#4c493d"/><path d="M33.8,256.94a.75.75,0,0,1-.69-.46.74.74,0,0,1,.4-1l11.78-4.88a.73.73,0,0,1,1,.4.74.74,0,0,1-.4,1l-11.77,4.88a.61.61,0,0,1-.29.06" transform="translate(0.59 -5.27)" style="fill:#4c493d"/><path d="M28.33,241.63a.75.75,0,0,1-.22-1.47l12.19-3.7a.75.75,0,0,1,.43,1.43L28.54,241.6a.76.76,0,0,1-.21,0" transform="translate(0.59 -5.27)" style="fill:#4c493d"/><path d="M40.52,149.12a.78.78,0,0,1-.22,0l-12.19-3.71a.75.75,0,0,1,.43-1.43l12.19,3.7a.75.75,0,0,1,.5.94.75.75,0,0,1-.71.53" transform="translate(0.59 -5.27)" style="fill:#4c493d"/><path d="M36.88,163.68l-.15,0-12.49-2.48a.73.73,0,0,1-.58-.87.74.74,0,0,1,.88-.59L37,162.2a.75.75,0,0,1-.14,1.48" transform="translate(0.59 -5.27)" style="fill:#4c493d"/><path d="M24.39,225.84a.75.75,0,0,1-.15-1.48l12.49-2.48a.75.75,0,0,1,.29,1.47l-12.48,2.48h-.15" transform="translate(0.59 -5.27)" style="fill:#4c493d"/><path d="M34.7,178.53h-.08L22,177.27a.74.74,0,1,1,.14-1.48L34.77,177a.76.76,0,0,1,.67.82.75.75,0,0,1-.74.68" transform="translate(0.59 -5.27)" style="fill:#4c493d"/><path d="M22,209.76a.73.73,0,0,1-.74-.67.75.75,0,0,1,.67-.82L34.62,207a.75.75,0,1,1,.15,1.49l-12.68,1.24H22" transform="translate(0.59 -5.27)" style="fill:#4c493d"/><path d="M34,193.52H21.23a.75.75,0,0,1-.75-.75.74.74,0,0,1,.75-.74H34a.74.74,0,0,1,.74.74.75.75,0,0,1-.74.75" transform="translate(0.59 -5.27)" style="fill:#4c493d"/><path d="M33.8,130.1a.75.75,0,0,1-.29-.06l-19.42-8a.73.73,0,0,1-.41-1,.75.75,0,0,1,1-.4l19.43,8a.75.75,0,0,1-.29,1.44" transform="translate(0.59 -5.27)" style="fill:#4c493d"/><path d="M14.37,265a.76.76,0,0,1-.69-.47.74.74,0,0,1,.41-1l19.42-8a.75.75,0,0,1,1,.4.74.74,0,0,1-.4,1l-19.44,8.05a.94.94,0,0,1-.28.06" transform="translate(0.59 -5.27)" style="fill:#4c493d"/><path d="M24.39,161.2l-.15,0L3.6,157.07a.74.74,0,1,1,.29-1.46l20.65,4.11a.75.75,0,0,1-.15,1.48" transform="translate(0.59 -5.27)" style="fill:#4c493d"/><path d="M3.74,230a.75.75,0,0,1-.14-1.48l20.64-4.11a.75.75,0,0,1,.3,1.47L3.89,229.94H3.74" transform="translate(0.59 -5.27)" style="fill:#4c493d"/><path d="M21.23,193.52H.16a.75.75,0,0,1-.75-.75A.74.74,0,0,1,.16,192H21.23a.75.75,0,0,1,.75.74.76.76,0,0,1-.75.75" transform="translate(0.59 -5.27)" style="fill:#4c493d"/></g><g style="clip-path:url(#b)"><rect x="104.01" y="192.75" width="3.96" height="25.2" style="fill:#4c493d"/><path d="M121.13,201.62c1.26,0,2,.65,2,2.45v13.1c0,1.8-.75,2.45-2,2.45H118.9v-18Zm-6.19,21.6h6.26c4,0,5.9-2.19,5.9-6.23V204.25c0-4-1.94-6.23-5.9-6.23h-6.26Z" transform="translate(0.59 -5.27)" style="fill:#4c493d"/><polygon points="138.86 196.35 145.7 196.35 145.7 192.75 134.9 192.75 134.9 217.95 145.7 217.95 145.7 214.35 138.86 214.35 138.86 206.97 144.29 206.97 144.29 203.37 138.86 203.37 138.86 196.35" style="fill:#4c493d"/><path d="M157.92,202.49l1.91,12.74H156ZM161,198h-5.8l-4,25.2h3.63l.69-4.57h4.86l.68,4.57h4Z" transform="translate(0.59 -5.27)" style="fill:#4c493d"/><polygon points="171 196.35 175.15 196.35 175.15 217.95 179.1 217.95 179.1 196.35 183.25 196.35 183.25 192.75 171 192.75 171 196.35" style="fill:#4c493d"/><polygon points="193.61 207.15 198.11 207.15 198.11 217.95 202.15 217.95 202.15 192.75 198.11 192.75 198.11 203.55 193.61 203.55 193.61 192.75 189.65 192.75 189.65 217.95 193.61 217.95 193.61 207.15" style="fill:#4c493d"/><path d="M208.79,217.17c0,4,2.12,6.34,6,6.34s6-2.3,6-6.34v-13.1c0-4-2.12-6.34-6-6.34s-6,2.31-6,6.34Zm4-13.35c0-1.8.79-2.49,2.05-2.49s2,.69,2,2.49v13.61c0,1.8-.79,2.48-2,2.48s-2.05-.68-2.05-2.48Z" transform="translate(0.59 -5.27)" style="fill:#4c493d"/><polygon points="237.1 217.95 241.17 217.95 241.17 192.75 237.64 192.75 237.64 207.83 233.57 192.75 228.6 192.75 228.6 217.95 232.17 217.95 232.17 199.7 237.1 217.95" style="fill:#4c493d"/><path d="M262.36,217.43v-2.34c0-2.34.79-3.21,2.59-3.21h1.51v5.83c-.07,1.59-.86,2.2-2,2.2S262.36,219.23,262.36,217.43Zm-4-2.24v2.56c0,3.71,1.47,5.76,4.39,5.76a3.74,3.74,0,0,0,3.67-2.27,5.91,5.91,0,0,0,.36,2h4a7.49,7.49,0,0,1-.43-3.06v-8.28h1v-3.6h-1v-2.81h-4v2.81h-1.73c-1.47,0-2.37-.65-2.37-2.66v-1.55c0-1.8.75-2.45,2-2.45h4.47V198H264.3c-4,0-5.9,2.2-5.9,6.23v.47c0,2.7.86,4.39,2.73,5.18C259.19,210.77,258.4,212.64,258.4,215.19Z" transform="translate(0.59 -5.27)" style="fill:#4c493d"/><polygon points="108.53 244.65 113.03 244.65 113.03 255.45 117.06 255.45 117.06 230.25 113.03 230.25 113.03 241.05 108.53 241.05 108.53 230.25 104.57 230.25 104.57 255.45 108.53 255.45 108.53 244.65" style="fill:#4c493d"/><path d="M129.72,240l1.91,12.74h-3.82Zm3.1-4.47H127l-4,25.2h3.63l.69-4.57h4.86l.68,4.57h4Z" transform="translate(0.59 -5.27)" style="fill:#4c493d"/><path d="M151.1,251.33v3.6c0,1.8-.79,2.44-2,2.44s-2.05-.64-2.05-2.44V241.32c0-1.8.79-2.49,2.05-2.49s2,.69,2,2.49V244h3.75v-2.45c0-4-2-6.34-5.91-6.34s-5.9,2.31-5.9,6.34v13.1c0,4,2,6.34,5.9,6.34s5.91-2.3,5.91-6.34v-3.34Z" transform="translate(0.59 -5.27)" style="fill:#4c493d"/><polygon points="171.57 255.45 175.63 255.45 170.13 241.48 175.63 230.25 171.68 230.25 166.49 241.23 166.49 230.25 162.53 230.25 162.53 255.45 166.49 255.45 166.49 247.71 167.72 245.41 171.57 255.45" style="fill:#4c493d"/><path d="M187.21,240l1.91,12.74H185.3Zm3.1-4.47h-5.8l-4,25.2h3.64l.68-4.57h4.86l.68,4.57h4Z" transform="translate(0.59 -5.27)" style="fill:#4c493d"/><polygon points="200.29 233.85 204.44 233.85 204.44 255.45 208.4 255.45 208.4 233.85 212.53 233.85 212.53 230.25 200.29 230.25 200.29 233.85" style="fill:#4c493d"/><polygon points="222.9 244.65 227.4 244.65 227.4 255.45 231.44 255.45 231.44 230.25 227.4 230.25 227.4 241.05 222.9 241.05 222.9 230.25 218.94 230.25 218.94 255.45 222.9 255.45 222.9 244.65" style="fill:#4c493d"/><path d="M238.08,254.67c0,4,2.12,6.34,6,6.34s6-2.3,6-6.34v-13.1c0-4-2.12-6.34-6-6.34s-6,2.31-6,6.34Zm4-13.35c0-1.8.79-2.49,2.05-2.49s2,.69,2,2.49v13.61c0,1.8-.79,2.48-2,2.48s-2.05-.68-2.05-2.48Z" transform="translate(0.59 -5.27)" style="fill:#4c493d"/><polygon points="266.39 255.45 270.46 255.45 270.46 230.25 266.93 230.25 266.93 245.33 262.86 230.25 257.89 230.25 257.89 255.45 261.46 255.45 261.46 237.2 266.39 255.45" style="fill:#4c493d"/><text transform="translate(137.1 300.19)" style="font-size:11.924999237060547px;fill:#4c493d;font-family:KozGoPr6N-Regular-90ms-RKSJ-H, Kozuka Gothic Pr6N">豊</text><text transform="translate(150.57 300.19)" style="font-size:11.924999237060547px;fill:#4c493d;font-family:KozGoPr6N-Regular-90ms-RKSJ-H, Kozuka Gothic Pr6N">田</text><text transform="translate(164.03 300.19)" style="font-size:11.924999237060547px;fill:#4c493d;font-family:KozGoPr6N-Regular-90ms-RKSJ-H, Kozuka Gothic Pr6N">高</text><text transform="translate(177.5 300.19)" style="font-size:11.924999237060547px;fill:#4c493d;font-family:KozGoPr6N-Regular-90ms-RKSJ-H, Kozuka Gothic Pr6N">専</text><text transform="translate(190.97 300.19)" style="font-size:11.924999237060547px;fill:#4c493d;font-family:Corporate-Logo-Rounded, Corporate Logo Rounded"> </text><text transform="translate(195.24 300.19)" style="font-size:11.924999237060547px;fill:#4c493d;font-family:Corporate-Logo-Rounded, Corporate Logo Rounded">N</text><text transform="translate(205.9 300.19)" style="font-size:11.924999237060547px;fill:#4c493d;font-family:Corporate-Logo-Rounded, Corporate Logo Rounded">I</text><text transform="translate(211.61 300.19)" style="font-size:11.924999237060547px;fill:#4c493d;font-family:Corporate-Logo-Rounded, Corporate Logo Rounded">T</text><text transform="translate(220.79 300.19)" style="font-size:11.924999237060547px;fill:#4c493d;font-family:Corporate-Logo-Rounded, Corporate Logo Rounded">T</text><text transform="translate(229.96 300.19)" style="font-size:11.924999237060547px;fill:#4c493d;font-family:Corporate-Logo-Rounded, Corporate Logo Rounded">C</text></g><g style="clip-path:url(#c)"><path d="M188.3,135.84c-18.57,0-55.75,9.3-55.75,27.87v20.91h111.5V163.71C244.05,145.14,206.87,135.84,188.3,135.84Zm0-62.72A27.88,27.88,0,1,0,216.18,101,27.86,27.86,0,0,0,188.3,73.12Zm0,76c20.73,0,42.51,10.14,42.51,14.63v7.67h-85v-7.67c0-4.49,21.78-14.63,42.51-14.63m0-62.72A14.64,14.64,0,1,1,173.67,101,14.63,14.63,0,0,1,188.3,86.36" transform="translate(0.59 -5.27)" style="fill:#4c493d"/></g></svg>