<?xml version="1.0" standalone="no"?>
<!DOCTYPE svg PUBLIC "-//W3C//DTD SVG 20010904//EN"
 "http://www.w3.org/TR/2001/REC-SVG-20010904/DTD/svg10.dtd">
<svg version="1.0" xmlns="http://www.w3.org/2000/svg"
 width="700.000000pt" height="700.000000pt" viewBox="0 0 700.000000 700.000000"
 preserveAspectRatio="xMidYMid meet">
<metadata>
Created by potrace 1.11, written by Peter Selinger 2001-2013
</metadata>
<g transform="translate(0.000000,700.000000) scale(0.100000,-0.100000)"
fill="#000000" stroke="none">
<path d="M2810 6897 c0 -2 18 -93 40 -203 22 -109 43 -212 45 -229 17 -102 38
-175 50 -175 15 0 16 -4 -21 180 -14 69 -28 136 -30 150 -2 14 -9 45 -14 70
-5 25 -12 56 -14 70 -2 14 -8 43 -14 65 -12 55 -12 54 -12 65 0 6 -7 10 -15
10 -8 0 -15 -1 -15 -3z"/>
<path d="M3486 6625 c0 -256 3 -299 21 -281 4 3 7 129 7 279 0 232 -2 272 -14
275 -13 2 -15 -35 -14 -273z"/>
<path d="M4157 6878 c-3 -13 -29 -142 -57 -288 -28 -146 -54 -273 -56 -282 -4
-12 0 -18 10 -18 9 0 16 3 17 8 0 4 2 14 4 22 1 8 19 98 40 200 20 102 45 227
56 277 23 110 22 103 5 103 -8 0 -16 -10 -19 -22z"/>
<path d="M2152 6719 c40 -104 242 -586 248 -592 4 -5 11 -4 15 3 4 6 -7 44
-23 83 -17 40 -71 171 -121 292 -62 153 -95 221 -107 224 -11 2 -15 -2 -12
-10z"/>
<path d="M4771 6603 c-30 -71 -61 -146 -71 -168 -70 -159 -121 -298 -113 -306
12 -12 20 3 108 221 37 91 76 183 86 205 19 43 69 166 69 172 0 2 -6 3 -13 3
-8 0 -36 -54 -66 -127z"/>
<path d="M3185 6580 c-3 -6 -4 -18 -1 -28 3 -9 8 -55 11 -102 8 -101 13 -123
28 -117 7 3 11 8 10 13 0 5 -4 46 -8 92 -4 46 -8 91 -10 100 -2 9 -4 25 -4 35
-1 19 -16 23 -26 7z"/>
<path d="M3789 6573 c-1 -10 -3 -27 -4 -38 -1 -11 -6 -56 -10 -100 -4 -44 -9
-83 -11 -87 -5 -8 15 -22 22 -15 7 6 11 32 19 122 4 44 8 92 10 108 2 18 -1
27 -11 27 -8 0 -15 -8 -15 -17z"/>
<path d="M2595 6467 c-4 -9 -3 -30 3 -45 6 -15 22 -66 37 -114 24 -81 33 -97
47 -83 6 6 -55 215 -71 243 -9 16 -10 16 -16 -1z"/>
<path d="M4350 6352 c-37 -125 -37 -125 -21 -130 8 -3 81 208 81 237 0 6 -6
11 -12 11 -8 0 -27 -49 -48 -118z"/>
<path d="M1550 6402 c0 -7 340 -524 356 -541 3 -3 9 0 14 5 6 6 -54 104 -168
274 -158 236 -202 293 -202 262z"/>
<path d="M5338 6277 c-48 -72 -128 -193 -177 -267 -58 -86 -87 -138 -81 -144
5 -5 11 -8 14 -5 11 12 349 526 353 537 3 6 -1 12 -8 12 -8 0 -53 -60 -101
-133z"/>
<path d="M2030 6229 c0 -6 19 -45 42 -87 23 -43 48 -89 56 -104 11 -24 42 -40
42 -23 0 7 -59 118 -97 183 -24 40 -43 54 -43 31z"/>
<path d="M4943 6228 c-27 -35 -113 -210 -108 -218 10 -16 21 -4 50 52 15 29
40 76 56 105 16 29 29 57 29 62 0 15 -15 14 -27 -1z"/>
<path d="M1025 5970 c-9 -14 443 -462 462 -458 11 2 -61 80 -215 236 -127 127
-233 232 -236 232 -3 0 -7 -4 -11 -10z"/>
<path d="M5734 5755 c-150 -150 -224 -231 -222 -242 2 -13 72 51 236 215 198
198 244 252 216 252 -2 0 -106 -101 -230 -225z"/>
<path d="M1528 5898 c-5 -13 140 -194 157 -197 31 -7 -12 58 -112 169 -13 14
-23 28 -23 32 0 13 -18 9 -22 -4z"/>
<path d="M5405 5841 c-33 -40 -70 -85 -82 -99 -23 -27 -31 -57 -14 -50 22 8
162 189 159 205 -2 12 -20 -3 -63 -56z"/>
<path d="M3505 5733 c-255 -16 -455 -197 -493 -445 -46 -303 189 -583 496
-593 338 -11 594 294 526 625 -43 208 -226 382 -427 406 -29 4 -54 7 -57 8 -3
1 -23 0 -45 -1z m130 -272 c53 -23 119 -88 141 -138 25 -56 23 -167 -3 -223
-74 -163 -286 -210 -422 -94 -139 119 -123 341 31 439 71 45 173 51 253 16z"/>
<path d="M1096 5471 c-6 -8 35 -48 111 -108 19 -15 44 -36 56 -45 21 -19 47
-24 47 -9 0 8 -167 147 -197 165 -6 3 -14 2 -17 -3z"/>
<path d="M5849 5447 c-47 -41 -122 -102 -141 -115 -21 -15 -24 -32 -5 -32 12
0 207 155 207 165 0 13 -38 2 -61 -18z"/>
<path d="M590 5438 c1 -15 530 -369 541 -362 18 11 -8 33 -128 109 -69 44
-130 85 -136 90 -22 19 -263 175 -270 175 -4 0 -7 -6 -7 -12z"/>
<path d="M6135 5279 c-137 -93 -257 -173 -265 -179 -11 -6 -12 -12 -4 -19 7
-8 88 41 274 167 243 165 294 204 258 201 -7 -1 -125 -77 -263 -170z"/>
<path d="M762 4958 c4 -12 10 -16 141 -86 69 -38 107 -47 92 -22 -7 11 -211
120 -225 120 -7 0 -10 -5 -8 -12z"/>
<path d="M6130 4924 c-121 -66 -134 -74 -123 -85 12 -12 224 98 231 120 7 20
-22 11 -108 -35z"/>
<path d="M266 4841 c-8 -13 -3 -16 204 -100 96 -40 184 -76 195 -81 48 -23
190 -80 197 -80 4 0 8 6 8 14 0 10 -364 168 -581 251 -10 4 -20 2 -23 -4z"/>
<path d="M6560 4784 c-85 -36 -217 -91 -292 -122 -77 -31 -138 -62 -138 -69 0
-7 3 -13 8 -13 4 0 138 54 297 120 185 76 291 125 293 135 2 8 0 15 -5 14 -4
0 -78 -30 -163 -65z"/>
<path d="M3455 4562 c-65 -5 -221 -28 -265 -38 -14 -3 -36 -8 -50 -10 -135
-25 -366 -116 -464 -183 -74 -51 -136 -119 -164 -179 -25 -55 -26 -63 -27
-270 0 -117 2 -217 5 -222 4 -7 373 -9 1041 -8 l1034 3 1 211 c0 149 -3 223
-13 255 -54 180 -347 343 -745 414 -103 19 -288 33 -353 27z m211 -257 c231
-22 513 -120 614 -212 l40 -35 0 -79 0 -79 -794 0 -794 0 1 81 c2 81 2 81 41
115 105 91 403 191 621 210 44 3 81 7 82 8 4 3 123 -2 189 -9z"/>
<path d="M530 4399 c0 -17 238 -91 246 -77 9 15 1 19 -103 50 -134 41 -143 43
-143 27z"/>
<path d="M6337 4376 c-114 -35 -122 -39 -113 -54 8 -13 246 60 246 76 0 17
-11 15 -133 -22z"/>
<path d="M72 4179 c4 -12 28 -20 103 -32 17 -3 129 -25 250 -50 305 -62 285
-59 285 -42 0 12 -19 18 -140 41 -14 2 -34 6 -45 8 -11 2 -38 9 -60 14 -22 6
-60 14 -85 17 -24 4 -48 8 -51 11 -4 2 -24 6 -45 10 -22 3 -57 9 -79 14 -89
19 -138 23 -133 9z"/>
<path d="M6815 4174 c-33 -7 -78 -16 -100 -19 -22 -4 -42 -8 -45 -10 -3 -2
-21 -6 -40 -9 -19 -3 -102 -19 -184 -36 -82 -16 -151 -30 -153 -30 -1 0 -3 -7
-3 -15 0 -11 7 -14 23 -10 43 10 172 36 205 41 137 22 407 83 410 92 5 15 -35
14 -113 -4z"/>
<path d="M414 3809 c-3 -6 -4 -12 -2 -14 5 -6 63 -13 158 -21 41 -3 79 -6 83
-7 5 -1 11 3 14 10 6 15 -17 21 -117 28 -47 4 -95 8 -107 10 -13 2 -25 -1 -29
-6z"/>
<path d="M6517 3813 c-1 -1 -34 -4 -72 -7 -94 -8 -126 -15 -119 -28 6 -9 150
-5 209 7 11 2 28 4 38 4 32 2 12 26 -22 26 -18 1 -33 0 -34 -2z"/>
<path d="M24 3508 c-3 -4 -3 -11 -1 -15 6 -10 624 -9 633 0 4 4 4 10 0 14 -9
10 -626 11 -632 1z"/>
<path d="M6343 3507 c-3 -5 -2 -11 1 -14 8 -9 626 -9 639 -1 6 4 8 10 4 15
-11 10 -638 10 -644 0z"/>
<path d="M1953 3403 c-10 -4 -13 -60 -13 -239 l0 -234 38 0 38 0 -1 232 0 232
-25 6 c-14 4 -31 5 -37 3z"/>
<path d="M2180 3400 l-25 -5 1 -220 c1 -121 2 -226 3 -232 1 -9 22 -13 70 -13
144 0 155 17 155 234 -1 169 -6 194 -47 221 -23 15 -114 24 -157 15z m122 -84
c4 -6 8 -74 8 -151 0 -153 -4 -165 -52 -165 l-28 0 0 164 c0 122 3 166 13 169
16 7 50 -3 59 -17z"/>
<path d="M2519 3380 c0 -32 0 -386 0 -422 l1 -28 100 0 100 0 0 35 0 35 -64 0
-64 0 1 68 2 67 40 0 c59 0 65 7 56 66 -1 3 -18 4 -38 3 -21 0 -43 1 -50 3
-16 6 -16 122 0 124 7 1 35 2 62 3 49 1 50 2 53 34 2 23 -1 32 -12 33 -9 0
-54 1 -101 2 -84 2 -85 2 -86 -23z"/>
<path d="M2914 3392 c-8 -7 -14 -21 -15 -30 0 -9 -2 -25 -4 -34 -2 -9 -6 -34
-9 -55 -10 -74 -17 -119 -26 -173 -6 -30 -12 -75 -16 -100 -3 -25 -7 -51 -9
-57 -3 -9 7 -13 30 -13 36 0 38 3 47 65 3 17 11 20 48 20 37 0 45 -3 48 -20 9
-62 11 -65 48 -65 l36 0 -7 47 c-3 26 -8 49 -9 52 -2 3 -7 31 -10 62 -4 31 -8
65 -10 75 -2 11 -12 67 -21 127 -10 59 -21 107 -24 108 -41 6 -87 2 -97 -9z
m60 -174 c21 -150 22 -138 -14 -138 l-33 0 7 63 c17 150 28 171 40 75z"/>
<path d="M3213 3402 c-18 -3 -23 -10 -23 -33 0 -29 3 -31 50 -33 l25 -1 3
-203 2 -203 37 3 37 3 0 200 1 200 35 0 c32 0 35 3 38 33 2 17 0 32 -5 33 -40
2 -183 3 -200 1z"/>
<path d="M3558 3402 c-17 -3 -18 -23 -18 -238 l0 -234 34 0 c19 0 36 6 38 13
2 6 4 50 3 97 -1 78 1 85 20 91 11 3 30 3 43 1 21 -4 22 -9 21 -71 -3 -133 -3
-131 36 -131 29 0 35 4 36 23 1 12 2 117 3 234 l1 211 -25 4 c-54 8 -55 5 -53
-102 l2 -100 -43 0 -42 0 1 99 c0 92 -1 100 -20 103 -11 2 -28 2 -37 0z"/>
<path d="M3947 3380 l-32 -28 0 -186 c0 -176 1 -187 21 -207 31 -31 96 -40
137 -20 58 29 64 66 58 353 -1 68 -39 109 -105 113 -41 3 -52 -1 -79 -25z
m102 -58 c5 -10 10 -82 10 -160 0 -109 -3 -145 -14 -156 -20 -19 -52 -9 -58
17 -8 35 -2 291 6 305 12 18 45 15 56 -6z"/>
<path d="M4284 3399 c-18 -6 -19 -20 -17 -220 1 -118 2 -222 2 -231 1 -21 56
-26 63 -5 2 6 4 78 3 159 0 81 1 145 3 143 2 -1 22 -72 45 -157 l42 -153 38
-3 c36 -3 37 -2 38 30 0 18 1 124 2 235 l2 201 -33 4 c-18 2 -34 2 -36 -1 -1
-3 -2 -63 -1 -133 1 -70 0 -126 -2 -124 -2 2 -13 36 -24 77 -49 183 -47 176
-78 181 -16 2 -37 1 -47 -3z"/>
<path d="M4928 3402 c-39 -3 -87 -42 -89 -71 -1 -9 -2 -30 -4 -47 -2 -36 19
-94 35 -94 6 0 0 -14 -12 -31 -19 -25 -23 -43 -23 -103 0 -112 43 -154 120
-118 21 11 30 11 33 3 2 -6 19 -11 37 -11 l34 0 -1 100 c0 55 4 106 9 113 14
18 14 60 0 69 -6 4 -12 17 -12 29 0 22 -11 25 -65 20 -5 -1 -10 -12 -10 -26 0
-20 -5 -25 -24 -25 -33 0 -50 25 -48 68 3 46 21 60 69 56 21 -1 41 3 45 9 10
16 10 57 1 58 -32 3 -63 4 -95 1z m56 -309 c-2 -85 -4 -91 -23 -96 -36 -9 -51
10 -51 67 0 55 9 70 45 78 29 6 31 4 29 -49z"/>
<path d="M585 3228 c-38 -4 -94 -11 -122 -14 -36 -4 -53 -10 -53 -19 0 -9 9
-13 28 -11 15 2 64 7 110 11 112 9 115 10 119 22 6 18 -8 20 -82 11z"/>
<path d="M6333 3227 c-8 -14 17 -27 57 -28 19 0 46 -2 60 -4 92 -13 140 -13
140 1 0 8 -3 14 -7 14 -24 2 -136 13 -186 19 -34 5 -60 4 -64 -2z"/>
<path d="M555 2929 c-77 -16 -153 -31 -168 -34 -15 -3 -85 -17 -155 -31 -70
-15 -134 -27 -141 -28 -23 -4 -25 -26 -3 -26 10 0 75 11 143 25 68 14 135 27
148 30 14 2 47 9 75 15 28 6 62 12 76 15 14 3 48 9 75 15 28 6 61 12 74 15 30
5 37 13 25 24 -5 5 -70 -4 -149 -20z"/>
<path d="M6290 2945 c0 -8 3 -15 8 -16 4 0 14 -2 22 -4 8 -2 26 -5 40 -8 14
-3 140 -28 280 -56 308 -62 282 -58 287 -44 4 12 -11 19 -62 28 -38 6 -522
103 -552 110 -16 4 -23 1 -23 -10z"/>
<path d="M1973 2702 l-23 -3 0 -235 0 -234 39 0 38 0 -1 100 -1 100 43 0 42 0
0 -101 0 -100 38 3 37 3 1 233 0 232 -38 0 -38 0 0 -100 0 -100 -43 0 -42 0 1
95 c1 103 -5 115 -53 107z"/>
<path d="M2408 2703 c-22 -3 -28 -11 -32 -36 -3 -18 -17 -104 -31 -192 -15
-88 -29 -179 -32 -203 l-5 -43 33 3 c25 2 35 8 37 23 9 62 10 63 56 62 l44 -1
7 -43 c6 -42 7 -43 46 -43 22 0 38 3 36 8 -3 4 -8 30 -12 57 -3 28 -15 100
-25 160 -10 61 -21 128 -24 150 -11 75 -18 95 -31 95 -7 0 -19 2 -27 3 -7 2
-25 2 -40 0z m37 -168 c3 -33 8 -69 11 -80 15 -74 15 -75 -23 -75 l-36 0 7 48
c4 26 9 63 11 82 6 44 16 92 20 88 1 -2 6 -30 10 -63z"/>
<path d="M2754 2704 c-12 -3 -32 -16 -45 -30 -23 -24 -24 -34 -27 -176 -4
-174 1 -212 33 -244 34 -34 112 -34 151 0 24 20 28 32 32 90 l4 67 -33 -3
c-33 -3 -34 -5 -37 -50 -4 -55 -27 -77 -58 -54 -16 12 -18 29 -18 158 0 79 3
151 7 161 8 21 53 23 61 1 3 -9 6 -30 6 -48 0 -31 2 -33 35 -32 35 1 35 1 35
48 0 80 -64 129 -146 112z"/>
<path d="M3059 2702 l-25 -3 0 -232 1 -232 35 0 35 0 3 65 c3 78 10 113 21
106 4 -3 23 -44 41 -91 l33 -85 38 0 39 0 -21 53 c-12 28 -35 87 -52 130 l-31
79 52 103 c44 88 49 104 34 107 -46 10 -59 -3 -106 -100 l-45 -97 -1 96 c0
103 -2 108 -51 101z"/>
<path d="M3479 2702 c-28 -3 -27 2 -45 -132 -5 -31 -35 -224 -49 -307 -6 -32
-5 -33 29 -33 33 0 35 2 41 44 l7 44 43 0 c45 0 55 -11 55 -65 0 -20 5 -23 40
-23 38 0 40 1 36 28 -3 15 -8 50 -12 77 -5 28 -8 52 -9 55 -1 3 -12 73 -25
157 l-25 151 -30 4 c-16 2 -42 2 -56 0z m35 -147 c4 -22 11 -67 16 -100 6 -33
10 -63 10 -67 0 -5 -16 -8 -36 -8 l-36 0 7 38 c4 20 8 46 10 57 9 72 17 126
20 123 2 -2 6 -21 9 -43z"/>
<path d="M3773 2702 c-30 -3 -33 -6 -33 -36 0 -25 4 -33 18 -33 62 0 58 16 57
-190 -1 -104 1 -194 3 -200 2 -7 19 -13 38 -13 l34 0 2 203 3 202 30 -1 c33
-2 45 10 45 44 0 16 -6 22 -22 23 -106 3 -148 4 -175 1z"/>
<path d="M4121 2700 l-35 -5 0 -215 c-1 -118 1 -223 3 -232 2 -13 13 -18 37
-18 38 0 37 -4 34 133 -1 58 1 67 17 68 10 0 28 2 41 3 25 3 24 9 26 -109 l1
-90 38 -3 37 -3 0 234 c0 128 -2 236 -5 238 -2 3 -19 3 -38 1 l-33 -4 1 -99 1
-99 -42 0 -42 0 -1 102 c-1 56 -2 102 -4 103 -1 0 -17 -2 -36 -5z"/>
<path d="M4515 2696 c-52 -24 -58 -46 -60 -212 0 -82 2 -164 7 -180 12 -48 49
-76 101 -76 101 0 117 34 117 242 0 162 -7 194 -52 221 -31 20 -77 22 -113 5z
m83 -73 c6 -15 9 -208 3 -299 -1 -24 -30 -36 -55 -22 -14 8 -16 30 -16 161 0
106 4 157 12 165 17 17 46 15 56 -5z"/>
<path d="M4827 2698 c-11 -5 -13 -55 -13 -235 l1 -228 33 -3 32 -3 1 163 1
163 19 -65 c10 -36 21 -74 24 -85 2 -11 14 -55 26 -97 l21 -78 39 0 39 0 0
233 c0 129 -2 236 -5 239 -3 2 -18 3 -34 0 l-30 -4 1 -119 c1 -65 -1 -121 -3
-124 -3 -2 -20 51 -38 119 l-33 124 -34 4 c-19 2 -40 1 -47 -4z"/>
<path d="M710 2669 c-30 -10 -83 -26 -117 -36 -35 -9 -63 -23 -63 -30 0 -7 5
-13 11 -13 25 0 239 72 239 80 0 17 -16 17 -70 -1z"/>
<path d="M6222 2669 c4 -11 206 -78 236 -79 6 0 12 6 12 13 0 8 -43 25 -112
45 -122 35 -142 38 -136 21z"/>
<path d="M740 2374 c-58 -25 -177 -74 -265 -111 -200 -82 -220 -92 -207 -105
6 -6 102 29 278 102 148 62 281 117 296 123 32 14 45 37 20 36 -9 0 -64 -21
-122 -45z"/>
<path d="M6125 2410 c-3 -6 4 -14 17 -19 26 -10 262 -108 452 -188 74 -31 133
-50 138 -45 14 14 -5 24 -167 90 -82 34 -210 86 -284 117 -145 59 -147 60
-156 45z"/>
<path d="M876 2114 c-55 -30 -103 -54 -108 -54 -4 0 -8 -7 -8 -15 0 -23 13
-19 118 37 112 59 124 67 116 79 -8 13 -10 12 -118 -47z"/>
<path d="M6006 2161 c-7 -10 19 -27 141 -92 45 -24 85 -40 89 -36 12 12 -14
30 -119 86 -108 56 -104 55 -111 42z"/>
<path d="M857 1752 c-147 -97 -267 -183 -267 -191 0 -8 6 -11 15 -7 21 8 523
345 530 356 21 34 -45 -3 -278 -158z"/>
<path d="M5865 1919 c-4 -5 -5 -11 -4 -13 2 -1 40 -26 83 -56 201 -136 451
-300 458 -300 35 0 -63 80 -190 155 -9 6 -84 55 -167 111 -186 124 -172 116
-180 103z"/>
<path d="M1250 1673 c-115 -94 -160 -136 -154 -144 7 -12 11 -9 121 79 51 41
90 78 87 83 -8 14 -18 11 -54 -18z"/>
<path d="M5696 1691 c-3 -4 40 -45 96 -90 70 -57 104 -78 109 -70 4 8 -3 20
-19 33 -15 11 -32 25 -38 31 -6 5 -22 19 -35 30 -99 82 -102 84 -113 66z"/>
<path d="M2635 1570 c4 -6 -6 -10 -22 -10 -26 0 -28 -3 -29 -45 0 -25 3 -45 8
-45 5 0 6 5 3 10 -3 6 -2 10 3 10 6 0 12 -7 16 -15 3 -8 2 -15 -3 -15 -13 0
-8 -33 8 -50 13 -13 10 -16 -25 -21 -22 -4 8 -6 71 -6 61 0 97 2 80 6 -28 6
-48 31 -25 31 14 0 12 37 -2 43 -7 3 -3 6 10 6 18 1 22 7 22 36 0 19 0 38 0
43 0 4 -11 8 -25 10 -14 2 -25 8 -25 13 0 5 -5 9 -11 9 -5 0 -7 -4 -4 -10 3
-5 -3 -10 -14 -10 -12 0 -21 5 -21 10 0 6 -5 10 -11 10 -5 0 -7 -4 -4 -10z m5
-30 c0 -5 -9 -10 -20 -10 -11 0 -20 5 -20 10 0 6 9 10 20 10 11 0 20 -4 20
-10z m50 0 c0 -5 -9 -10 -20 -10 -11 0 -20 5 -20 10 0 6 9 10 20 10 11 0 20
-4 20 -10z m50 0 c0 -5 -9 -10 -20 -10 -11 0 -20 5 -20 10 0 6 9 10 20 10 11
0 20 -4 20 -10z m-110 -35 c-11 -13 -4 -15 51 -16 47 0 58 -3 43 -9 -28 -11
-40 -30 -19 -30 9 0 13 -4 10 -10 -9 -15 -98 -13 -92 3 2 6 12 11 21 11 9 -1
16 3 16 10 0 8 2 8 8 0 5 -9 10 -8 19 2 11 11 6 12 -26 10 -33 -3 -41 1 -50
20 -9 21 -8 24 10 24 18 0 19 -2 9 -15z m55 5 c-3 -5 -12 -7 -20 -3 -21 7 -19
13 6 13 11 0 18 -4 14 -10z m55 1 c0 -10 -26 -9 -36 2 -4 4 2 7 14 7 12 0 22
-4 22 -9z m-42 -103 c-7 -19 -43 -21 -58 -3 -11 13 -8 15 25 15 25 0 35 -4 33
-12z"/>
<path d="M3146 1572 c-3 -5 -19 -9 -37 -10 -17 0 -34 -3 -37 -6 -3 -3 41 -6
98 -6 101 0 131 8 54 14 -22 2 -46 6 -55 10 -10 4 -20 3 -23 -2z"/>
<path d="M3417 1574 c-3 -3 -19 -6 -36 -6 -17 -1 -31 -5 -31 -9 0 -4 14 -7 30
-7 17 1 33 -2 37 -5 3 -4 -10 -7 -30 -7 -35 0 -37 -1 -37 -34 0 -34 0 -35 43
-32 26 1 41 7 40 14 -2 7 8 12 22 12 14 0 25 -4 25 -10 0 -5 -7 -7 -15 -4 -8
4 -15 2 -15 -3 0 -13 33 -12 42 1 4 6 8 21 8 34 0 19 -5 22 -35 22 -25 0 -33
4 -29 14 5 14 -9 30 -19 20z m-7 -54 c0 -5 -9 -10 -19 -10 -11 0 -23 5 -26 10
-4 6 5 10 19 10 14 0 26 -4 26 -10z m70 1 c0 -5 -11 -8 -25 -8 -14 0 -25 3
-25 8 0 5 11 9 25 9 14 0 25 -4 25 -9z m-62 -27 c-10 -9 -58 -12 -58 -3 0 5
14 9 32 9 17 0 29 -3 26 -6z"/>
<path d="M2830 1469 c0 -64 4 -98 10 -94 6 3 10 12 10 18 0 8 20 12 60 12 47
-1 63 -5 75 -20 14 -18 15 -11 14 83 l-1 102 -84 0 -84 0 0 -101z m74 55 c0
-23 -4 -28 -22 -27 -38 2 -40 3 -37 21 2 9 4 22 4 29 1 7 13 10 28 9 22 -3 27
-8 27 -32z m76 1 c0 -30 -2 -33 -30 -31 -27 1 -30 4 -30 32 0 28 3 31 30 32
27 1 30 -2 30 -33z m-77 -66 c8 -31 -1 -46 -26 -45 -17 1 -23 8 -25 34 -3 28
0 32 21 32 17 0 26 -7 30 -21z m79 3 c6 -23 -4 -48 -19 -46 -7 1 -20 2 -28 3
-10 1 -15 12 -15 31 0 26 3 30 29 30 19 0 30 -6 33 -18z"/>
<path d="M3450 1560 c0 -5 5 -10 10 -10 6 0 10 5 10 10 0 6 -4 10 -10 10 -5 0
-10 -4 -10 -10z"/>
<path d="M3485 1560 c3 -5 10 -10 16 -10 5 0 9 5 9 10 0 6 -7 10 -16 10 -8 0
-12 -4 -9 -10z"/>
<path d="M3669 1553 c-7 -50 -2 -147 9 -155 9 -8 12 4 12 58 l1 69 31 -60 c52
-101 68 -97 68 16 0 46 -4 79 -10 79 -9 0 -14 -47 -10 -97 3 -39 -14 -25 -44
37 -16 33 -35 60 -43 60 -7 0 -13 -3 -14 -7z"/>
<path d="M3867 1553 c-9 -20 -1 -147 10 -150 8 -3 11 19 11 76 0 71 -8 99 -21
74z"/>
<path d="M3950 1550 c0 -5 13 -10 29 -10 l29 0 -2 -66 c-1 -43 3 -69 11 -76
10 -8 13 5 13 66 0 74 1 76 24 76 14 0 28 5 31 10 4 6 -20 10 -64 10 -41 0
-71 -4 -71 -10z"/>
<path d="M4120 1550 c0 -5 14 -10 30 -10 l30 0 -2 -67 c-1 -38 2 -70 8 -73 5
-3 10 26 12 68 l3 72 29 0 c17 0 30 5 30 10 0 6 -30 10 -70 10 -40 0 -70 -4
-70 -10z"/>
<path d="M4337 1548 c-39 -30 -42 -102 -5 -134 22 -21 83 -24 101 -5 10 11 6
13 -22 7 -48 -9 -81 14 -81 57 0 18 6 41 13 50 13 18 51 24 80 12 9 -4 17 -3
17 3 0 23 -75 30 -103 10z"/>
<path d="M3127 1533 c-4 -3 -7 -15 -7 -25 0 -15 8 -18 49 -18 48 0 68 14 53
36 -9 12 -52 14 -52 3 0 -5 9 -9 20 -9 11 0 20 -5 20 -10 0 -6 -17 -10 -40 -8
-23 1 -39 6 -36 12 2 6 9 10 15 8 7 -1 10 2 6 8 -7 12 -19 13 -28 3z"/>
<path d="M1241 1263 c-142 -143 -220 -228 -214 -234 6 -6 94 74 241 221 128
126 232 232 232 235 0 28 -70 -32 -259 -222z"/>
<path d="M5500 1485 c0 -3 104 -109 231 -236 164 -163 234 -228 242 -220 8 8
-56 77 -216 236 -193 192 -257 246 -257 220z"/>
<path d="M3091 1470 c-11 -7 -10 -89 1 -96 5 -3 8 12 7 35 -2 22 0 43 3 46 5
6 97 9 136 6 17 -1 12 -63 -8 -78 -13 -11 -12 -12 8 -13 16 0 22 6 23 23 0 12
2 34 3 50 1 15 -3 28 -9 28 -32 4 -158 3 -164 -1z"/>
<path d="M3450 1451 c0 -6 -9 -8 -20 -6 -11 2 -20 0 -20 -6 0 -5 8 -9 18 -9
10 0 21 -3 24 -6 9 -8 -3 -44 -13 -38 -5 3 -9 -2 -9 -10 0 -9 4 -16 8 -16 15
0 32 24 32 47 0 22 12 28 50 24 13 -2 13 0 1 8 -8 5 -23 8 -33 6 -10 -2 -18 0
-18 6 0 5 -4 9 -10 9 -5 0 -10 -4 -10 -9z"/>
<path d="M3120 1431 c0 -12 7 -24 15 -28 24 -9 25 0 4 26 -19 23 -19 23 -19 2z"/>
<path d="M3145 1440 c3 -5 10 -10 16 -10 5 0 9 5 9 10 0 6 -7 10 -16 10 -8 0
-12 -4 -9 -10z"/>
<path d="M3193 1435 c19 -13 7 -32 -13 -20 -5 3 -10 1 -10 -4 0 -6 11 -11 25
-11 34 0 37 45 3 47 -22 2 -22 1 -5 -12z"/>
<path d="M3320 1440 c0 -4 19 -7 42 -8 23 -1 38 1 35 5 -9 8 -77 11 -77 3z"/>
<path d="M3370 1416 c0 -2 7 -9 15 -16 12 -10 15 -10 15 4 0 9 -7 16 -15 16
-8 0 -15 -2 -15 -4z"/>
<path d="M1603 1211 c-50 -61 -78 -103 -73 -110 5 -8 30 16 75 71 38 46 75 91
83 101 10 11 12 21 6 27 -5 5 -41 -30 -91 -89z"/>
<path d="M5300 1298 c0 -16 147 -198 161 -198 21 0 4 30 -67 115 -77 92 -94
107 -94 83z"/>
<path d="M1732 880 c-95 -143 -175 -267 -178 -275 -4 -9 -1 -15 7 -15 14 1
362 517 361 535 -2 30 -33 -10 -190 -245z"/>
<path d="M5076 1132 c-7 -12 347 -541 363 -542 7 0 11 6 7 15 -9 25 -351 535
-358 535 -4 0 -9 -4 -12 -8z"/>
<path d="M2086 885 c-31 -57 -56 -109 -56 -115 0 -15 21 -8 32 11 23 39 108
201 108 205 0 2 -6 4 -14 4 -8 0 -39 -47 -70 -105z"/>
<path d="M4830 985 c0 -4 60 -117 100 -189 17 -31 40 -46 40 -26 0 23 -112
220 -126 220 -8 0 -14 -2 -14 -5z"/>
<path d="M2397 873 c-5 -8 -27 -62 -163 -391 -46 -112 -84 -206 -84 -208 0 -2
6 -4 14 -4 8 0 46 80 96 203 46 111 93 225 105 252 57 133 58 136 48 146 -6 6
-13 7 -16 2z"/>
<path d="M4580 862 c0 -7 54 -141 79 -197 5 -11 44 -104 87 -207 46 -111 83
-188 91 -188 7 0 13 2 13 4 0 4 -94 235 -119 291 -10 22 -42 100 -72 172 -30
73 -60 133 -66 133 -7 0 -13 -4 -13 -8z"/>
<path d="M2626 667 c-40 -127 -42 -137 -23 -137 7 0 26 47 45 113 37 124 38
130 23 135 -5 2 -26 -48 -45 -111z"/>
<path d="M4318 775 c-6 -6 55 -215 70 -242 21 -36 22 11 2 79 -47 164 -55 180
-72 163z"/>
<path d="M2925 688 c-9 -45 -105 -534 -110 -567 -3 -19 -8 -39 -12 -44 -3 -5
3 -7 12 -5 14 2 23 27 42 118 13 63 26 129 29 145 6 38 62 323 69 353 4 15 1
22 -10 22 -8 0 -17 -10 -20 -22z"/>
<path d="M4047 703 c-2 -5 4 -46 14 -93 10 -47 21 -105 25 -130 3 -25 8 -48
10 -51 2 -4 6 -24 9 -45 4 -22 8 -47 11 -56 3 -10 7 -30 10 -45 2 -16 9 -48
14 -73 5 -25 12 -58 15 -75 4 -16 7 -37 9 -45 3 -16 32 -21 29 -5 0 6 -13 71
-28 145 -15 74 -29 146 -32 160 -2 14 -17 90 -34 170 -16 79 -29 145 -29 147
0 6 -19 3 -23 -4z"/>
<path d="M3209 668 c-5 -23 -9 -54 -14 -117 -3 -42 -8 -88 -11 -103 -4 -23 10
-47 21 -36 5 5 11 55 21 158 3 41 7 79 8 84 1 8 -23 22 -25 14z"/>
<path d="M3769 663 c-1 -5 -1 -10 -1 -13 9 -108 15 -179 18 -195 1 -11 3 -26
3 -32 1 -7 8 -13 16 -13 11 0 14 8 11 33 -3 17 -8 66 -11 107 -7 89 -14 120
-26 120 -5 0 -10 -3 -10 -7z"/>
<path d="M3488 648 c-7 -23 -2 -637 5 -644 4 -4 10 -4 14 0 7 7 12 609 5 639
-5 20 -18 23 -24 5z"/>
</g>
</svg>
